M48
; DRILL file {KiCad 7.0.5} date Sun 18 Jun 2023 12:00:01 BST
; FORMAT={-:-/ absolute / metric / decimal}
; #@! TF.CreationDate,2023-06-18T12:00:01+01:00
; #@! TF.GenerationSoftware,Kicad,Pcbnew,7.0.5
; #@! TF.FileFunction,NonPlated,1,2,NPTH
FMAT,2
METRIC
; #@! TA.AperFunction,NonPlated,NPTH,ComponentDrill
T1C0.800
; #@! TA.AperFunction,NonPlated,NPTH,ComponentDrill
T2C1.702
; #@! TA.AperFunction,NonPlated,NPTH,ComponentDrill
T3C3.988
%
G90
G05
T1
X190.96Y-127.495
X197.96Y-127.495
T2
X92.53Y-85.345
X92.53Y-104.345
X92.53Y-123.345
X102.69Y-85.345
X102.69Y-104.345
X102.69Y-123.345
X111.53Y-73.47
X111.53Y-92.47
X111.53Y-111.47
X121.69Y-73.47
X121.69Y-92.47
X121.69Y-111.47
X130.53Y-67.245
X130.53Y-86.245
X130.53Y-105.245
X140.69Y-67.245
X140.69Y-86.245
X140.69Y-105.245
X149.53Y-71.845
X149.53Y-90.845
X149.53Y-109.845
X158.975Y-131.318
X159.69Y-71.845
X159.69Y-90.845
X159.69Y-109.845
X168.53Y-74.345
X168.53Y-93.345
X168.53Y-112.345
X168.789Y-133.948
X178.69Y-74.345
X178.69Y-93.345
X178.69Y-112.345
X179.161Y-138.309
X187.959Y-143.389
T3
X97.61Y-85.345
X97.61Y-104.345
X97.61Y-123.345
X116.61Y-73.47
X116.61Y-92.47
X116.61Y-111.47
X135.61Y-67.245
X135.61Y-86.245
X135.61Y-105.245
X154.61Y-71.845
X154.61Y-90.845
X154.61Y-109.845
X163.882Y-132.633
X173.61Y-74.345
X173.61Y-93.345
X173.61Y-112.345
X183.56Y-140.849
T0
M30
