G04 #@! TF.GenerationSoftware,KiCad,Pcbnew,7.0.5*
G04 #@! TF.CreationDate,2023-06-20T22:03:51+01:00*
G04 #@! TF.ProjectId,adam-m-rounded,6164616d-2d6d-42d7-926f-756e6465642e,rev?*
G04 #@! TF.SameCoordinates,Original*
G04 #@! TF.FileFunction,Legend,Top*
G04 #@! TF.FilePolarity,Positive*
%FSLAX46Y46*%
G04 Gerber Fmt 4.6, Leading zero omitted, Abs format (unit mm)*
G04 Created by KiCad (PCBNEW 7.0.5) date 2023-06-20 22:03:51*
%MOMM*%
%LPD*%
G01*
G04 APERTURE LIST*
%ADD10C,0.300000*%
%ADD11C,0.200000*%
%ADD12C,0.150000*%
%ADD13C,0.125000*%
%ADD14C,0.100000*%
%ADD15C,0.010000*%
%ADD16O,2.000000X1.600000*%
%ADD17C,0.800000*%
%ADD18C,1.524000*%
%ADD19C,1.701800*%
%ADD20C,3.987800*%
%ADD21C,2.286000*%
%ADD22C,2.000000*%
%ADD23C,4.400000*%
G04 APERTURE END LIST*
D10*
X193745828Y-117769774D02*
X193745828Y-117198346D01*
X194745828Y-117555489D02*
X193460114Y-117555489D01*
X193460114Y-117555489D02*
X193317257Y-117484060D01*
X193317257Y-117484060D02*
X193245828Y-117341203D01*
X193245828Y-117341203D02*
X193245828Y-117198346D01*
X194745828Y-116055489D02*
X193960114Y-116055489D01*
X193960114Y-116055489D02*
X193817257Y-116126917D01*
X193817257Y-116126917D02*
X193745828Y-116269774D01*
X193745828Y-116269774D02*
X193745828Y-116555489D01*
X193745828Y-116555489D02*
X193817257Y-116698346D01*
X194674400Y-116055489D02*
X194745828Y-116198346D01*
X194745828Y-116198346D02*
X194745828Y-116555489D01*
X194745828Y-116555489D02*
X194674400Y-116698346D01*
X194674400Y-116698346D02*
X194531542Y-116769774D01*
X194531542Y-116769774D02*
X194388685Y-116769774D01*
X194388685Y-116769774D02*
X194245828Y-116698346D01*
X194245828Y-116698346D02*
X194174400Y-116555489D01*
X194174400Y-116555489D02*
X194174400Y-116198346D01*
X194174400Y-116198346D02*
X194102971Y-116055489D01*
X194674400Y-114698346D02*
X194745828Y-114841203D01*
X194745828Y-114841203D02*
X194745828Y-115126917D01*
X194745828Y-115126917D02*
X194674400Y-115269774D01*
X194674400Y-115269774D02*
X194602971Y-115341203D01*
X194602971Y-115341203D02*
X194460114Y-115412631D01*
X194460114Y-115412631D02*
X194031542Y-115412631D01*
X194031542Y-115412631D02*
X193888685Y-115341203D01*
X193888685Y-115341203D02*
X193817257Y-115269774D01*
X193817257Y-115269774D02*
X193745828Y-115126917D01*
X193745828Y-115126917D02*
X193745828Y-114841203D01*
X193745828Y-114841203D02*
X193817257Y-114698346D01*
X194674400Y-113484060D02*
X194745828Y-113626917D01*
X194745828Y-113626917D02*
X194745828Y-113912632D01*
X194745828Y-113912632D02*
X194674400Y-114055489D01*
X194674400Y-114055489D02*
X194531542Y-114126917D01*
X194531542Y-114126917D02*
X193960114Y-114126917D01*
X193960114Y-114126917D02*
X193817257Y-114055489D01*
X193817257Y-114055489D02*
X193745828Y-113912632D01*
X193745828Y-113912632D02*
X193745828Y-113626917D01*
X193745828Y-113626917D02*
X193817257Y-113484060D01*
X193817257Y-113484060D02*
X193960114Y-113412632D01*
X193960114Y-113412632D02*
X194102971Y-113412632D01*
X194102971Y-113412632D02*
X194245828Y-114126917D01*
X194745828Y-110984061D02*
X193245828Y-110984061D01*
X194674400Y-110984061D02*
X194745828Y-111126918D01*
X194745828Y-111126918D02*
X194745828Y-111412632D01*
X194745828Y-111412632D02*
X194674400Y-111555489D01*
X194674400Y-111555489D02*
X194602971Y-111626918D01*
X194602971Y-111626918D02*
X194460114Y-111698346D01*
X194460114Y-111698346D02*
X194031542Y-111698346D01*
X194031542Y-111698346D02*
X193888685Y-111626918D01*
X193888685Y-111626918D02*
X193817257Y-111555489D01*
X193817257Y-111555489D02*
X193745828Y-111412632D01*
X193745828Y-111412632D02*
X193745828Y-111126918D01*
X193745828Y-111126918D02*
X193817257Y-110984061D01*
X194745828Y-110055489D02*
X194674400Y-110198346D01*
X194674400Y-110198346D02*
X194602971Y-110269775D01*
X194602971Y-110269775D02*
X194460114Y-110341203D01*
X194460114Y-110341203D02*
X194031542Y-110341203D01*
X194031542Y-110341203D02*
X193888685Y-110269775D01*
X193888685Y-110269775D02*
X193817257Y-110198346D01*
X193817257Y-110198346D02*
X193745828Y-110055489D01*
X193745828Y-110055489D02*
X193745828Y-109841203D01*
X193745828Y-109841203D02*
X193817257Y-109698346D01*
X193817257Y-109698346D02*
X193888685Y-109626918D01*
X193888685Y-109626918D02*
X194031542Y-109555489D01*
X194031542Y-109555489D02*
X194460114Y-109555489D01*
X194460114Y-109555489D02*
X194602971Y-109626918D01*
X194602971Y-109626918D02*
X194674400Y-109698346D01*
X194674400Y-109698346D02*
X194745828Y-109841203D01*
X194745828Y-109841203D02*
X194745828Y-110055489D01*
X193745828Y-109055489D02*
X194745828Y-108769775D01*
X194745828Y-108769775D02*
X194031542Y-108484060D01*
X194031542Y-108484060D02*
X194745828Y-108198346D01*
X194745828Y-108198346D02*
X193745828Y-107912632D01*
X193745828Y-107341203D02*
X194745828Y-107341203D01*
X193888685Y-107341203D02*
X193817257Y-107269774D01*
X193817257Y-107269774D02*
X193745828Y-107126917D01*
X193745828Y-107126917D02*
X193745828Y-106912631D01*
X193745828Y-106912631D02*
X193817257Y-106769774D01*
X193817257Y-106769774D02*
X193960114Y-106698346D01*
X193960114Y-106698346D02*
X194745828Y-106698346D01*
D11*
X188693790Y-117140326D02*
X189836647Y-117140326D01*
X189836647Y-117140326D02*
X190065219Y-117216517D01*
X190065219Y-117216517D02*
X190217600Y-117368898D01*
X190217600Y-117368898D02*
X190293790Y-117597469D01*
X190293790Y-117597469D02*
X190293790Y-117749850D01*
X190293790Y-115616516D02*
X190293790Y-116378421D01*
X190293790Y-116378421D02*
X188693790Y-116378421D01*
X190141409Y-114168897D02*
X190217600Y-114245088D01*
X190217600Y-114245088D02*
X190293790Y-114473659D01*
X190293790Y-114473659D02*
X190293790Y-114626040D01*
X190293790Y-114626040D02*
X190217600Y-114854612D01*
X190217600Y-114854612D02*
X190065219Y-115006993D01*
X190065219Y-115006993D02*
X189912838Y-115083183D01*
X189912838Y-115083183D02*
X189608076Y-115159374D01*
X189608076Y-115159374D02*
X189379504Y-115159374D01*
X189379504Y-115159374D02*
X189074742Y-115083183D01*
X189074742Y-115083183D02*
X188922361Y-115006993D01*
X188922361Y-115006993D02*
X188769980Y-114854612D01*
X188769980Y-114854612D02*
X188693790Y-114626040D01*
X188693790Y-114626040D02*
X188693790Y-114473659D01*
X188693790Y-114473659D02*
X188769980Y-114245088D01*
X188769980Y-114245088D02*
X188846171Y-114168897D01*
X188693790Y-113026040D02*
X189836647Y-113026040D01*
X189836647Y-113026040D02*
X190065219Y-113102231D01*
X190065219Y-113102231D02*
X190217600Y-113254612D01*
X190217600Y-113254612D02*
X190293790Y-113483183D01*
X190293790Y-113483183D02*
X190293790Y-113635564D01*
X190293790Y-111502230D02*
X190293790Y-112264135D01*
X190293790Y-112264135D02*
X188693790Y-112264135D01*
X190141409Y-110054611D02*
X190217600Y-110130802D01*
X190217600Y-110130802D02*
X190293790Y-110359373D01*
X190293790Y-110359373D02*
X190293790Y-110511754D01*
X190293790Y-110511754D02*
X190217600Y-110740326D01*
X190217600Y-110740326D02*
X190065219Y-110892707D01*
X190065219Y-110892707D02*
X189912838Y-110968897D01*
X189912838Y-110968897D02*
X189608076Y-111045088D01*
X189608076Y-111045088D02*
X189379504Y-111045088D01*
X189379504Y-111045088D02*
X189074742Y-110968897D01*
X189074742Y-110968897D02*
X188922361Y-110892707D01*
X188922361Y-110892707D02*
X188769980Y-110740326D01*
X188769980Y-110740326D02*
X188693790Y-110511754D01*
X188693790Y-110511754D02*
X188693790Y-110359373D01*
X188693790Y-110359373D02*
X188769980Y-110130802D01*
X188769980Y-110130802D02*
X188846171Y-110054611D01*
X188693790Y-108911754D02*
X189836647Y-108911754D01*
X189836647Y-108911754D02*
X190065219Y-108987945D01*
X190065219Y-108987945D02*
X190217600Y-109140326D01*
X190217600Y-109140326D02*
X190293790Y-109368897D01*
X190293790Y-109368897D02*
X190293790Y-109521278D01*
X190293790Y-107387944D02*
X190293790Y-108149849D01*
X190293790Y-108149849D02*
X188693790Y-108149849D01*
X190141409Y-105940325D02*
X190217600Y-106016516D01*
X190217600Y-106016516D02*
X190293790Y-106245087D01*
X190293790Y-106245087D02*
X190293790Y-106397468D01*
X190293790Y-106397468D02*
X190217600Y-106626040D01*
X190217600Y-106626040D02*
X190065219Y-106778421D01*
X190065219Y-106778421D02*
X189912838Y-106854611D01*
X189912838Y-106854611D02*
X189608076Y-106930802D01*
X189608076Y-106930802D02*
X189379504Y-106930802D01*
X189379504Y-106930802D02*
X189074742Y-106854611D01*
X189074742Y-106854611D02*
X188922361Y-106778421D01*
X188922361Y-106778421D02*
X188769980Y-106626040D01*
X188769980Y-106626040D02*
X188693790Y-106397468D01*
X188693790Y-106397468D02*
X188693790Y-106245087D01*
X188693790Y-106245087D02*
X188769980Y-106016516D01*
X188769980Y-106016516D02*
X188846171Y-105940325D01*
X188693790Y-104797468D02*
X189836647Y-104797468D01*
X189836647Y-104797468D02*
X190065219Y-104873659D01*
X190065219Y-104873659D02*
X190217600Y-105026040D01*
X190217600Y-105026040D02*
X190293790Y-105254611D01*
X190293790Y-105254611D02*
X190293790Y-105406992D01*
X190293790Y-103273658D02*
X190293790Y-104035563D01*
X190293790Y-104035563D02*
X188693790Y-104035563D01*
X190141409Y-101826039D02*
X190217600Y-101902230D01*
X190217600Y-101902230D02*
X190293790Y-102130801D01*
X190293790Y-102130801D02*
X190293790Y-102283182D01*
X190293790Y-102283182D02*
X190217600Y-102511754D01*
X190217600Y-102511754D02*
X190065219Y-102664135D01*
X190065219Y-102664135D02*
X189912838Y-102740325D01*
X189912838Y-102740325D02*
X189608076Y-102816516D01*
X189608076Y-102816516D02*
X189379504Y-102816516D01*
X189379504Y-102816516D02*
X189074742Y-102740325D01*
X189074742Y-102740325D02*
X188922361Y-102664135D01*
X188922361Y-102664135D02*
X188769980Y-102511754D01*
X188769980Y-102511754D02*
X188693790Y-102283182D01*
X188693790Y-102283182D02*
X188693790Y-102130801D01*
X188693790Y-102130801D02*
X188769980Y-101902230D01*
X188769980Y-101902230D02*
X188846171Y-101826039D01*
D12*
X191888819Y-112114904D02*
X192698342Y-112114904D01*
X192698342Y-112114904D02*
X192793580Y-112067285D01*
X192793580Y-112067285D02*
X192841200Y-112019666D01*
X192841200Y-112019666D02*
X192888819Y-111924428D01*
X192888819Y-111924428D02*
X192888819Y-111733952D01*
X192888819Y-111733952D02*
X192841200Y-111638714D01*
X192841200Y-111638714D02*
X192793580Y-111591095D01*
X192793580Y-111591095D02*
X192698342Y-111543476D01*
X192698342Y-111543476D02*
X191888819Y-111543476D01*
X192888819Y-110543476D02*
X192888819Y-111114904D01*
X192888819Y-110829190D02*
X191888819Y-110829190D01*
X191888819Y-110829190D02*
X192031676Y-110924428D01*
X192031676Y-110924428D02*
X192126914Y-111019666D01*
X192126914Y-111019666D02*
X192174533Y-111114904D01*
D13*
X199183047Y-101417178D02*
X199135428Y-101381464D01*
X199135428Y-101381464D02*
X199063999Y-101381464D01*
X199063999Y-101381464D02*
X198992571Y-101417178D01*
X198992571Y-101417178D02*
X198944952Y-101488607D01*
X198944952Y-101488607D02*
X198921142Y-101560035D01*
X198921142Y-101560035D02*
X198897333Y-101702892D01*
X198897333Y-101702892D02*
X198897333Y-101810035D01*
X198897333Y-101810035D02*
X198921142Y-101952892D01*
X198921142Y-101952892D02*
X198944952Y-102024321D01*
X198944952Y-102024321D02*
X198992571Y-102095750D01*
X198992571Y-102095750D02*
X199063999Y-102131464D01*
X199063999Y-102131464D02*
X199111618Y-102131464D01*
X199111618Y-102131464D02*
X199183047Y-102095750D01*
X199183047Y-102095750D02*
X199206856Y-102060035D01*
X199206856Y-102060035D02*
X199206856Y-101810035D01*
X199206856Y-101810035D02*
X199111618Y-101810035D01*
X199421142Y-102131464D02*
X199421142Y-101381464D01*
X199421142Y-101381464D02*
X199706856Y-102131464D01*
X199706856Y-102131464D02*
X199706856Y-101381464D01*
X199944952Y-102131464D02*
X199944952Y-101381464D01*
X199944952Y-101381464D02*
X200064000Y-101381464D01*
X200064000Y-101381464D02*
X200135428Y-101417178D01*
X200135428Y-101417178D02*
X200183047Y-101488607D01*
X200183047Y-101488607D02*
X200206857Y-101560035D01*
X200206857Y-101560035D02*
X200230666Y-101702892D01*
X200230666Y-101702892D02*
X200230666Y-101810035D01*
X200230666Y-101810035D02*
X200206857Y-101952892D01*
X200206857Y-101952892D02*
X200183047Y-102024321D01*
X200183047Y-102024321D02*
X200135428Y-102095750D01*
X200135428Y-102095750D02*
X200064000Y-102131464D01*
X200064000Y-102131464D02*
X199944952Y-102131464D01*
X187553047Y-96307178D02*
X187505428Y-96271464D01*
X187505428Y-96271464D02*
X187433999Y-96271464D01*
X187433999Y-96271464D02*
X187362571Y-96307178D01*
X187362571Y-96307178D02*
X187314952Y-96378607D01*
X187314952Y-96378607D02*
X187291142Y-96450035D01*
X187291142Y-96450035D02*
X187267333Y-96592892D01*
X187267333Y-96592892D02*
X187267333Y-96700035D01*
X187267333Y-96700035D02*
X187291142Y-96842892D01*
X187291142Y-96842892D02*
X187314952Y-96914321D01*
X187314952Y-96914321D02*
X187362571Y-96985750D01*
X187362571Y-96985750D02*
X187433999Y-97021464D01*
X187433999Y-97021464D02*
X187481618Y-97021464D01*
X187481618Y-97021464D02*
X187553047Y-96985750D01*
X187553047Y-96985750D02*
X187576856Y-96950035D01*
X187576856Y-96950035D02*
X187576856Y-96700035D01*
X187576856Y-96700035D02*
X187481618Y-96700035D01*
X187791142Y-97021464D02*
X187791142Y-96271464D01*
X187791142Y-96271464D02*
X188076856Y-97021464D01*
X188076856Y-97021464D02*
X188076856Y-96271464D01*
X188314952Y-97021464D02*
X188314952Y-96271464D01*
X188314952Y-96271464D02*
X188434000Y-96271464D01*
X188434000Y-96271464D02*
X188505428Y-96307178D01*
X188505428Y-96307178D02*
X188553047Y-96378607D01*
X188553047Y-96378607D02*
X188576857Y-96450035D01*
X188576857Y-96450035D02*
X188600666Y-96592892D01*
X188600666Y-96592892D02*
X188600666Y-96700035D01*
X188600666Y-96700035D02*
X188576857Y-96842892D01*
X188576857Y-96842892D02*
X188553047Y-96914321D01*
X188553047Y-96914321D02*
X188505428Y-96985750D01*
X188505428Y-96985750D02*
X188434000Y-97021464D01*
X188434000Y-97021464D02*
X188314952Y-97021464D01*
X199203047Y-98837178D02*
X199155428Y-98801464D01*
X199155428Y-98801464D02*
X199083999Y-98801464D01*
X199083999Y-98801464D02*
X199012571Y-98837178D01*
X199012571Y-98837178D02*
X198964952Y-98908607D01*
X198964952Y-98908607D02*
X198941142Y-98980035D01*
X198941142Y-98980035D02*
X198917333Y-99122892D01*
X198917333Y-99122892D02*
X198917333Y-99230035D01*
X198917333Y-99230035D02*
X198941142Y-99372892D01*
X198941142Y-99372892D02*
X198964952Y-99444321D01*
X198964952Y-99444321D02*
X199012571Y-99515750D01*
X199012571Y-99515750D02*
X199083999Y-99551464D01*
X199083999Y-99551464D02*
X199131618Y-99551464D01*
X199131618Y-99551464D02*
X199203047Y-99515750D01*
X199203047Y-99515750D02*
X199226856Y-99480035D01*
X199226856Y-99480035D02*
X199226856Y-99230035D01*
X199226856Y-99230035D02*
X199131618Y-99230035D01*
X199441142Y-99551464D02*
X199441142Y-98801464D01*
X199441142Y-98801464D02*
X199726856Y-99551464D01*
X199726856Y-99551464D02*
X199726856Y-98801464D01*
X199964952Y-99551464D02*
X199964952Y-98801464D01*
X199964952Y-98801464D02*
X200084000Y-98801464D01*
X200084000Y-98801464D02*
X200155428Y-98837178D01*
X200155428Y-98837178D02*
X200203047Y-98908607D01*
X200203047Y-98908607D02*
X200226857Y-98980035D01*
X200226857Y-98980035D02*
X200250666Y-99122892D01*
X200250666Y-99122892D02*
X200250666Y-99230035D01*
X200250666Y-99230035D02*
X200226857Y-99372892D01*
X200226857Y-99372892D02*
X200203047Y-99444321D01*
X200203047Y-99444321D02*
X200155428Y-99515750D01*
X200155428Y-99515750D02*
X200084000Y-99551464D01*
X200084000Y-99551464D02*
X199964952Y-99551464D01*
X187688761Y-94411464D02*
X187522095Y-94054321D01*
X187403047Y-94411464D02*
X187403047Y-93661464D01*
X187403047Y-93661464D02*
X187593523Y-93661464D01*
X187593523Y-93661464D02*
X187641142Y-93697178D01*
X187641142Y-93697178D02*
X187664952Y-93732892D01*
X187664952Y-93732892D02*
X187688761Y-93804321D01*
X187688761Y-93804321D02*
X187688761Y-93911464D01*
X187688761Y-93911464D02*
X187664952Y-93982892D01*
X187664952Y-93982892D02*
X187641142Y-94018607D01*
X187641142Y-94018607D02*
X187593523Y-94054321D01*
X187593523Y-94054321D02*
X187403047Y-94054321D01*
X187879238Y-94197178D02*
X188117333Y-94197178D01*
X187831619Y-94411464D02*
X187998285Y-93661464D01*
X187998285Y-93661464D02*
X188164952Y-94411464D01*
X188283999Y-93661464D02*
X188403047Y-94411464D01*
X188403047Y-94411464D02*
X188498285Y-93875750D01*
X188498285Y-93875750D02*
X188593523Y-94411464D01*
X188593523Y-94411464D02*
X188712571Y-93661464D01*
D12*
X115276667Y-65622200D02*
X115419524Y-65669819D01*
X115419524Y-65669819D02*
X115657619Y-65669819D01*
X115657619Y-65669819D02*
X115752857Y-65622200D01*
X115752857Y-65622200D02*
X115800476Y-65574580D01*
X115800476Y-65574580D02*
X115848095Y-65479342D01*
X115848095Y-65479342D02*
X115848095Y-65384104D01*
X115848095Y-65384104D02*
X115800476Y-65288866D01*
X115800476Y-65288866D02*
X115752857Y-65241247D01*
X115752857Y-65241247D02*
X115657619Y-65193628D01*
X115657619Y-65193628D02*
X115467143Y-65146009D01*
X115467143Y-65146009D02*
X115371905Y-65098390D01*
X115371905Y-65098390D02*
X115324286Y-65050771D01*
X115324286Y-65050771D02*
X115276667Y-64955533D01*
X115276667Y-64955533D02*
X115276667Y-64860295D01*
X115276667Y-64860295D02*
X115324286Y-64765057D01*
X115324286Y-64765057D02*
X115371905Y-64717438D01*
X115371905Y-64717438D02*
X115467143Y-64669819D01*
X115467143Y-64669819D02*
X115705238Y-64669819D01*
X115705238Y-64669819D02*
X115848095Y-64717438D01*
X116181429Y-64669819D02*
X116419524Y-65669819D01*
X116419524Y-65669819D02*
X116610000Y-64955533D01*
X116610000Y-64955533D02*
X116800476Y-65669819D01*
X116800476Y-65669819D02*
X117038572Y-64669819D01*
X117371905Y-64765057D02*
X117419524Y-64717438D01*
X117419524Y-64717438D02*
X117514762Y-64669819D01*
X117514762Y-64669819D02*
X117752857Y-64669819D01*
X117752857Y-64669819D02*
X117848095Y-64717438D01*
X117848095Y-64717438D02*
X117895714Y-64765057D01*
X117895714Y-64765057D02*
X117943333Y-64860295D01*
X117943333Y-64860295D02*
X117943333Y-64955533D01*
X117943333Y-64955533D02*
X117895714Y-65098390D01*
X117895714Y-65098390D02*
X117324286Y-65669819D01*
X117324286Y-65669819D02*
X117943333Y-65669819D01*
X133800476Y-97397200D02*
X133943333Y-97444819D01*
X133943333Y-97444819D02*
X134181428Y-97444819D01*
X134181428Y-97444819D02*
X134276666Y-97397200D01*
X134276666Y-97397200D02*
X134324285Y-97349580D01*
X134324285Y-97349580D02*
X134371904Y-97254342D01*
X134371904Y-97254342D02*
X134371904Y-97159104D01*
X134371904Y-97159104D02*
X134324285Y-97063866D01*
X134324285Y-97063866D02*
X134276666Y-97016247D01*
X134276666Y-97016247D02*
X134181428Y-96968628D01*
X134181428Y-96968628D02*
X133990952Y-96921009D01*
X133990952Y-96921009D02*
X133895714Y-96873390D01*
X133895714Y-96873390D02*
X133848095Y-96825771D01*
X133848095Y-96825771D02*
X133800476Y-96730533D01*
X133800476Y-96730533D02*
X133800476Y-96635295D01*
X133800476Y-96635295D02*
X133848095Y-96540057D01*
X133848095Y-96540057D02*
X133895714Y-96492438D01*
X133895714Y-96492438D02*
X133990952Y-96444819D01*
X133990952Y-96444819D02*
X134229047Y-96444819D01*
X134229047Y-96444819D02*
X134371904Y-96492438D01*
X134705238Y-96444819D02*
X134943333Y-97444819D01*
X134943333Y-97444819D02*
X135133809Y-96730533D01*
X135133809Y-96730533D02*
X135324285Y-97444819D01*
X135324285Y-97444819D02*
X135562381Y-96444819D01*
X136467142Y-97444819D02*
X135895714Y-97444819D01*
X136181428Y-97444819D02*
X136181428Y-96444819D01*
X136181428Y-96444819D02*
X136086190Y-96587676D01*
X136086190Y-96587676D02*
X135990952Y-96682914D01*
X135990952Y-96682914D02*
X135895714Y-96730533D01*
X136800476Y-96444819D02*
X137419523Y-96444819D01*
X137419523Y-96444819D02*
X137086190Y-96825771D01*
X137086190Y-96825771D02*
X137229047Y-96825771D01*
X137229047Y-96825771D02*
X137324285Y-96873390D01*
X137324285Y-96873390D02*
X137371904Y-96921009D01*
X137371904Y-96921009D02*
X137419523Y-97016247D01*
X137419523Y-97016247D02*
X137419523Y-97254342D01*
X137419523Y-97254342D02*
X137371904Y-97349580D01*
X137371904Y-97349580D02*
X137324285Y-97397200D01*
X137324285Y-97397200D02*
X137229047Y-97444819D01*
X137229047Y-97444819D02*
X136943333Y-97444819D01*
X136943333Y-97444819D02*
X136848095Y-97397200D01*
X136848095Y-97397200D02*
X136800476Y-97349580D01*
X114800476Y-103622200D02*
X114943333Y-103669819D01*
X114943333Y-103669819D02*
X115181428Y-103669819D01*
X115181428Y-103669819D02*
X115276666Y-103622200D01*
X115276666Y-103622200D02*
X115324285Y-103574580D01*
X115324285Y-103574580D02*
X115371904Y-103479342D01*
X115371904Y-103479342D02*
X115371904Y-103384104D01*
X115371904Y-103384104D02*
X115324285Y-103288866D01*
X115324285Y-103288866D02*
X115276666Y-103241247D01*
X115276666Y-103241247D02*
X115181428Y-103193628D01*
X115181428Y-103193628D02*
X114990952Y-103146009D01*
X114990952Y-103146009D02*
X114895714Y-103098390D01*
X114895714Y-103098390D02*
X114848095Y-103050771D01*
X114848095Y-103050771D02*
X114800476Y-102955533D01*
X114800476Y-102955533D02*
X114800476Y-102860295D01*
X114800476Y-102860295D02*
X114848095Y-102765057D01*
X114848095Y-102765057D02*
X114895714Y-102717438D01*
X114895714Y-102717438D02*
X114990952Y-102669819D01*
X114990952Y-102669819D02*
X115229047Y-102669819D01*
X115229047Y-102669819D02*
X115371904Y-102717438D01*
X115705238Y-102669819D02*
X115943333Y-103669819D01*
X115943333Y-103669819D02*
X116133809Y-102955533D01*
X116133809Y-102955533D02*
X116324285Y-103669819D01*
X116324285Y-103669819D02*
X116562381Y-102669819D01*
X117467142Y-103669819D02*
X116895714Y-103669819D01*
X117181428Y-103669819D02*
X117181428Y-102669819D01*
X117181428Y-102669819D02*
X117086190Y-102812676D01*
X117086190Y-102812676D02*
X116990952Y-102907914D01*
X116990952Y-102907914D02*
X116895714Y-102955533D01*
X117848095Y-102765057D02*
X117895714Y-102717438D01*
X117895714Y-102717438D02*
X117990952Y-102669819D01*
X117990952Y-102669819D02*
X118229047Y-102669819D01*
X118229047Y-102669819D02*
X118324285Y-102717438D01*
X118324285Y-102717438D02*
X118371904Y-102765057D01*
X118371904Y-102765057D02*
X118419523Y-102860295D01*
X118419523Y-102860295D02*
X118419523Y-102955533D01*
X118419523Y-102955533D02*
X118371904Y-103098390D01*
X118371904Y-103098390D02*
X117800476Y-103669819D01*
X117800476Y-103669819D02*
X118419523Y-103669819D01*
X152800476Y-101997200D02*
X152943333Y-102044819D01*
X152943333Y-102044819D02*
X153181428Y-102044819D01*
X153181428Y-102044819D02*
X153276666Y-101997200D01*
X153276666Y-101997200D02*
X153324285Y-101949580D01*
X153324285Y-101949580D02*
X153371904Y-101854342D01*
X153371904Y-101854342D02*
X153371904Y-101759104D01*
X153371904Y-101759104D02*
X153324285Y-101663866D01*
X153324285Y-101663866D02*
X153276666Y-101616247D01*
X153276666Y-101616247D02*
X153181428Y-101568628D01*
X153181428Y-101568628D02*
X152990952Y-101521009D01*
X152990952Y-101521009D02*
X152895714Y-101473390D01*
X152895714Y-101473390D02*
X152848095Y-101425771D01*
X152848095Y-101425771D02*
X152800476Y-101330533D01*
X152800476Y-101330533D02*
X152800476Y-101235295D01*
X152800476Y-101235295D02*
X152848095Y-101140057D01*
X152848095Y-101140057D02*
X152895714Y-101092438D01*
X152895714Y-101092438D02*
X152990952Y-101044819D01*
X152990952Y-101044819D02*
X153229047Y-101044819D01*
X153229047Y-101044819D02*
X153371904Y-101092438D01*
X153705238Y-101044819D02*
X153943333Y-102044819D01*
X153943333Y-102044819D02*
X154133809Y-101330533D01*
X154133809Y-101330533D02*
X154324285Y-102044819D01*
X154324285Y-102044819D02*
X154562381Y-101044819D01*
X155467142Y-102044819D02*
X154895714Y-102044819D01*
X155181428Y-102044819D02*
X155181428Y-101044819D01*
X155181428Y-101044819D02*
X155086190Y-101187676D01*
X155086190Y-101187676D02*
X154990952Y-101282914D01*
X154990952Y-101282914D02*
X154895714Y-101330533D01*
X156324285Y-101378152D02*
X156324285Y-102044819D01*
X156086190Y-100997200D02*
X155848095Y-101711485D01*
X155848095Y-101711485D02*
X156467142Y-101711485D01*
X96276667Y-77497200D02*
X96419524Y-77544819D01*
X96419524Y-77544819D02*
X96657619Y-77544819D01*
X96657619Y-77544819D02*
X96752857Y-77497200D01*
X96752857Y-77497200D02*
X96800476Y-77449580D01*
X96800476Y-77449580D02*
X96848095Y-77354342D01*
X96848095Y-77354342D02*
X96848095Y-77259104D01*
X96848095Y-77259104D02*
X96800476Y-77163866D01*
X96800476Y-77163866D02*
X96752857Y-77116247D01*
X96752857Y-77116247D02*
X96657619Y-77068628D01*
X96657619Y-77068628D02*
X96467143Y-77021009D01*
X96467143Y-77021009D02*
X96371905Y-76973390D01*
X96371905Y-76973390D02*
X96324286Y-76925771D01*
X96324286Y-76925771D02*
X96276667Y-76830533D01*
X96276667Y-76830533D02*
X96276667Y-76735295D01*
X96276667Y-76735295D02*
X96324286Y-76640057D01*
X96324286Y-76640057D02*
X96371905Y-76592438D01*
X96371905Y-76592438D02*
X96467143Y-76544819D01*
X96467143Y-76544819D02*
X96705238Y-76544819D01*
X96705238Y-76544819D02*
X96848095Y-76592438D01*
X97181429Y-76544819D02*
X97419524Y-77544819D01*
X97419524Y-77544819D02*
X97610000Y-76830533D01*
X97610000Y-76830533D02*
X97800476Y-77544819D01*
X97800476Y-77544819D02*
X98038572Y-76544819D01*
X98943333Y-77544819D02*
X98371905Y-77544819D01*
X98657619Y-77544819D02*
X98657619Y-76544819D01*
X98657619Y-76544819D02*
X98562381Y-76687676D01*
X98562381Y-76687676D02*
X98467143Y-76782914D01*
X98467143Y-76782914D02*
X98371905Y-76830533D01*
X96276667Y-96497200D02*
X96419524Y-96544819D01*
X96419524Y-96544819D02*
X96657619Y-96544819D01*
X96657619Y-96544819D02*
X96752857Y-96497200D01*
X96752857Y-96497200D02*
X96800476Y-96449580D01*
X96800476Y-96449580D02*
X96848095Y-96354342D01*
X96848095Y-96354342D02*
X96848095Y-96259104D01*
X96848095Y-96259104D02*
X96800476Y-96163866D01*
X96800476Y-96163866D02*
X96752857Y-96116247D01*
X96752857Y-96116247D02*
X96657619Y-96068628D01*
X96657619Y-96068628D02*
X96467143Y-96021009D01*
X96467143Y-96021009D02*
X96371905Y-95973390D01*
X96371905Y-95973390D02*
X96324286Y-95925771D01*
X96324286Y-95925771D02*
X96276667Y-95830533D01*
X96276667Y-95830533D02*
X96276667Y-95735295D01*
X96276667Y-95735295D02*
X96324286Y-95640057D01*
X96324286Y-95640057D02*
X96371905Y-95592438D01*
X96371905Y-95592438D02*
X96467143Y-95544819D01*
X96467143Y-95544819D02*
X96705238Y-95544819D01*
X96705238Y-95544819D02*
X96848095Y-95592438D01*
X97181429Y-95544819D02*
X97419524Y-96544819D01*
X97419524Y-96544819D02*
X97610000Y-95830533D01*
X97610000Y-95830533D02*
X97800476Y-96544819D01*
X97800476Y-96544819D02*
X98038572Y-95544819D01*
X98848095Y-95544819D02*
X98657619Y-95544819D01*
X98657619Y-95544819D02*
X98562381Y-95592438D01*
X98562381Y-95592438D02*
X98514762Y-95640057D01*
X98514762Y-95640057D02*
X98419524Y-95782914D01*
X98419524Y-95782914D02*
X98371905Y-95973390D01*
X98371905Y-95973390D02*
X98371905Y-96354342D01*
X98371905Y-96354342D02*
X98419524Y-96449580D01*
X98419524Y-96449580D02*
X98467143Y-96497200D01*
X98467143Y-96497200D02*
X98562381Y-96544819D01*
X98562381Y-96544819D02*
X98752857Y-96544819D01*
X98752857Y-96544819D02*
X98848095Y-96497200D01*
X98848095Y-96497200D02*
X98895714Y-96449580D01*
X98895714Y-96449580D02*
X98943333Y-96354342D01*
X98943333Y-96354342D02*
X98943333Y-96116247D01*
X98943333Y-96116247D02*
X98895714Y-96021009D01*
X98895714Y-96021009D02*
X98848095Y-95973390D01*
X98848095Y-95973390D02*
X98752857Y-95925771D01*
X98752857Y-95925771D02*
X98562381Y-95925771D01*
X98562381Y-95925771D02*
X98467143Y-95973390D01*
X98467143Y-95973390D02*
X98419524Y-96021009D01*
X98419524Y-96021009D02*
X98371905Y-96116247D01*
X192272618Y-96154819D02*
X191939285Y-95678628D01*
X191701190Y-96154819D02*
X191701190Y-95154819D01*
X191701190Y-95154819D02*
X192082142Y-95154819D01*
X192082142Y-95154819D02*
X192177380Y-95202438D01*
X192177380Y-95202438D02*
X192224999Y-95250057D01*
X192224999Y-95250057D02*
X192272618Y-95345295D01*
X192272618Y-95345295D02*
X192272618Y-95488152D01*
X192272618Y-95488152D02*
X192224999Y-95583390D01*
X192224999Y-95583390D02*
X192177380Y-95631009D01*
X192177380Y-95631009D02*
X192082142Y-95678628D01*
X192082142Y-95678628D02*
X191701190Y-95678628D01*
X192701190Y-95631009D02*
X193034523Y-95631009D01*
X193177380Y-96154819D02*
X192701190Y-96154819D01*
X192701190Y-96154819D02*
X192701190Y-95154819D01*
X192701190Y-95154819D02*
X193177380Y-95154819D01*
X193558333Y-96107200D02*
X193701190Y-96154819D01*
X193701190Y-96154819D02*
X193939285Y-96154819D01*
X193939285Y-96154819D02*
X194034523Y-96107200D01*
X194034523Y-96107200D02*
X194082142Y-96059580D01*
X194082142Y-96059580D02*
X194129761Y-95964342D01*
X194129761Y-95964342D02*
X194129761Y-95869104D01*
X194129761Y-95869104D02*
X194082142Y-95773866D01*
X194082142Y-95773866D02*
X194034523Y-95726247D01*
X194034523Y-95726247D02*
X193939285Y-95678628D01*
X193939285Y-95678628D02*
X193748809Y-95631009D01*
X193748809Y-95631009D02*
X193653571Y-95583390D01*
X193653571Y-95583390D02*
X193605952Y-95535771D01*
X193605952Y-95535771D02*
X193558333Y-95440533D01*
X193558333Y-95440533D02*
X193558333Y-95345295D01*
X193558333Y-95345295D02*
X193605952Y-95250057D01*
X193605952Y-95250057D02*
X193653571Y-95202438D01*
X193653571Y-95202438D02*
X193748809Y-95154819D01*
X193748809Y-95154819D02*
X193986904Y-95154819D01*
X193986904Y-95154819D02*
X194129761Y-95202438D01*
X194558333Y-95631009D02*
X194891666Y-95631009D01*
X195034523Y-96154819D02*
X194558333Y-96154819D01*
X194558333Y-96154819D02*
X194558333Y-95154819D01*
X194558333Y-95154819D02*
X195034523Y-95154819D01*
X195320238Y-95154819D02*
X195891666Y-95154819D01*
X195605952Y-96154819D02*
X195605952Y-95154819D01*
D14*
X144348752Y-78996499D02*
X145348752Y-78996499D01*
X144396371Y-78996499D02*
X144348752Y-78901261D01*
X144348752Y-78901261D02*
X144348752Y-78710785D01*
X144348752Y-78710785D02*
X144396371Y-78615547D01*
X144396371Y-78615547D02*
X144443990Y-78567928D01*
X144443990Y-78567928D02*
X144539228Y-78520309D01*
X144539228Y-78520309D02*
X144824942Y-78520309D01*
X144824942Y-78520309D02*
X144920180Y-78567928D01*
X144920180Y-78567928D02*
X144967800Y-78615547D01*
X144967800Y-78615547D02*
X145015419Y-78710785D01*
X145015419Y-78710785D02*
X145015419Y-78901261D01*
X145015419Y-78901261D02*
X144967800Y-78996499D01*
X144348752Y-77663166D02*
X145015419Y-77663166D01*
X144348752Y-78091737D02*
X144872561Y-78091737D01*
X144872561Y-78091737D02*
X144967800Y-78044118D01*
X144967800Y-78044118D02*
X145015419Y-77948880D01*
X145015419Y-77948880D02*
X145015419Y-77806023D01*
X145015419Y-77806023D02*
X144967800Y-77710785D01*
X144967800Y-77710785D02*
X144920180Y-77663166D01*
X144967800Y-76758404D02*
X145015419Y-76853642D01*
X145015419Y-76853642D02*
X145015419Y-77044118D01*
X145015419Y-77044118D02*
X144967800Y-77139356D01*
X144967800Y-77139356D02*
X144920180Y-77186975D01*
X144920180Y-77186975D02*
X144824942Y-77234594D01*
X144824942Y-77234594D02*
X144539228Y-77234594D01*
X144539228Y-77234594D02*
X144443990Y-77186975D01*
X144443990Y-77186975D02*
X144396371Y-77139356D01*
X144396371Y-77139356D02*
X144348752Y-77044118D01*
X144348752Y-77044118D02*
X144348752Y-76853642D01*
X144348752Y-76853642D02*
X144396371Y-76758404D01*
X145015419Y-76329832D02*
X144015419Y-76329832D01*
X144634466Y-76234594D02*
X145015419Y-75948880D01*
X144348752Y-75948880D02*
X144729704Y-76329832D01*
X144412252Y-92886999D02*
X144412252Y-92506047D01*
X144078919Y-92744142D02*
X144936061Y-92744142D01*
X144936061Y-92744142D02*
X145031300Y-92696523D01*
X145031300Y-92696523D02*
X145078919Y-92601285D01*
X145078919Y-92601285D02*
X145078919Y-92506047D01*
X145031300Y-91791761D02*
X145078919Y-91886999D01*
X145078919Y-91886999D02*
X145078919Y-92077475D01*
X145078919Y-92077475D02*
X145031300Y-92172713D01*
X145031300Y-92172713D02*
X144936061Y-92220332D01*
X144936061Y-92220332D02*
X144555109Y-92220332D01*
X144555109Y-92220332D02*
X144459871Y-92172713D01*
X144459871Y-92172713D02*
X144412252Y-92077475D01*
X144412252Y-92077475D02*
X144412252Y-91886999D01*
X144412252Y-91886999D02*
X144459871Y-91791761D01*
X144459871Y-91791761D02*
X144555109Y-91744142D01*
X144555109Y-91744142D02*
X144650347Y-91744142D01*
X144650347Y-91744142D02*
X144745585Y-92220332D01*
X144412252Y-91315570D02*
X145078919Y-91315570D01*
X144507490Y-91315570D02*
X144459871Y-91267951D01*
X144459871Y-91267951D02*
X144412252Y-91172713D01*
X144412252Y-91172713D02*
X144412252Y-91029856D01*
X144412252Y-91029856D02*
X144459871Y-90934618D01*
X144459871Y-90934618D02*
X144555109Y-90886999D01*
X144555109Y-90886999D02*
X145078919Y-90886999D01*
X144412252Y-90553665D02*
X144412252Y-90172713D01*
X144078919Y-90410808D02*
X144936061Y-90410808D01*
X144936061Y-90410808D02*
X145031300Y-90363189D01*
X145031300Y-90363189D02*
X145078919Y-90267951D01*
X145078919Y-90267951D02*
X145078919Y-90172713D01*
X145078919Y-89839379D02*
X144412252Y-89839379D01*
X144078919Y-89839379D02*
X144126538Y-89886998D01*
X144126538Y-89886998D02*
X144174157Y-89839379D01*
X144174157Y-89839379D02*
X144126538Y-89791760D01*
X144126538Y-89791760D02*
X144078919Y-89839379D01*
X144078919Y-89839379D02*
X144174157Y-89839379D01*
X144412252Y-89363189D02*
X145078919Y-89363189D01*
X144507490Y-89363189D02*
X144459871Y-89315570D01*
X144459871Y-89315570D02*
X144412252Y-89220332D01*
X144412252Y-89220332D02*
X144412252Y-89077475D01*
X144412252Y-89077475D02*
X144459871Y-88982237D01*
X144459871Y-88982237D02*
X144555109Y-88934618D01*
X144555109Y-88934618D02*
X145078919Y-88934618D01*
X144412252Y-88029856D02*
X145221776Y-88029856D01*
X145221776Y-88029856D02*
X145317014Y-88077475D01*
X145317014Y-88077475D02*
X145364633Y-88125094D01*
X145364633Y-88125094D02*
X145412252Y-88220332D01*
X145412252Y-88220332D02*
X145412252Y-88363189D01*
X145412252Y-88363189D02*
X145364633Y-88458427D01*
X145031300Y-88029856D02*
X145078919Y-88125094D01*
X145078919Y-88125094D02*
X145078919Y-88315570D01*
X145078919Y-88315570D02*
X145031300Y-88410808D01*
X145031300Y-88410808D02*
X144983680Y-88458427D01*
X144983680Y-88458427D02*
X144888442Y-88506046D01*
X144888442Y-88506046D02*
X144602728Y-88506046D01*
X144602728Y-88506046D02*
X144507490Y-88458427D01*
X144507490Y-88458427D02*
X144459871Y-88410808D01*
X144459871Y-88410808D02*
X144412252Y-88315570D01*
X144412252Y-88315570D02*
X144412252Y-88125094D01*
X144412252Y-88125094D02*
X144459871Y-88029856D01*
D12*
X153276667Y-82997200D02*
X153419524Y-83044819D01*
X153419524Y-83044819D02*
X153657619Y-83044819D01*
X153657619Y-83044819D02*
X153752857Y-82997200D01*
X153752857Y-82997200D02*
X153800476Y-82949580D01*
X153800476Y-82949580D02*
X153848095Y-82854342D01*
X153848095Y-82854342D02*
X153848095Y-82759104D01*
X153848095Y-82759104D02*
X153800476Y-82663866D01*
X153800476Y-82663866D02*
X153752857Y-82616247D01*
X153752857Y-82616247D02*
X153657619Y-82568628D01*
X153657619Y-82568628D02*
X153467143Y-82521009D01*
X153467143Y-82521009D02*
X153371905Y-82473390D01*
X153371905Y-82473390D02*
X153324286Y-82425771D01*
X153324286Y-82425771D02*
X153276667Y-82330533D01*
X153276667Y-82330533D02*
X153276667Y-82235295D01*
X153276667Y-82235295D02*
X153324286Y-82140057D01*
X153324286Y-82140057D02*
X153371905Y-82092438D01*
X153371905Y-82092438D02*
X153467143Y-82044819D01*
X153467143Y-82044819D02*
X153705238Y-82044819D01*
X153705238Y-82044819D02*
X153848095Y-82092438D01*
X154181429Y-82044819D02*
X154419524Y-83044819D01*
X154419524Y-83044819D02*
X154610000Y-82330533D01*
X154610000Y-82330533D02*
X154800476Y-83044819D01*
X154800476Y-83044819D02*
X155038572Y-82044819D01*
X155467143Y-83044819D02*
X155657619Y-83044819D01*
X155657619Y-83044819D02*
X155752857Y-82997200D01*
X155752857Y-82997200D02*
X155800476Y-82949580D01*
X155800476Y-82949580D02*
X155895714Y-82806723D01*
X155895714Y-82806723D02*
X155943333Y-82616247D01*
X155943333Y-82616247D02*
X155943333Y-82235295D01*
X155943333Y-82235295D02*
X155895714Y-82140057D01*
X155895714Y-82140057D02*
X155848095Y-82092438D01*
X155848095Y-82092438D02*
X155752857Y-82044819D01*
X155752857Y-82044819D02*
X155562381Y-82044819D01*
X155562381Y-82044819D02*
X155467143Y-82092438D01*
X155467143Y-82092438D02*
X155419524Y-82140057D01*
X155419524Y-82140057D02*
X155371905Y-82235295D01*
X155371905Y-82235295D02*
X155371905Y-82473390D01*
X155371905Y-82473390D02*
X155419524Y-82568628D01*
X155419524Y-82568628D02*
X155467143Y-82616247D01*
X155467143Y-82616247D02*
X155562381Y-82663866D01*
X155562381Y-82663866D02*
X155752857Y-82663866D01*
X155752857Y-82663866D02*
X155848095Y-82616247D01*
X155848095Y-82616247D02*
X155895714Y-82568628D01*
X155895714Y-82568628D02*
X155943333Y-82473390D01*
X95800476Y-115497200D02*
X95943333Y-115544819D01*
X95943333Y-115544819D02*
X96181428Y-115544819D01*
X96181428Y-115544819D02*
X96276666Y-115497200D01*
X96276666Y-115497200D02*
X96324285Y-115449580D01*
X96324285Y-115449580D02*
X96371904Y-115354342D01*
X96371904Y-115354342D02*
X96371904Y-115259104D01*
X96371904Y-115259104D02*
X96324285Y-115163866D01*
X96324285Y-115163866D02*
X96276666Y-115116247D01*
X96276666Y-115116247D02*
X96181428Y-115068628D01*
X96181428Y-115068628D02*
X95990952Y-115021009D01*
X95990952Y-115021009D02*
X95895714Y-114973390D01*
X95895714Y-114973390D02*
X95848095Y-114925771D01*
X95848095Y-114925771D02*
X95800476Y-114830533D01*
X95800476Y-114830533D02*
X95800476Y-114735295D01*
X95800476Y-114735295D02*
X95848095Y-114640057D01*
X95848095Y-114640057D02*
X95895714Y-114592438D01*
X95895714Y-114592438D02*
X95990952Y-114544819D01*
X95990952Y-114544819D02*
X96229047Y-114544819D01*
X96229047Y-114544819D02*
X96371904Y-114592438D01*
X96705238Y-114544819D02*
X96943333Y-115544819D01*
X96943333Y-115544819D02*
X97133809Y-114830533D01*
X97133809Y-114830533D02*
X97324285Y-115544819D01*
X97324285Y-115544819D02*
X97562381Y-114544819D01*
X98467142Y-115544819D02*
X97895714Y-115544819D01*
X98181428Y-115544819D02*
X98181428Y-114544819D01*
X98181428Y-114544819D02*
X98086190Y-114687676D01*
X98086190Y-114687676D02*
X97990952Y-114782914D01*
X97990952Y-114782914D02*
X97895714Y-114830533D01*
X99419523Y-115544819D02*
X98848095Y-115544819D01*
X99133809Y-115544819D02*
X99133809Y-114544819D01*
X99133809Y-114544819D02*
X99038571Y-114687676D01*
X99038571Y-114687676D02*
X98943333Y-114782914D01*
X98943333Y-114782914D02*
X98848095Y-114830533D01*
X134276667Y-78397200D02*
X134419524Y-78444819D01*
X134419524Y-78444819D02*
X134657619Y-78444819D01*
X134657619Y-78444819D02*
X134752857Y-78397200D01*
X134752857Y-78397200D02*
X134800476Y-78349580D01*
X134800476Y-78349580D02*
X134848095Y-78254342D01*
X134848095Y-78254342D02*
X134848095Y-78159104D01*
X134848095Y-78159104D02*
X134800476Y-78063866D01*
X134800476Y-78063866D02*
X134752857Y-78016247D01*
X134752857Y-78016247D02*
X134657619Y-77968628D01*
X134657619Y-77968628D02*
X134467143Y-77921009D01*
X134467143Y-77921009D02*
X134371905Y-77873390D01*
X134371905Y-77873390D02*
X134324286Y-77825771D01*
X134324286Y-77825771D02*
X134276667Y-77730533D01*
X134276667Y-77730533D02*
X134276667Y-77635295D01*
X134276667Y-77635295D02*
X134324286Y-77540057D01*
X134324286Y-77540057D02*
X134371905Y-77492438D01*
X134371905Y-77492438D02*
X134467143Y-77444819D01*
X134467143Y-77444819D02*
X134705238Y-77444819D01*
X134705238Y-77444819D02*
X134848095Y-77492438D01*
X135181429Y-77444819D02*
X135419524Y-78444819D01*
X135419524Y-78444819D02*
X135610000Y-77730533D01*
X135610000Y-77730533D02*
X135800476Y-78444819D01*
X135800476Y-78444819D02*
X136038572Y-77444819D01*
X136562381Y-77873390D02*
X136467143Y-77825771D01*
X136467143Y-77825771D02*
X136419524Y-77778152D01*
X136419524Y-77778152D02*
X136371905Y-77682914D01*
X136371905Y-77682914D02*
X136371905Y-77635295D01*
X136371905Y-77635295D02*
X136419524Y-77540057D01*
X136419524Y-77540057D02*
X136467143Y-77492438D01*
X136467143Y-77492438D02*
X136562381Y-77444819D01*
X136562381Y-77444819D02*
X136752857Y-77444819D01*
X136752857Y-77444819D02*
X136848095Y-77492438D01*
X136848095Y-77492438D02*
X136895714Y-77540057D01*
X136895714Y-77540057D02*
X136943333Y-77635295D01*
X136943333Y-77635295D02*
X136943333Y-77682914D01*
X136943333Y-77682914D02*
X136895714Y-77778152D01*
X136895714Y-77778152D02*
X136848095Y-77825771D01*
X136848095Y-77825771D02*
X136752857Y-77873390D01*
X136752857Y-77873390D02*
X136562381Y-77873390D01*
X136562381Y-77873390D02*
X136467143Y-77921009D01*
X136467143Y-77921009D02*
X136419524Y-77968628D01*
X136419524Y-77968628D02*
X136371905Y-78063866D01*
X136371905Y-78063866D02*
X136371905Y-78254342D01*
X136371905Y-78254342D02*
X136419524Y-78349580D01*
X136419524Y-78349580D02*
X136467143Y-78397200D01*
X136467143Y-78397200D02*
X136562381Y-78444819D01*
X136562381Y-78444819D02*
X136752857Y-78444819D01*
X136752857Y-78444819D02*
X136848095Y-78397200D01*
X136848095Y-78397200D02*
X136895714Y-78349580D01*
X136895714Y-78349580D02*
X136943333Y-78254342D01*
X136943333Y-78254342D02*
X136943333Y-78063866D01*
X136943333Y-78063866D02*
X136895714Y-77968628D01*
X136895714Y-77968628D02*
X136848095Y-77921009D01*
X136848095Y-77921009D02*
X136752857Y-77873390D01*
X185916806Y-133147843D02*
X186016714Y-133260511D01*
X186016714Y-133260511D02*
X186222911Y-133379559D01*
X186222911Y-133379559D02*
X186329199Y-133385938D01*
X186329199Y-133385938D02*
X186394248Y-133368509D01*
X186394248Y-133368509D02*
X186483106Y-133309840D01*
X186483106Y-133309840D02*
X186530725Y-133227361D01*
X186530725Y-133227361D02*
X186537105Y-133121073D01*
X186537105Y-133121073D02*
X186519675Y-133056024D01*
X186519675Y-133056024D02*
X186461006Y-132967166D01*
X186461006Y-132967166D02*
X186319858Y-132830688D01*
X186319858Y-132830688D02*
X186261189Y-132741830D01*
X186261189Y-132741830D02*
X186243760Y-132676781D01*
X186243760Y-132676781D02*
X186250139Y-132570493D01*
X186250139Y-132570493D02*
X186297758Y-132488014D01*
X186297758Y-132488014D02*
X186386617Y-132429345D01*
X186386617Y-132429345D02*
X186451665Y-132411915D01*
X186451665Y-132411915D02*
X186557954Y-132418295D01*
X186557954Y-132418295D02*
X186764150Y-132537343D01*
X186764150Y-132537343D02*
X186864059Y-132650011D01*
X187176543Y-132775438D02*
X186882740Y-133760511D01*
X186882740Y-133760511D02*
X187404840Y-133237160D01*
X187404840Y-133237160D02*
X187212654Y-133950987D01*
X187212654Y-133950987D02*
X187918851Y-133204009D01*
X188202397Y-134522416D02*
X187707526Y-134236701D01*
X187954962Y-134379559D02*
X188454962Y-133513533D01*
X188454962Y-133513533D02*
X188301054Y-133589632D01*
X188301054Y-133589632D02*
X188170957Y-133624492D01*
X188170957Y-133624492D02*
X188064669Y-133618112D01*
X188991073Y-133823057D02*
X189568423Y-134156390D01*
X189568423Y-134156390D02*
X188697269Y-134808130D01*
X115276667Y-84622200D02*
X115419524Y-84669819D01*
X115419524Y-84669819D02*
X115657619Y-84669819D01*
X115657619Y-84669819D02*
X115752857Y-84622200D01*
X115752857Y-84622200D02*
X115800476Y-84574580D01*
X115800476Y-84574580D02*
X115848095Y-84479342D01*
X115848095Y-84479342D02*
X115848095Y-84384104D01*
X115848095Y-84384104D02*
X115800476Y-84288866D01*
X115800476Y-84288866D02*
X115752857Y-84241247D01*
X115752857Y-84241247D02*
X115657619Y-84193628D01*
X115657619Y-84193628D02*
X115467143Y-84146009D01*
X115467143Y-84146009D02*
X115371905Y-84098390D01*
X115371905Y-84098390D02*
X115324286Y-84050771D01*
X115324286Y-84050771D02*
X115276667Y-83955533D01*
X115276667Y-83955533D02*
X115276667Y-83860295D01*
X115276667Y-83860295D02*
X115324286Y-83765057D01*
X115324286Y-83765057D02*
X115371905Y-83717438D01*
X115371905Y-83717438D02*
X115467143Y-83669819D01*
X115467143Y-83669819D02*
X115705238Y-83669819D01*
X115705238Y-83669819D02*
X115848095Y-83717438D01*
X116181429Y-83669819D02*
X116419524Y-84669819D01*
X116419524Y-84669819D02*
X116610000Y-83955533D01*
X116610000Y-83955533D02*
X116800476Y-84669819D01*
X116800476Y-84669819D02*
X117038572Y-83669819D01*
X117324286Y-83669819D02*
X117990952Y-83669819D01*
X117990952Y-83669819D02*
X117562381Y-84669819D01*
X171800476Y-85497200D02*
X171943333Y-85544819D01*
X171943333Y-85544819D02*
X172181428Y-85544819D01*
X172181428Y-85544819D02*
X172276666Y-85497200D01*
X172276666Y-85497200D02*
X172324285Y-85449580D01*
X172324285Y-85449580D02*
X172371904Y-85354342D01*
X172371904Y-85354342D02*
X172371904Y-85259104D01*
X172371904Y-85259104D02*
X172324285Y-85163866D01*
X172324285Y-85163866D02*
X172276666Y-85116247D01*
X172276666Y-85116247D02*
X172181428Y-85068628D01*
X172181428Y-85068628D02*
X171990952Y-85021009D01*
X171990952Y-85021009D02*
X171895714Y-84973390D01*
X171895714Y-84973390D02*
X171848095Y-84925771D01*
X171848095Y-84925771D02*
X171800476Y-84830533D01*
X171800476Y-84830533D02*
X171800476Y-84735295D01*
X171800476Y-84735295D02*
X171848095Y-84640057D01*
X171848095Y-84640057D02*
X171895714Y-84592438D01*
X171895714Y-84592438D02*
X171990952Y-84544819D01*
X171990952Y-84544819D02*
X172229047Y-84544819D01*
X172229047Y-84544819D02*
X172371904Y-84592438D01*
X172705238Y-84544819D02*
X172943333Y-85544819D01*
X172943333Y-85544819D02*
X173133809Y-84830533D01*
X173133809Y-84830533D02*
X173324285Y-85544819D01*
X173324285Y-85544819D02*
X173562381Y-84544819D01*
X174467142Y-85544819D02*
X173895714Y-85544819D01*
X174181428Y-85544819D02*
X174181428Y-84544819D01*
X174181428Y-84544819D02*
X174086190Y-84687676D01*
X174086190Y-84687676D02*
X173990952Y-84782914D01*
X173990952Y-84782914D02*
X173895714Y-84830533D01*
X175086190Y-84544819D02*
X175181428Y-84544819D01*
X175181428Y-84544819D02*
X175276666Y-84592438D01*
X175276666Y-84592438D02*
X175324285Y-84640057D01*
X175324285Y-84640057D02*
X175371904Y-84735295D01*
X175371904Y-84735295D02*
X175419523Y-84925771D01*
X175419523Y-84925771D02*
X175419523Y-85163866D01*
X175419523Y-85163866D02*
X175371904Y-85354342D01*
X175371904Y-85354342D02*
X175324285Y-85449580D01*
X175324285Y-85449580D02*
X175276666Y-85497200D01*
X175276666Y-85497200D02*
X175181428Y-85544819D01*
X175181428Y-85544819D02*
X175086190Y-85544819D01*
X175086190Y-85544819D02*
X174990952Y-85497200D01*
X174990952Y-85497200D02*
X174943333Y-85449580D01*
X174943333Y-85449580D02*
X174895714Y-85354342D01*
X174895714Y-85354342D02*
X174848095Y-85163866D01*
X174848095Y-85163866D02*
X174848095Y-84925771D01*
X174848095Y-84925771D02*
X174895714Y-84735295D01*
X174895714Y-84735295D02*
X174943333Y-84640057D01*
X174943333Y-84640057D02*
X174990952Y-84592438D01*
X174990952Y-84592438D02*
X175086190Y-84544819D01*
X153276667Y-63997200D02*
X153419524Y-64044819D01*
X153419524Y-64044819D02*
X153657619Y-64044819D01*
X153657619Y-64044819D02*
X153752857Y-63997200D01*
X153752857Y-63997200D02*
X153800476Y-63949580D01*
X153800476Y-63949580D02*
X153848095Y-63854342D01*
X153848095Y-63854342D02*
X153848095Y-63759104D01*
X153848095Y-63759104D02*
X153800476Y-63663866D01*
X153800476Y-63663866D02*
X153752857Y-63616247D01*
X153752857Y-63616247D02*
X153657619Y-63568628D01*
X153657619Y-63568628D02*
X153467143Y-63521009D01*
X153467143Y-63521009D02*
X153371905Y-63473390D01*
X153371905Y-63473390D02*
X153324286Y-63425771D01*
X153324286Y-63425771D02*
X153276667Y-63330533D01*
X153276667Y-63330533D02*
X153276667Y-63235295D01*
X153276667Y-63235295D02*
X153324286Y-63140057D01*
X153324286Y-63140057D02*
X153371905Y-63092438D01*
X153371905Y-63092438D02*
X153467143Y-63044819D01*
X153467143Y-63044819D02*
X153705238Y-63044819D01*
X153705238Y-63044819D02*
X153848095Y-63092438D01*
X154181429Y-63044819D02*
X154419524Y-64044819D01*
X154419524Y-64044819D02*
X154610000Y-63330533D01*
X154610000Y-63330533D02*
X154800476Y-64044819D01*
X154800476Y-64044819D02*
X155038572Y-63044819D01*
X155848095Y-63378152D02*
X155848095Y-64044819D01*
X155610000Y-62997200D02*
X155371905Y-63711485D01*
X155371905Y-63711485D02*
X155990952Y-63711485D01*
X172276667Y-66497200D02*
X172419524Y-66544819D01*
X172419524Y-66544819D02*
X172657619Y-66544819D01*
X172657619Y-66544819D02*
X172752857Y-66497200D01*
X172752857Y-66497200D02*
X172800476Y-66449580D01*
X172800476Y-66449580D02*
X172848095Y-66354342D01*
X172848095Y-66354342D02*
X172848095Y-66259104D01*
X172848095Y-66259104D02*
X172800476Y-66163866D01*
X172800476Y-66163866D02*
X172752857Y-66116247D01*
X172752857Y-66116247D02*
X172657619Y-66068628D01*
X172657619Y-66068628D02*
X172467143Y-66021009D01*
X172467143Y-66021009D02*
X172371905Y-65973390D01*
X172371905Y-65973390D02*
X172324286Y-65925771D01*
X172324286Y-65925771D02*
X172276667Y-65830533D01*
X172276667Y-65830533D02*
X172276667Y-65735295D01*
X172276667Y-65735295D02*
X172324286Y-65640057D01*
X172324286Y-65640057D02*
X172371905Y-65592438D01*
X172371905Y-65592438D02*
X172467143Y-65544819D01*
X172467143Y-65544819D02*
X172705238Y-65544819D01*
X172705238Y-65544819D02*
X172848095Y-65592438D01*
X173181429Y-65544819D02*
X173419524Y-66544819D01*
X173419524Y-66544819D02*
X173610000Y-65830533D01*
X173610000Y-65830533D02*
X173800476Y-66544819D01*
X173800476Y-66544819D02*
X174038572Y-65544819D01*
X174895714Y-65544819D02*
X174419524Y-65544819D01*
X174419524Y-65544819D02*
X174371905Y-66021009D01*
X174371905Y-66021009D02*
X174419524Y-65973390D01*
X174419524Y-65973390D02*
X174514762Y-65925771D01*
X174514762Y-65925771D02*
X174752857Y-65925771D01*
X174752857Y-65925771D02*
X174848095Y-65973390D01*
X174848095Y-65973390D02*
X174895714Y-66021009D01*
X174895714Y-66021009D02*
X174943333Y-66116247D01*
X174943333Y-66116247D02*
X174943333Y-66354342D01*
X174943333Y-66354342D02*
X174895714Y-66449580D01*
X174895714Y-66449580D02*
X174848095Y-66497200D01*
X174848095Y-66497200D02*
X174752857Y-66544819D01*
X174752857Y-66544819D02*
X174514762Y-66544819D01*
X174514762Y-66544819D02*
X174419524Y-66497200D01*
X174419524Y-66497200D02*
X174371905Y-66449580D01*
X164165294Y-124584267D02*
X164290958Y-124667238D01*
X164290958Y-124667238D02*
X164520941Y-124728861D01*
X164520941Y-124728861D02*
X164625258Y-124707514D01*
X164625258Y-124707514D02*
X164683579Y-124673843D01*
X164683579Y-124673843D02*
X164754225Y-124594174D01*
X164754225Y-124594174D02*
X164778875Y-124502182D01*
X164778875Y-124502182D02*
X164757528Y-124397864D01*
X164757528Y-124397864D02*
X164723856Y-124339543D01*
X164723856Y-124339543D02*
X164644188Y-124268897D01*
X164644188Y-124268897D02*
X164472527Y-124173601D01*
X164472527Y-124173601D02*
X164392858Y-124102956D01*
X164392858Y-124102956D02*
X164359187Y-124044634D01*
X164359187Y-124044634D02*
X164337840Y-123940317D01*
X164337840Y-123940317D02*
X164362489Y-123848324D01*
X164362489Y-123848324D02*
X164433135Y-123768656D01*
X164433135Y-123768656D02*
X164491456Y-123734984D01*
X164491456Y-123734984D02*
X164595774Y-123713637D01*
X164595774Y-123713637D02*
X164825756Y-123775260D01*
X164825756Y-123775260D02*
X164951421Y-123858231D01*
X165285721Y-123898508D02*
X165256884Y-124926057D01*
X165256884Y-124926057D02*
X165625741Y-124285409D01*
X165625741Y-124285409D02*
X165624856Y-125024655D01*
X165624856Y-125024655D02*
X166113657Y-124120352D01*
X166728771Y-125320448D02*
X166176813Y-125172551D01*
X166452792Y-125246500D02*
X166711611Y-124280574D01*
X166711611Y-124280574D02*
X166582644Y-124393914D01*
X166582644Y-124393914D02*
X166466002Y-124461257D01*
X166466002Y-124461257D02*
X166361684Y-124482604D01*
X167815527Y-124576367D02*
X167631541Y-124527068D01*
X167631541Y-124527068D02*
X167527223Y-124548415D01*
X167527223Y-124548415D02*
X167468902Y-124582087D01*
X167468902Y-124582087D02*
X167339935Y-124695427D01*
X167339935Y-124695427D02*
X167244639Y-124867088D01*
X167244639Y-124867088D02*
X167146042Y-125235060D01*
X167146042Y-125235060D02*
X167167389Y-125339377D01*
X167167389Y-125339377D02*
X167201060Y-125397699D01*
X167201060Y-125397699D02*
X167280729Y-125468344D01*
X167280729Y-125468344D02*
X167464715Y-125517643D01*
X167464715Y-125517643D02*
X167569032Y-125496296D01*
X167569032Y-125496296D02*
X167627353Y-125462625D01*
X167627353Y-125462625D02*
X167697999Y-125382956D01*
X167697999Y-125382956D02*
X167759623Y-125152974D01*
X167759623Y-125152974D02*
X167738276Y-125048656D01*
X167738276Y-125048656D02*
X167704604Y-124990335D01*
X167704604Y-124990335D02*
X167624936Y-124919689D01*
X167624936Y-124919689D02*
X167440950Y-124870390D01*
X167440950Y-124870390D02*
X167336632Y-124891737D01*
X167336632Y-124891737D02*
X167278311Y-124925409D01*
X167278311Y-124925409D02*
X167207665Y-125005077D01*
X134276667Y-59397200D02*
X134419524Y-59444819D01*
X134419524Y-59444819D02*
X134657619Y-59444819D01*
X134657619Y-59444819D02*
X134752857Y-59397200D01*
X134752857Y-59397200D02*
X134800476Y-59349580D01*
X134800476Y-59349580D02*
X134848095Y-59254342D01*
X134848095Y-59254342D02*
X134848095Y-59159104D01*
X134848095Y-59159104D02*
X134800476Y-59063866D01*
X134800476Y-59063866D02*
X134752857Y-59016247D01*
X134752857Y-59016247D02*
X134657619Y-58968628D01*
X134657619Y-58968628D02*
X134467143Y-58921009D01*
X134467143Y-58921009D02*
X134371905Y-58873390D01*
X134371905Y-58873390D02*
X134324286Y-58825771D01*
X134324286Y-58825771D02*
X134276667Y-58730533D01*
X134276667Y-58730533D02*
X134276667Y-58635295D01*
X134276667Y-58635295D02*
X134324286Y-58540057D01*
X134324286Y-58540057D02*
X134371905Y-58492438D01*
X134371905Y-58492438D02*
X134467143Y-58444819D01*
X134467143Y-58444819D02*
X134705238Y-58444819D01*
X134705238Y-58444819D02*
X134848095Y-58492438D01*
X135181429Y-58444819D02*
X135419524Y-59444819D01*
X135419524Y-59444819D02*
X135610000Y-58730533D01*
X135610000Y-58730533D02*
X135800476Y-59444819D01*
X135800476Y-59444819D02*
X136038572Y-58444819D01*
X136324286Y-58444819D02*
X136943333Y-58444819D01*
X136943333Y-58444819D02*
X136610000Y-58825771D01*
X136610000Y-58825771D02*
X136752857Y-58825771D01*
X136752857Y-58825771D02*
X136848095Y-58873390D01*
X136848095Y-58873390D02*
X136895714Y-58921009D01*
X136895714Y-58921009D02*
X136943333Y-59016247D01*
X136943333Y-59016247D02*
X136943333Y-59254342D01*
X136943333Y-59254342D02*
X136895714Y-59349580D01*
X136895714Y-59349580D02*
X136848095Y-59397200D01*
X136848095Y-59397200D02*
X136752857Y-59444819D01*
X136752857Y-59444819D02*
X136467143Y-59444819D01*
X136467143Y-59444819D02*
X136371905Y-59397200D01*
X136371905Y-59397200D02*
X136324286Y-59349580D01*
X171800476Y-104497200D02*
X171943333Y-104544819D01*
X171943333Y-104544819D02*
X172181428Y-104544819D01*
X172181428Y-104544819D02*
X172276666Y-104497200D01*
X172276666Y-104497200D02*
X172324285Y-104449580D01*
X172324285Y-104449580D02*
X172371904Y-104354342D01*
X172371904Y-104354342D02*
X172371904Y-104259104D01*
X172371904Y-104259104D02*
X172324285Y-104163866D01*
X172324285Y-104163866D02*
X172276666Y-104116247D01*
X172276666Y-104116247D02*
X172181428Y-104068628D01*
X172181428Y-104068628D02*
X171990952Y-104021009D01*
X171990952Y-104021009D02*
X171895714Y-103973390D01*
X171895714Y-103973390D02*
X171848095Y-103925771D01*
X171848095Y-103925771D02*
X171800476Y-103830533D01*
X171800476Y-103830533D02*
X171800476Y-103735295D01*
X171800476Y-103735295D02*
X171848095Y-103640057D01*
X171848095Y-103640057D02*
X171895714Y-103592438D01*
X171895714Y-103592438D02*
X171990952Y-103544819D01*
X171990952Y-103544819D02*
X172229047Y-103544819D01*
X172229047Y-103544819D02*
X172371904Y-103592438D01*
X172705238Y-103544819D02*
X172943333Y-104544819D01*
X172943333Y-104544819D02*
X173133809Y-103830533D01*
X173133809Y-103830533D02*
X173324285Y-104544819D01*
X173324285Y-104544819D02*
X173562381Y-103544819D01*
X174467142Y-104544819D02*
X173895714Y-104544819D01*
X174181428Y-104544819D02*
X174181428Y-103544819D01*
X174181428Y-103544819D02*
X174086190Y-103687676D01*
X174086190Y-103687676D02*
X173990952Y-103782914D01*
X173990952Y-103782914D02*
X173895714Y-103830533D01*
X175371904Y-103544819D02*
X174895714Y-103544819D01*
X174895714Y-103544819D02*
X174848095Y-104021009D01*
X174848095Y-104021009D02*
X174895714Y-103973390D01*
X174895714Y-103973390D02*
X174990952Y-103925771D01*
X174990952Y-103925771D02*
X175229047Y-103925771D01*
X175229047Y-103925771D02*
X175324285Y-103973390D01*
X175324285Y-103973390D02*
X175371904Y-104021009D01*
X175371904Y-104021009D02*
X175419523Y-104116247D01*
X175419523Y-104116247D02*
X175419523Y-104354342D01*
X175419523Y-104354342D02*
X175371904Y-104449580D01*
X175371904Y-104449580D02*
X175324285Y-104497200D01*
X175324285Y-104497200D02*
X175229047Y-104544819D01*
X175229047Y-104544819D02*
X174990952Y-104544819D01*
X174990952Y-104544819D02*
X174895714Y-104497200D01*
X174895714Y-104497200D02*
X174848095Y-104449580D01*
X187460000Y-130545000D02*
X187460000Y-124445000D01*
X199560000Y-130545000D02*
X187460000Y-130545000D01*
X199560000Y-130545000D02*
X199560000Y-124445000D01*
X199560000Y-130295000D02*
X201560000Y-130295000D01*
X201560000Y-130295000D02*
X201560000Y-124695000D01*
X199560000Y-124695000D02*
X201560000Y-124695000D01*
X199560000Y-124445000D02*
X187460000Y-124445000D01*
X184804000Y-90291000D02*
X184804000Y-91291000D01*
X184804000Y-90291000D02*
X185804000Y-90291000D01*
X184804000Y-122291000D02*
X184804000Y-123341000D01*
X184804000Y-123341000D02*
X185804000Y-123341000D01*
X202604000Y-90291000D02*
X201654000Y-90291000D01*
X202604000Y-90291000D02*
X202604000Y-91291000D01*
X202604000Y-122341000D02*
X202604000Y-123341000D01*
X202604000Y-123341000D02*
X201594000Y-123341000D01*
X109610000Y-66470000D02*
X110610000Y-66470000D01*
X109610000Y-67470000D02*
X109610000Y-66470000D01*
X109610000Y-80470000D02*
X109610000Y-79470000D01*
X110610000Y-80470000D02*
X109610000Y-80470000D01*
X122610000Y-66470000D02*
X123610000Y-66470000D01*
X123610000Y-66470000D02*
X123610000Y-67470000D01*
X123610000Y-79470000D02*
X123610000Y-80470000D01*
X123610000Y-80470000D02*
X122610000Y-80470000D01*
X128610000Y-98245000D02*
X129610000Y-98245000D01*
X128610000Y-99245000D02*
X128610000Y-98245000D01*
X128610000Y-112245000D02*
X128610000Y-111245000D01*
X129610000Y-112245000D02*
X128610000Y-112245000D01*
X141610000Y-98245000D02*
X142610000Y-98245000D01*
X142610000Y-98245000D02*
X142610000Y-99245000D01*
X142610000Y-111245000D02*
X142610000Y-112245000D01*
X142610000Y-112245000D02*
X141610000Y-112245000D01*
X109610000Y-104470000D02*
X110610000Y-104470000D01*
X109610000Y-105470000D02*
X109610000Y-104470000D01*
X109610000Y-118470000D02*
X109610000Y-117470000D01*
X110610000Y-118470000D02*
X109610000Y-118470000D01*
X122610000Y-104470000D02*
X123610000Y-104470000D01*
X123610000Y-104470000D02*
X123610000Y-105470000D01*
X123610000Y-117470000D02*
X123610000Y-118470000D01*
X123610000Y-118470000D02*
X122610000Y-118470000D01*
X147610000Y-102845000D02*
X148610000Y-102845000D01*
X147610000Y-103845000D02*
X147610000Y-102845000D01*
X147610000Y-116845000D02*
X147610000Y-115845000D01*
X148610000Y-116845000D02*
X147610000Y-116845000D01*
X160610000Y-102845000D02*
X161610000Y-102845000D01*
X161610000Y-102845000D02*
X161610000Y-103845000D01*
X161610000Y-115845000D02*
X161610000Y-116845000D01*
X161610000Y-116845000D02*
X160610000Y-116845000D01*
X90610000Y-78345000D02*
X91610000Y-78345000D01*
X90610000Y-79345000D02*
X90610000Y-78345000D01*
X90610000Y-92345000D02*
X90610000Y-91345000D01*
X91610000Y-92345000D02*
X90610000Y-92345000D01*
X103610000Y-78345000D02*
X104610000Y-78345000D01*
X104610000Y-78345000D02*
X104610000Y-79345000D01*
X104610000Y-91345000D02*
X104610000Y-92345000D01*
X104610000Y-92345000D02*
X103610000Y-92345000D01*
X90610000Y-97345000D02*
X91610000Y-97345000D01*
X90610000Y-98345000D02*
X90610000Y-97345000D01*
X90610000Y-111345000D02*
X90610000Y-110345000D01*
X91610000Y-111345000D02*
X90610000Y-111345000D01*
X103610000Y-97345000D02*
X104610000Y-97345000D01*
X104610000Y-97345000D02*
X104610000Y-98345000D01*
X104610000Y-110345000D02*
X104610000Y-111345000D01*
X104610000Y-111345000D02*
X103610000Y-111345000D01*
X190725000Y-93950000D02*
X190725000Y-94200000D01*
X190725000Y-93950000D02*
X196725000Y-93950000D01*
X190725000Y-97450000D02*
X190725000Y-97200000D01*
X190725000Y-97450000D02*
X196725000Y-97450000D01*
X196725000Y-93950000D02*
X196725000Y-94200000D01*
X196725000Y-97450000D02*
X196725000Y-97200000D01*
D11*
X125525867Y-76520952D02*
G75*
G03*
X124492001Y-80671500I19286116J-7008044D01*
G01*
X124492000Y-86386500D02*
G75*
G03*
X125525866Y-90537047I20319953J2857490D01*
G01*
X141954500Y-63209001D02*
G75*
G03*
X137803952Y-64242867I2857496J-20319982D01*
G01*
X137803954Y-102815135D02*
G75*
G03*
X141954500Y-103849000I7008046J19286135D01*
G01*
X144812000Y-72734001D02*
G75*
G03*
X143683615Y-72793137I-6J-10794920D01*
G01*
X145940385Y-72793137D02*
G75*
G03*
X144812000Y-72734000I-1128385J-10735763D01*
G01*
X143683615Y-94264864D02*
G75*
G03*
X144812000Y-94324000I1128379J10735785D01*
G01*
X144812000Y-94324000D02*
G75*
G03*
X145940385Y-94264863I0J10794900D01*
G01*
X151820047Y-64242866D02*
G75*
G03*
X147669500Y-63209000I-7008047J-19286134D01*
G01*
X147669500Y-103848999D02*
G75*
G03*
X151820047Y-102815133I-2857500J20319999D01*
G01*
X165132000Y-80671500D02*
G75*
G03*
X164098135Y-76520955I-20320019J-2857506D01*
G01*
X164098134Y-90537046D02*
G75*
G03*
X165131999Y-86386500I-19286184J7008058D01*
G01*
D15*
X143185245Y-97610867D02*
X143988191Y-96808167D01*
X144276559Y-96811261D01*
X144564927Y-96814354D01*
X143717703Y-97674491D01*
X143599778Y-97794214D01*
X143484979Y-97910763D01*
X143374525Y-98022903D01*
X143269633Y-98129396D01*
X143171521Y-98229007D01*
X143081406Y-98320500D01*
X143000507Y-98402637D01*
X142930040Y-98474182D01*
X142871224Y-98533900D01*
X142825277Y-98580554D01*
X142793416Y-98612907D01*
X142779635Y-98626903D01*
X142688791Y-98719179D01*
X142688791Y-95977309D01*
X143185245Y-95977309D01*
X143185245Y-97610867D01*
G36*
X143185245Y-97610867D02*
G01*
X143988191Y-96808167D01*
X144276559Y-96811261D01*
X144564927Y-96814354D01*
X143717703Y-97674491D01*
X143599778Y-97794214D01*
X143484979Y-97910763D01*
X143374525Y-98022903D01*
X143269633Y-98129396D01*
X143171521Y-98229007D01*
X143081406Y-98320500D01*
X143000507Y-98402637D01*
X142930040Y-98474182D01*
X142871224Y-98533900D01*
X142825277Y-98580554D01*
X142793416Y-98612907D01*
X142779635Y-98626903D01*
X142688791Y-98719179D01*
X142688791Y-95977309D01*
X143185245Y-95977309D01*
X143185245Y-97610867D01*
G37*
X143992025Y-98017398D02*
X144014728Y-98040261D01*
X144049207Y-98075792D01*
X144093476Y-98121884D01*
X144145543Y-98176430D01*
X144203422Y-98237324D01*
X144265121Y-98302459D01*
X144328654Y-98369729D01*
X144392029Y-98437027D01*
X144453259Y-98502246D01*
X144510355Y-98563281D01*
X144561327Y-98618024D01*
X144604187Y-98664369D01*
X144636945Y-98700209D01*
X144657613Y-98723438D01*
X144659906Y-98726129D01*
X144688207Y-98759764D01*
X144068193Y-98759764D01*
X143894843Y-98583695D01*
X143841101Y-98528952D01*
X143790818Y-98477439D01*
X143747002Y-98432259D01*
X143712656Y-98396513D01*
X143690788Y-98373304D01*
X143687611Y-98369812D01*
X143653729Y-98331997D01*
X143814764Y-98170653D01*
X143864477Y-98121198D01*
X143908701Y-98077873D01*
X143944848Y-98043160D01*
X143970330Y-98019540D01*
X143982559Y-98009492D01*
X143983090Y-98009309D01*
X143992025Y-98017398D01*
G36*
X143992025Y-98017398D02*
G01*
X144014728Y-98040261D01*
X144049207Y-98075792D01*
X144093476Y-98121884D01*
X144145543Y-98176430D01*
X144203422Y-98237324D01*
X144265121Y-98302459D01*
X144328654Y-98369729D01*
X144392029Y-98437027D01*
X144453259Y-98502246D01*
X144510355Y-98563281D01*
X144561327Y-98618024D01*
X144604187Y-98664369D01*
X144636945Y-98700209D01*
X144657613Y-98723438D01*
X144659906Y-98726129D01*
X144688207Y-98759764D01*
X144068193Y-98759764D01*
X143894843Y-98583695D01*
X143841101Y-98528952D01*
X143790818Y-98477439D01*
X143747002Y-98432259D01*
X143712656Y-98396513D01*
X143690788Y-98373304D01*
X143687611Y-98369812D01*
X143653729Y-98331997D01*
X143814764Y-98170653D01*
X143864477Y-98121198D01*
X143908701Y-98077873D01*
X143944848Y-98043160D01*
X143970330Y-98019540D01*
X143982559Y-98009492D01*
X143983090Y-98009309D01*
X143992025Y-98017398D01*
G37*
X145390279Y-96476650D02*
X145390471Y-96580890D01*
X145390960Y-96677635D01*
X145391710Y-96764521D01*
X145392686Y-96839183D01*
X145393855Y-96899258D01*
X145395182Y-96942381D01*
X145396631Y-96966188D01*
X145397539Y-96970218D01*
X145409970Y-96963904D01*
X145434816Y-96947561D01*
X145458950Y-96930359D01*
X145573647Y-96859637D01*
X145695863Y-96810533D01*
X145826246Y-96782857D01*
X145965447Y-96776419D01*
X145983259Y-96777087D01*
X146072894Y-96783639D01*
X146149377Y-96795576D01*
X146221029Y-96815068D01*
X146296167Y-96844285D01*
X146366018Y-96876924D01*
X146493951Y-96952217D01*
X146606871Y-97044197D01*
X146703765Y-97151186D01*
X146783623Y-97271511D01*
X146845433Y-97403496D01*
X146888185Y-97545465D01*
X146910866Y-97695744D01*
X146914427Y-97785414D01*
X146904136Y-97937892D01*
X146872780Y-98082456D01*
X146819635Y-98221692D01*
X146762380Y-98328611D01*
X146676668Y-98448904D01*
X146575055Y-98553753D01*
X146459722Y-98642075D01*
X146332847Y-98712789D01*
X146196611Y-98764812D01*
X146053192Y-98797065D01*
X145904771Y-98808464D01*
X145804525Y-98803981D01*
X145659917Y-98779100D01*
X145519349Y-98732825D01*
X145386176Y-98666846D01*
X145263756Y-98582849D01*
X145155444Y-98482523D01*
X145147050Y-98473357D01*
X145065919Y-98369237D01*
X144996227Y-98251055D01*
X144941061Y-98125192D01*
X144903508Y-97998032D01*
X144894639Y-97951582D01*
X144892026Y-97923187D01*
X144889681Y-97873115D01*
X144888212Y-97822781D01*
X145384550Y-97822781D01*
X145395122Y-97920330D01*
X145425554Y-98014349D01*
X145454208Y-98068494D01*
X145521142Y-98156777D01*
X145600623Y-98227654D01*
X145690055Y-98280147D01*
X145786841Y-98313279D01*
X145888382Y-98326073D01*
X145992083Y-98317552D01*
X146064910Y-98298264D01*
X146107907Y-98282178D01*
X146148812Y-98264818D01*
X146164979Y-98257042D01*
X146210265Y-98226038D01*
X146259588Y-98179844D01*
X146307645Y-98124388D01*
X146349130Y-98065594D01*
X146370618Y-98027267D01*
X146390799Y-97983021D01*
X146403444Y-97944413D01*
X146410801Y-97902121D01*
X146415119Y-97846818D01*
X146415401Y-97841528D01*
X146412033Y-97734283D01*
X146389177Y-97636391D01*
X146345525Y-97542968D01*
X146327755Y-97514439D01*
X146263213Y-97436535D01*
X146184396Y-97374365D01*
X146094760Y-97328869D01*
X145997761Y-97300991D01*
X145896857Y-97291671D01*
X145795505Y-97301853D01*
X145697159Y-97332478D01*
X145683156Y-97338764D01*
X145595204Y-97391713D01*
X145521214Y-97459927D01*
X145462171Y-97540273D01*
X145419058Y-97629620D01*
X145392856Y-97724833D01*
X145384550Y-97822781D01*
X144888212Y-97822781D01*
X144887628Y-97802778D01*
X144885889Y-97713589D01*
X144884486Y-97606960D01*
X144883442Y-97484304D01*
X144882778Y-97347032D01*
X144882517Y-97196558D01*
X144882514Y-97184822D01*
X144882427Y-96493108D01*
X145390131Y-95983082D01*
X145390279Y-96476650D01*
G36*
X145390279Y-96476650D02*
G01*
X145390471Y-96580890D01*
X145390960Y-96677635D01*
X145391710Y-96764521D01*
X145392686Y-96839183D01*
X145393855Y-96899258D01*
X145395182Y-96942381D01*
X145396631Y-96966188D01*
X145397539Y-96970218D01*
X145409970Y-96963904D01*
X145434816Y-96947561D01*
X145458950Y-96930359D01*
X145573647Y-96859637D01*
X145695863Y-96810533D01*
X145826246Y-96782857D01*
X145965447Y-96776419D01*
X145983259Y-96777087D01*
X146072894Y-96783639D01*
X146149377Y-96795576D01*
X146221029Y-96815068D01*
X146296167Y-96844285D01*
X146366018Y-96876924D01*
X146493951Y-96952217D01*
X146606871Y-97044197D01*
X146703765Y-97151186D01*
X146783623Y-97271511D01*
X146845433Y-97403496D01*
X146888185Y-97545465D01*
X146910866Y-97695744D01*
X146914427Y-97785414D01*
X146904136Y-97937892D01*
X146872780Y-98082456D01*
X146819635Y-98221692D01*
X146762380Y-98328611D01*
X146676668Y-98448904D01*
X146575055Y-98553753D01*
X146459722Y-98642075D01*
X146332847Y-98712789D01*
X146196611Y-98764812D01*
X146053192Y-98797065D01*
X145904771Y-98808464D01*
X145804525Y-98803981D01*
X145659917Y-98779100D01*
X145519349Y-98732825D01*
X145386176Y-98666846D01*
X145263756Y-98582849D01*
X145155444Y-98482523D01*
X145147050Y-98473357D01*
X145065919Y-98369237D01*
X144996227Y-98251055D01*
X144941061Y-98125192D01*
X144903508Y-97998032D01*
X144894639Y-97951582D01*
X144892026Y-97923187D01*
X144889681Y-97873115D01*
X144888212Y-97822781D01*
X145384550Y-97822781D01*
X145395122Y-97920330D01*
X145425554Y-98014349D01*
X145454208Y-98068494D01*
X145521142Y-98156777D01*
X145600623Y-98227654D01*
X145690055Y-98280147D01*
X145786841Y-98313279D01*
X145888382Y-98326073D01*
X145992083Y-98317552D01*
X146064910Y-98298264D01*
X146107907Y-98282178D01*
X146148812Y-98264818D01*
X146164979Y-98257042D01*
X146210265Y-98226038D01*
X146259588Y-98179844D01*
X146307645Y-98124388D01*
X146349130Y-98065594D01*
X146370618Y-98027267D01*
X146390799Y-97983021D01*
X146403444Y-97944413D01*
X146410801Y-97902121D01*
X146415119Y-97846818D01*
X146415401Y-97841528D01*
X146412033Y-97734283D01*
X146389177Y-97636391D01*
X146345525Y-97542968D01*
X146327755Y-97514439D01*
X146263213Y-97436535D01*
X146184396Y-97374365D01*
X146094760Y-97328869D01*
X145997761Y-97300991D01*
X145896857Y-97291671D01*
X145795505Y-97301853D01*
X145697159Y-97332478D01*
X145683156Y-97338764D01*
X145595204Y-97391713D01*
X145521214Y-97459927D01*
X145462171Y-97540273D01*
X145419058Y-97629620D01*
X145392856Y-97724833D01*
X145384550Y-97822781D01*
X144888212Y-97822781D01*
X144887628Y-97802778D01*
X144885889Y-97713589D01*
X144884486Y-97606960D01*
X144883442Y-97484304D01*
X144882778Y-97347032D01*
X144882517Y-97196558D01*
X144882514Y-97184822D01*
X144882427Y-96493108D01*
X145390131Y-95983082D01*
X145390279Y-96476650D01*
G37*
D12*
X147610000Y-83845000D02*
X148610000Y-83845000D01*
X147610000Y-84845000D02*
X147610000Y-83845000D01*
X147610000Y-97845000D02*
X147610000Y-96845000D01*
X148610000Y-97845000D02*
X147610000Y-97845000D01*
X160610000Y-83845000D02*
X161610000Y-83845000D01*
X161610000Y-83845000D02*
X161610000Y-84845000D01*
X161610000Y-96845000D02*
X161610000Y-97845000D01*
X161610000Y-97845000D02*
X160610000Y-97845000D01*
X90610000Y-116345000D02*
X91610000Y-116345000D01*
X90610000Y-117345000D02*
X90610000Y-116345000D01*
X90610000Y-130345000D02*
X90610000Y-129345000D01*
X91610000Y-130345000D02*
X90610000Y-130345000D01*
X103610000Y-116345000D02*
X104610000Y-116345000D01*
X104610000Y-116345000D02*
X104610000Y-117345000D01*
X104610000Y-129345000D02*
X104610000Y-130345000D01*
X104610000Y-130345000D02*
X103610000Y-130345000D01*
X128610000Y-79245000D02*
X129610000Y-79245000D01*
X128610000Y-80245000D02*
X128610000Y-79245000D01*
X128610000Y-93245000D02*
X128610000Y-92245000D01*
X129610000Y-93245000D02*
X128610000Y-93245000D01*
X141610000Y-79245000D02*
X142610000Y-79245000D01*
X142610000Y-79245000D02*
X142610000Y-80245000D01*
X142610000Y-92245000D02*
X142610000Y-93245000D01*
X142610000Y-93245000D02*
X141610000Y-93245000D01*
X180997822Y-131286822D02*
X181863848Y-131786822D01*
X180497822Y-132152848D02*
X180997822Y-131286822D01*
X173997822Y-143411178D02*
X174497822Y-142545152D01*
X174863848Y-143911178D02*
X173997822Y-143411178D01*
X192256152Y-137786822D02*
X193122178Y-138286822D01*
X193122178Y-138286822D02*
X192622178Y-139152848D01*
X186622178Y-149545152D02*
X186122178Y-150411178D01*
X186122178Y-150411178D02*
X185256152Y-149911178D01*
X109610000Y-85470000D02*
X110610000Y-85470000D01*
X109610000Y-86470000D02*
X109610000Y-85470000D01*
X109610000Y-99470000D02*
X109610000Y-98470000D01*
X110610000Y-99470000D02*
X109610000Y-99470000D01*
X122610000Y-85470000D02*
X123610000Y-85470000D01*
X123610000Y-85470000D02*
X123610000Y-86470000D01*
X123610000Y-98470000D02*
X123610000Y-99470000D01*
X123610000Y-99470000D02*
X122610000Y-99470000D01*
X166610000Y-86345000D02*
X167610000Y-86345000D01*
X166610000Y-87345000D02*
X166610000Y-86345000D01*
X166610000Y-100345000D02*
X166610000Y-99345000D01*
X167610000Y-100345000D02*
X166610000Y-100345000D01*
X179610000Y-86345000D02*
X180610000Y-86345000D01*
X180610000Y-86345000D02*
X180610000Y-87345000D01*
X180610000Y-99345000D02*
X180610000Y-100345000D01*
X180610000Y-100345000D02*
X179610000Y-100345000D01*
X147610000Y-64845000D02*
X148610000Y-64845000D01*
X147610000Y-65845000D02*
X147610000Y-64845000D01*
X147610000Y-78845000D02*
X147610000Y-77845000D01*
X148610000Y-78845000D02*
X147610000Y-78845000D01*
X160610000Y-64845000D02*
X161610000Y-64845000D01*
X161610000Y-64845000D02*
X161610000Y-65845000D01*
X161610000Y-77845000D02*
X161610000Y-78845000D01*
X161610000Y-78845000D02*
X160610000Y-78845000D01*
X166610000Y-67345000D02*
X167610000Y-67345000D01*
X166610000Y-68345000D02*
X166610000Y-67345000D01*
X166610000Y-81345000D02*
X166610000Y-80345000D01*
X167610000Y-81345000D02*
X166610000Y-81345000D01*
X179610000Y-67345000D02*
X180610000Y-67345000D01*
X180610000Y-67345000D02*
X180610000Y-68345000D01*
X180610000Y-80345000D02*
X180610000Y-81345000D01*
X180610000Y-81345000D02*
X179610000Y-81345000D01*
X158932253Y-124059786D02*
X159898178Y-124318605D01*
X158673433Y-125025712D02*
X158932253Y-124059786D01*
X155308786Y-137582747D02*
X155567605Y-136616822D01*
X156274712Y-137841567D02*
X155308786Y-137582747D01*
X171489288Y-127424433D02*
X172455214Y-127683253D01*
X172455214Y-127683253D02*
X172196395Y-128649178D01*
X169090567Y-140240288D02*
X168831747Y-141206214D01*
X168831747Y-141206214D02*
X167865822Y-140947395D01*
X128610000Y-60245000D02*
X129610000Y-60245000D01*
X128610000Y-61245000D02*
X128610000Y-60245000D01*
X128610000Y-74245000D02*
X128610000Y-73245000D01*
X129610000Y-74245000D02*
X128610000Y-74245000D01*
X141610000Y-60245000D02*
X142610000Y-60245000D01*
X142610000Y-60245000D02*
X142610000Y-61245000D01*
X142610000Y-73245000D02*
X142610000Y-74245000D01*
X142610000Y-74245000D02*
X141610000Y-74245000D01*
X166610000Y-105345000D02*
X167610000Y-105345000D01*
X166610000Y-106345000D02*
X166610000Y-105345000D01*
X166610000Y-119345000D02*
X166610000Y-118345000D01*
X167610000Y-119345000D02*
X166610000Y-119345000D01*
X179610000Y-105345000D02*
X180610000Y-105345000D01*
X180610000Y-105345000D02*
X180610000Y-106345000D01*
X180610000Y-118345000D02*
X180610000Y-119345000D01*
X180610000Y-119345000D02*
X179610000Y-119345000D01*
%LPC*%
D10*
X107869510Y-130610828D02*
X107869510Y-129610828D01*
X107869510Y-129896542D02*
X107940939Y-129753685D01*
X107940939Y-129753685D02*
X108012368Y-129682257D01*
X108012368Y-129682257D02*
X108155225Y-129610828D01*
X108155225Y-129610828D02*
X108298082Y-129610828D01*
X109369510Y-130539400D02*
X109226653Y-130610828D01*
X109226653Y-130610828D02*
X108940939Y-130610828D01*
X108940939Y-130610828D02*
X108798081Y-130539400D01*
X108798081Y-130539400D02*
X108726653Y-130396542D01*
X108726653Y-130396542D02*
X108726653Y-129825114D01*
X108726653Y-129825114D02*
X108798081Y-129682257D01*
X108798081Y-129682257D02*
X108940939Y-129610828D01*
X108940939Y-129610828D02*
X109226653Y-129610828D01*
X109226653Y-129610828D02*
X109369510Y-129682257D01*
X109369510Y-129682257D02*
X109440939Y-129825114D01*
X109440939Y-129825114D02*
X109440939Y-129967971D01*
X109440939Y-129967971D02*
X108726653Y-130110828D01*
X109940938Y-129610828D02*
X110298081Y-130610828D01*
X110298081Y-130610828D02*
X110655224Y-129610828D01*
X112012367Y-130610828D02*
X111155224Y-130610828D01*
X111583795Y-130610828D02*
X111583795Y-129110828D01*
X111583795Y-129110828D02*
X111440938Y-129325114D01*
X111440938Y-129325114D02*
X111298081Y-129467971D01*
X111298081Y-129467971D02*
X111155224Y-129539400D01*
X113726652Y-129253685D02*
X113798080Y-129182257D01*
X113798080Y-129182257D02*
X113940938Y-129110828D01*
X113940938Y-129110828D02*
X114298080Y-129110828D01*
X114298080Y-129110828D02*
X114440938Y-129182257D01*
X114440938Y-129182257D02*
X114512366Y-129253685D01*
X114512366Y-129253685D02*
X114583795Y-129396542D01*
X114583795Y-129396542D02*
X114583795Y-129539400D01*
X114583795Y-129539400D02*
X114512366Y-129753685D01*
X114512366Y-129753685D02*
X113655223Y-130610828D01*
X113655223Y-130610828D02*
X114583795Y-130610828D01*
X115512366Y-129110828D02*
X115655223Y-129110828D01*
X115655223Y-129110828D02*
X115798080Y-129182257D01*
X115798080Y-129182257D02*
X115869509Y-129253685D01*
X115869509Y-129253685D02*
X115940937Y-129396542D01*
X115940937Y-129396542D02*
X116012366Y-129682257D01*
X116012366Y-129682257D02*
X116012366Y-130039400D01*
X116012366Y-130039400D02*
X115940937Y-130325114D01*
X115940937Y-130325114D02*
X115869509Y-130467971D01*
X115869509Y-130467971D02*
X115798080Y-130539400D01*
X115798080Y-130539400D02*
X115655223Y-130610828D01*
X115655223Y-130610828D02*
X115512366Y-130610828D01*
X115512366Y-130610828D02*
X115369509Y-130539400D01*
X115369509Y-130539400D02*
X115298080Y-130467971D01*
X115298080Y-130467971D02*
X115226651Y-130325114D01*
X115226651Y-130325114D02*
X115155223Y-130039400D01*
X115155223Y-130039400D02*
X115155223Y-129682257D01*
X115155223Y-129682257D02*
X115226651Y-129396542D01*
X115226651Y-129396542D02*
X115298080Y-129253685D01*
X115298080Y-129253685D02*
X115369509Y-129182257D01*
X115369509Y-129182257D02*
X115512366Y-129110828D01*
X116583794Y-129253685D02*
X116655222Y-129182257D01*
X116655222Y-129182257D02*
X116798080Y-129110828D01*
X116798080Y-129110828D02*
X117155222Y-129110828D01*
X117155222Y-129110828D02*
X117298080Y-129182257D01*
X117298080Y-129182257D02*
X117369508Y-129253685D01*
X117369508Y-129253685D02*
X117440937Y-129396542D01*
X117440937Y-129396542D02*
X117440937Y-129539400D01*
X117440937Y-129539400D02*
X117369508Y-129753685D01*
X117369508Y-129753685D02*
X116512365Y-130610828D01*
X116512365Y-130610828D02*
X117440937Y-130610828D01*
X117940936Y-129110828D02*
X118869508Y-129110828D01*
X118869508Y-129110828D02*
X118369508Y-129682257D01*
X118369508Y-129682257D02*
X118583793Y-129682257D01*
X118583793Y-129682257D02*
X118726651Y-129753685D01*
X118726651Y-129753685D02*
X118798079Y-129825114D01*
X118798079Y-129825114D02*
X118869508Y-129967971D01*
X118869508Y-129967971D02*
X118869508Y-130325114D01*
X118869508Y-130325114D02*
X118798079Y-130467971D01*
X118798079Y-130467971D02*
X118726651Y-130539400D01*
X118726651Y-130539400D02*
X118583793Y-130610828D01*
X118583793Y-130610828D02*
X118155222Y-130610828D01*
X118155222Y-130610828D02*
X118012365Y-130539400D01*
X118012365Y-130539400D02*
X117940936Y-130467971D01*
D16*
X196360000Y-129795000D03*
X196340000Y-125165000D03*
X189360000Y-129795000D03*
X188240000Y-129765000D03*
X188260000Y-125195000D03*
X189340000Y-125165000D03*
X193360000Y-129795000D03*
X193340000Y-125165000D03*
D17*
X190960000Y-127495000D03*
X197960000Y-127495000D03*
D18*
X201315400Y-94113000D03*
X201315400Y-96653000D03*
X201315400Y-99193000D03*
X201315400Y-101733000D03*
X201315400Y-104273000D03*
X201315400Y-106813000D03*
X201315400Y-109353000D03*
X201315400Y-111893000D03*
X201315400Y-114433000D03*
X201315400Y-116973000D03*
X201315400Y-119513000D03*
X201315400Y-122053000D03*
X186095400Y-122053000D03*
X186095400Y-119513000D03*
X186095400Y-116973000D03*
X186095400Y-114433000D03*
X186095400Y-111893000D03*
X186095400Y-109353000D03*
X186095400Y-106813000D03*
X186095400Y-104273000D03*
X186095400Y-101733000D03*
X186095400Y-99193000D03*
X186095400Y-96653000D03*
X186095400Y-94113000D03*
D19*
X111530000Y-73470000D03*
D20*
X116610000Y-73470000D03*
D19*
X121690000Y-73470000D03*
D21*
X112800000Y-70930000D03*
X114070000Y-68390000D03*
X119150000Y-68390000D03*
X120420000Y-70930000D03*
D19*
X130530000Y-105245000D03*
D20*
X135610000Y-105245000D03*
D19*
X140690000Y-105245000D03*
D21*
X131800000Y-102705000D03*
X133070000Y-100165000D03*
X138150000Y-100165000D03*
X139420000Y-102705000D03*
D19*
X111530000Y-111470000D03*
D20*
X116610000Y-111470000D03*
D19*
X121690000Y-111470000D03*
D21*
X112800000Y-108930000D03*
X114070000Y-106390000D03*
X119150000Y-106390000D03*
X120420000Y-108930000D03*
D19*
X149530000Y-109845000D03*
D20*
X154610000Y-109845000D03*
D19*
X159690000Y-109845000D03*
D21*
X150800000Y-107305000D03*
X152070000Y-104765000D03*
X157150000Y-104765000D03*
X158420000Y-107305000D03*
D19*
X92530000Y-85345000D03*
D20*
X97610000Y-85345000D03*
D19*
X102690000Y-85345000D03*
D21*
X93800000Y-82805000D03*
X95070000Y-80265000D03*
X100150000Y-80265000D03*
X101420000Y-82805000D03*
D19*
X92530000Y-104345000D03*
D20*
X97610000Y-104345000D03*
D19*
X102690000Y-104345000D03*
D21*
X93800000Y-101805000D03*
X95070000Y-99265000D03*
X100150000Y-99265000D03*
X101420000Y-101805000D03*
D22*
X196975000Y-95700000D03*
X190475000Y-95700000D03*
D23*
X125762000Y-83529000D03*
X144812000Y-64479000D03*
X144812000Y-102579000D03*
X163862000Y-83529000D03*
D19*
X149530000Y-90845000D03*
D20*
X154610000Y-90845000D03*
D19*
X159690000Y-90845000D03*
D21*
X150800000Y-88305000D03*
X152070000Y-85765000D03*
X157150000Y-85765000D03*
X158420000Y-88305000D03*
D19*
X92530000Y-123345000D03*
D20*
X97610000Y-123345000D03*
D19*
X102690000Y-123345000D03*
D21*
X93800000Y-120805000D03*
X95070000Y-118265000D03*
X100150000Y-118265000D03*
X101420000Y-120805000D03*
D19*
X130530000Y-86245000D03*
D20*
X135610000Y-86245000D03*
D19*
X140690000Y-86245000D03*
D21*
X131800000Y-83705000D03*
X133070000Y-81165000D03*
X138150000Y-81165000D03*
X139420000Y-83705000D03*
D19*
X179160591Y-138309000D03*
D20*
X183560000Y-140849000D03*
D19*
X187959409Y-143389000D03*
D21*
X181530443Y-136744295D03*
X183900295Y-135179591D03*
X188299705Y-137719591D03*
X188129557Y-140554295D03*
D19*
X111530000Y-92470000D03*
D20*
X116610000Y-92470000D03*
D19*
X121690000Y-92470000D03*
D21*
X112800000Y-89930000D03*
X114070000Y-87390000D03*
X119150000Y-87390000D03*
X120420000Y-89930000D03*
D19*
X168530000Y-93345000D03*
D20*
X173610000Y-93345000D03*
D19*
X178690000Y-93345000D03*
D21*
X169800000Y-90805000D03*
X171070000Y-88265000D03*
X176150000Y-88265000D03*
X177420000Y-90805000D03*
D19*
X149530000Y-71845000D03*
D20*
X154610000Y-71845000D03*
D19*
X159690000Y-71845000D03*
D21*
X150800000Y-69305000D03*
X152070000Y-66765000D03*
X157150000Y-66765000D03*
X158420000Y-69305000D03*
D19*
X168530000Y-74345000D03*
D20*
X173610000Y-74345000D03*
D19*
X178690000Y-74345000D03*
D21*
X169800000Y-71805000D03*
X171070000Y-69265000D03*
X176150000Y-69265000D03*
X177420000Y-71805000D03*
D19*
X158975097Y-131318199D03*
D20*
X163882000Y-132633000D03*
D19*
X168788903Y-133947801D03*
D21*
X160859223Y-129193448D03*
X162743349Y-127068696D03*
X167650252Y-128383497D03*
X168219578Y-131165649D03*
D19*
X130530000Y-67245000D03*
D20*
X135610000Y-67245000D03*
D19*
X140690000Y-67245000D03*
D21*
X131800000Y-64705000D03*
X133070000Y-62165000D03*
X138150000Y-62165000D03*
X139420000Y-64705000D03*
D19*
X168530000Y-112345000D03*
D20*
X173610000Y-112345000D03*
D19*
X178690000Y-112345000D03*
D21*
X169800000Y-109805000D03*
X171070000Y-107265000D03*
X176150000Y-107265000D03*
X177420000Y-109805000D03*
%LPD*%
M02*
