G04 #@! TF.GenerationSoftware,KiCad,Pcbnew,7.0.5*
G04 #@! TF.CreationDate,2023-06-20T22:03:51+01:00*
G04 #@! TF.ProjectId,adam-m-rounded,6164616d-2d6d-42d7-926f-756e6465642e,rev?*
G04 #@! TF.SameCoordinates,Original*
G04 #@! TF.FileFunction,Copper,L1,Top*
G04 #@! TF.FilePolarity,Positive*
%FSLAX46Y46*%
G04 Gerber Fmt 4.6, Leading zero omitted, Abs format (unit mm)*
G04 Created by KiCad (PCBNEW 7.0.5) date 2023-06-20 22:03:51*
%MOMM*%
%LPD*%
G01*
G04 APERTURE LIST*
%ADD10C,0.300000*%
G04 #@! TA.AperFunction,NonConductor*
%ADD11C,0.300000*%
G04 #@! TD*
G04 #@! TA.AperFunction,ComponentPad*
%ADD12O,2.000000X1.600000*%
G04 #@! TD*
G04 #@! TA.AperFunction,ComponentPad*
%ADD13C,1.524000*%
G04 #@! TD*
G04 #@! TA.AperFunction,ComponentPad*
%ADD14C,2.286000*%
G04 #@! TD*
G04 #@! TA.AperFunction,ComponentPad*
%ADD15C,2.000000*%
G04 #@! TD*
G04 #@! TA.AperFunction,ComponentPad*
%ADD16C,4.400000*%
G04 #@! TD*
G04 #@! TA.AperFunction,Conductor*
%ADD17C,0.200000*%
G04 #@! TD*
G04 #@! TA.AperFunction,Conductor*
%ADD18C,0.250000*%
G04 #@! TD*
G04 APERTURE END LIST*
D10*
D11*
X107869510Y-130610828D02*
X107869510Y-129610828D01*
X107869510Y-129896542D02*
X107940939Y-129753685D01*
X107940939Y-129753685D02*
X108012368Y-129682257D01*
X108012368Y-129682257D02*
X108155225Y-129610828D01*
X108155225Y-129610828D02*
X108298082Y-129610828D01*
X109369510Y-130539400D02*
X109226653Y-130610828D01*
X109226653Y-130610828D02*
X108940939Y-130610828D01*
X108940939Y-130610828D02*
X108798081Y-130539400D01*
X108798081Y-130539400D02*
X108726653Y-130396542D01*
X108726653Y-130396542D02*
X108726653Y-129825114D01*
X108726653Y-129825114D02*
X108798081Y-129682257D01*
X108798081Y-129682257D02*
X108940939Y-129610828D01*
X108940939Y-129610828D02*
X109226653Y-129610828D01*
X109226653Y-129610828D02*
X109369510Y-129682257D01*
X109369510Y-129682257D02*
X109440939Y-129825114D01*
X109440939Y-129825114D02*
X109440939Y-129967971D01*
X109440939Y-129967971D02*
X108726653Y-130110828D01*
X109940938Y-129610828D02*
X110298081Y-130610828D01*
X110298081Y-130610828D02*
X110655224Y-129610828D01*
X112012367Y-130610828D02*
X111155224Y-130610828D01*
X111583795Y-130610828D02*
X111583795Y-129110828D01*
X111583795Y-129110828D02*
X111440938Y-129325114D01*
X111440938Y-129325114D02*
X111298081Y-129467971D01*
X111298081Y-129467971D02*
X111155224Y-129539400D01*
X113726652Y-129253685D02*
X113798080Y-129182257D01*
X113798080Y-129182257D02*
X113940938Y-129110828D01*
X113940938Y-129110828D02*
X114298080Y-129110828D01*
X114298080Y-129110828D02*
X114440938Y-129182257D01*
X114440938Y-129182257D02*
X114512366Y-129253685D01*
X114512366Y-129253685D02*
X114583795Y-129396542D01*
X114583795Y-129396542D02*
X114583795Y-129539400D01*
X114583795Y-129539400D02*
X114512366Y-129753685D01*
X114512366Y-129753685D02*
X113655223Y-130610828D01*
X113655223Y-130610828D02*
X114583795Y-130610828D01*
X115512366Y-129110828D02*
X115655223Y-129110828D01*
X115655223Y-129110828D02*
X115798080Y-129182257D01*
X115798080Y-129182257D02*
X115869509Y-129253685D01*
X115869509Y-129253685D02*
X115940937Y-129396542D01*
X115940937Y-129396542D02*
X116012366Y-129682257D01*
X116012366Y-129682257D02*
X116012366Y-130039400D01*
X116012366Y-130039400D02*
X115940937Y-130325114D01*
X115940937Y-130325114D02*
X115869509Y-130467971D01*
X115869509Y-130467971D02*
X115798080Y-130539400D01*
X115798080Y-130539400D02*
X115655223Y-130610828D01*
X115655223Y-130610828D02*
X115512366Y-130610828D01*
X115512366Y-130610828D02*
X115369509Y-130539400D01*
X115369509Y-130539400D02*
X115298080Y-130467971D01*
X115298080Y-130467971D02*
X115226651Y-130325114D01*
X115226651Y-130325114D02*
X115155223Y-130039400D01*
X115155223Y-130039400D02*
X115155223Y-129682257D01*
X115155223Y-129682257D02*
X115226651Y-129396542D01*
X115226651Y-129396542D02*
X115298080Y-129253685D01*
X115298080Y-129253685D02*
X115369509Y-129182257D01*
X115369509Y-129182257D02*
X115512366Y-129110828D01*
X116583794Y-129253685D02*
X116655222Y-129182257D01*
X116655222Y-129182257D02*
X116798080Y-129110828D01*
X116798080Y-129110828D02*
X117155222Y-129110828D01*
X117155222Y-129110828D02*
X117298080Y-129182257D01*
X117298080Y-129182257D02*
X117369508Y-129253685D01*
X117369508Y-129253685D02*
X117440937Y-129396542D01*
X117440937Y-129396542D02*
X117440937Y-129539400D01*
X117440937Y-129539400D02*
X117369508Y-129753685D01*
X117369508Y-129753685D02*
X116512365Y-130610828D01*
X116512365Y-130610828D02*
X117440937Y-130610828D01*
X117940936Y-129110828D02*
X118869508Y-129110828D01*
X118869508Y-129110828D02*
X118369508Y-129682257D01*
X118369508Y-129682257D02*
X118583793Y-129682257D01*
X118583793Y-129682257D02*
X118726651Y-129753685D01*
X118726651Y-129753685D02*
X118798079Y-129825114D01*
X118798079Y-129825114D02*
X118869508Y-129967971D01*
X118869508Y-129967971D02*
X118869508Y-130325114D01*
X118869508Y-130325114D02*
X118798079Y-130467971D01*
X118798079Y-130467971D02*
X118726651Y-130539400D01*
X118726651Y-130539400D02*
X118583793Y-130610828D01*
X118583793Y-130610828D02*
X118155222Y-130610828D01*
X118155222Y-130610828D02*
X118012365Y-130539400D01*
X118012365Y-130539400D02*
X117940936Y-130467971D01*
D12*
X196360000Y-129795000D03*
X196340000Y-125165000D03*
X189360000Y-129795000D03*
X188240000Y-129765000D03*
X188260000Y-125195000D03*
X189340000Y-125165000D03*
X193360000Y-129795000D03*
X193340000Y-125165000D03*
D13*
X201315400Y-94113000D03*
X201315400Y-96653000D03*
X201315400Y-99193000D03*
X201315400Y-101733000D03*
X201315400Y-104273000D03*
X201315400Y-106813000D03*
X201315400Y-109353000D03*
X201315400Y-111893000D03*
X201315400Y-114433000D03*
X201315400Y-116973000D03*
X201315400Y-119513000D03*
X201315400Y-122053000D03*
X186095400Y-122053000D03*
X186095400Y-119513000D03*
X186095400Y-116973000D03*
X186095400Y-114433000D03*
X186095400Y-111893000D03*
X186095400Y-109353000D03*
X186095400Y-106813000D03*
X186095400Y-104273000D03*
X186095400Y-101733000D03*
X186095400Y-99193000D03*
X186095400Y-96653000D03*
X186095400Y-94113000D03*
D14*
X112800000Y-70930000D03*
X114070000Y-68390000D03*
X119150000Y-68390000D03*
X120420000Y-70930000D03*
X131800000Y-102705000D03*
X133070000Y-100165000D03*
X138150000Y-100165000D03*
X139420000Y-102705000D03*
X112800000Y-108930000D03*
X114070000Y-106390000D03*
X119150000Y-106390000D03*
X120420000Y-108930000D03*
X150800000Y-107305000D03*
X152070000Y-104765000D03*
X157150000Y-104765000D03*
X158420000Y-107305000D03*
X93800000Y-82805000D03*
X95070000Y-80265000D03*
X100150000Y-80265000D03*
X101420000Y-82805000D03*
X93800000Y-101805000D03*
X95070000Y-99265000D03*
X100150000Y-99265000D03*
X101420000Y-101805000D03*
D15*
X196975000Y-95700000D03*
X190475000Y-95700000D03*
D16*
X125762000Y-83529000D03*
X144812000Y-64479000D03*
X144812000Y-102579000D03*
X163862000Y-83529000D03*
D14*
X150800000Y-88305000D03*
X152070000Y-85765000D03*
X157150000Y-85765000D03*
X158420000Y-88305000D03*
X93800000Y-120805000D03*
X95070000Y-118265000D03*
X100150000Y-118265000D03*
X101420000Y-120805000D03*
X131800000Y-83705000D03*
X133070000Y-81165000D03*
X138150000Y-81165000D03*
X139420000Y-83705000D03*
X181530443Y-136744295D03*
X183900295Y-135179591D03*
X188299705Y-137719591D03*
X188129557Y-140554295D03*
X112800000Y-89930000D03*
X114070000Y-87390000D03*
X119150000Y-87390000D03*
X120420000Y-89930000D03*
X169800000Y-90805000D03*
X171070000Y-88265000D03*
X176150000Y-88265000D03*
X177420000Y-90805000D03*
X150800000Y-69305000D03*
X152070000Y-66765000D03*
X157150000Y-66765000D03*
X158420000Y-69305000D03*
X169800000Y-71805000D03*
X171070000Y-69265000D03*
X176150000Y-69265000D03*
X177420000Y-71805000D03*
X160859223Y-129193448D03*
X162743349Y-127068696D03*
X167650252Y-128383497D03*
X168219578Y-131165649D03*
X131800000Y-64705000D03*
X133070000Y-62165000D03*
X138150000Y-62165000D03*
X139420000Y-64705000D03*
X169800000Y-109805000D03*
X171070000Y-107265000D03*
X176150000Y-107265000D03*
X177420000Y-109805000D03*
D17*
X200518500Y-131381493D02*
G75*
G03*
X201315400Y-129457618I-1923900J1923893D01*
G01*
X186460451Y-132525049D02*
G75*
G03*
X184650147Y-133274852I-51J-2560151D01*
G01*
X184308577Y-133616360D02*
G75*
G03*
X183900295Y-134602148I985823J-985740D01*
G01*
X198248018Y-132525004D02*
G75*
G03*
X200171895Y-131728102I-18J2720804D01*
G01*
X162896689Y-124628340D02*
G75*
G03*
X162743349Y-124998486I370111J-370160D01*
G01*
X181821892Y-125271900D02*
G75*
G03*
X179898018Y-124475000I-1923892J-1923900D01*
G01*
X198332537Y-132075015D02*
G75*
G03*
X199600000Y-131550000I-37J1792515D01*
G01*
X183700005Y-128276981D02*
G75*
G03*
X182903103Y-126353103I-2720805J-19D01*
G01*
X199599989Y-131549989D02*
G75*
G03*
X200125000Y-130282537I-1267489J1267489D01*
G01*
X184137495Y-131637505D02*
G75*
G03*
X185193718Y-132075000I1056205J1056205D01*
G01*
X200468505Y-119856505D02*
G75*
G03*
X200125000Y-120685782I829295J-829295D01*
G01*
X163266835Y-124475029D02*
G75*
G03*
X162896675Y-124628326I-35J-523471D01*
G01*
X183700008Y-130581281D02*
G75*
G03*
X184137500Y-131637500I1493692J-19D01*
G01*
X184950007Y-130824993D02*
G75*
G03*
X185794974Y-131175000I844993J844993D01*
G01*
X198350215Y-131175006D02*
G75*
G03*
X198951104Y-130926104I-15J849806D01*
G01*
X182346892Y-124371900D02*
G75*
G03*
X180423018Y-123575000I-1923892J-1923900D01*
G01*
X199508504Y-114741504D02*
G75*
G03*
X199200000Y-115486284I744796J-744796D01*
G01*
X113174991Y-123200009D02*
G75*
G03*
X114080330Y-123575000I905309J905309D01*
G01*
X184600005Y-127751981D02*
G75*
G03*
X183803103Y-125828103I-2720805J-19D01*
G01*
X184599990Y-129980025D02*
G75*
G03*
X184950000Y-130825000I1195010J25D01*
G01*
X198951099Y-130926099D02*
G75*
G03*
X199200000Y-130325215I-600899J600899D01*
G01*
X112800013Y-122294669D02*
G75*
G03*
X113175000Y-123200000I1280287J-31D01*
G01*
X200253284Y-114432994D02*
G75*
G03*
X199508500Y-114741500I16J-1053306D01*
G01*
X182746892Y-123346900D02*
G75*
G03*
X180823018Y-122550000I-1923892J-1923900D01*
G01*
X150799995Y-119248018D02*
G75*
G03*
X151596896Y-121171896I2720805J18D01*
G01*
X190538352Y-126500021D02*
G75*
G03*
X191582499Y-126067499I-52J1476721D01*
G01*
X184277748Y-124877744D02*
G75*
G03*
X185780000Y-125500000I1502252J1502244D01*
G01*
X191582485Y-126067485D02*
G75*
G03*
X192015000Y-125023352I-1044185J1044185D01*
G01*
X152178107Y-121753099D02*
G75*
G03*
X154101981Y-122550000I1923893J1923899D01*
G01*
X192670993Y-110008993D02*
G75*
G03*
X192015000Y-111592724I1583707J-1583707D01*
G01*
X194254724Y-109353010D02*
G75*
G03*
X192671000Y-110009000I-24J-2239690D01*
G01*
X187159998Y-126000002D02*
G75*
G03*
X188367106Y-126500000I1207102J1207102D01*
G01*
X187160002Y-125999998D02*
G75*
G03*
X185952893Y-125500000I-1207102J-1207102D01*
G01*
X185050013Y-127219669D02*
G75*
G03*
X185425000Y-128125000I1280287J-31D01*
G01*
X193533707Y-128500003D02*
G75*
G03*
X194517500Y-128092500I-7J1391303D01*
G01*
X185424991Y-128125009D02*
G75*
G03*
X186330330Y-128500000I905309J905309D01*
G01*
X197412254Y-111893023D02*
G75*
G03*
X195653500Y-112621500I-54J-2487177D01*
G01*
X131799995Y-120073018D02*
G75*
G03*
X132596896Y-121996896I2720805J18D01*
G01*
X132803107Y-122203099D02*
G75*
G03*
X134726981Y-123000000I1923893J1923899D01*
G01*
X194517498Y-128092498D02*
G75*
G03*
X194925000Y-127108707I-983798J983798D01*
G01*
X182471892Y-123796900D02*
G75*
G03*
X180548018Y-123000000I-1923892J-1923900D01*
G01*
X185049991Y-127062500D02*
G75*
G03*
X184563863Y-125888865I-1659791J0D01*
G01*
X195653484Y-112621484D02*
G75*
G03*
X194925000Y-114380254I1758716J-1758716D01*
G01*
X183218107Y-123243099D02*
G75*
G03*
X185141981Y-124040000I1923893J1923899D01*
G01*
X182921892Y-122946900D02*
G75*
G03*
X180998018Y-122150000I-1923892J-1923900D01*
G01*
X191000009Y-123475009D02*
G75*
G03*
X191565000Y-122110969I-1364009J1364009D01*
G01*
X193855937Y-106813016D02*
G75*
G03*
X192236000Y-107484000I-37J-2290884D01*
G01*
X169800013Y-120485570D02*
G75*
G03*
X170287501Y-121662499I1664387J-30D01*
G01*
X192235989Y-107483989D02*
G75*
G03*
X191565000Y-109103937I1619911J-1619911D01*
G01*
X170287491Y-121662509D02*
G75*
G03*
X171464429Y-122150000I1176909J1176909D01*
G01*
X189635969Y-124039987D02*
G75*
G03*
X191000000Y-123475000I31J1928987D01*
G01*
X184150005Y-128076981D02*
G75*
G03*
X183353103Y-126153103I-2720805J-19D01*
G01*
X182021892Y-124821900D02*
G75*
G03*
X180098018Y-124025000I-1923892J-1923900D01*
G01*
X106487489Y-123262511D02*
G75*
G03*
X108328337Y-124025000I1840811J1840811D01*
G01*
X198350215Y-131625006D02*
G75*
G03*
X199269302Y-131244302I-15J1299806D01*
G01*
X200446900Y-117841507D02*
G75*
G03*
X199650000Y-119765381I1923900J-1923893D01*
G01*
X184455693Y-131319307D02*
G75*
G03*
X185193718Y-131625000I738007J738007D01*
G01*
X95560010Y-115765010D02*
G75*
G03*
X95070000Y-116947964I1182990J-1182990D01*
G01*
X105725016Y-121421662D02*
G75*
G03*
X106487500Y-123262500I2603284J-38D01*
G01*
X199269297Y-131244297D02*
G75*
G03*
X199650000Y-130325215I-919097J919097D01*
G01*
X105125008Y-115874992D02*
G75*
G03*
X103676471Y-115275000I-1448508J-1448508D01*
G01*
X96742964Y-115274986D02*
G75*
G03*
X95560000Y-115765000I36J-1673014D01*
G01*
X105724988Y-117323528D02*
G75*
G03*
X105125000Y-115875000I-2048488J28D01*
G01*
X184150008Y-130581281D02*
G75*
G03*
X184455698Y-131319302I1043692J-19D01*
G01*
X182574987Y-105002107D02*
G75*
G03*
X181778103Y-103078229I-2720787J7D01*
G01*
X169799951Y-100837347D02*
G75*
G03*
X170162500Y-101712500I1237649J47D01*
G01*
X182898998Y-116649002D02*
G75*
G03*
X183681205Y-116973000I782202J782202D01*
G01*
X170162514Y-101712486D02*
G75*
G03*
X171037652Y-102075000I875186J875186D01*
G01*
X182575003Y-115866794D02*
G75*
G03*
X182899001Y-116648999I1106197J-6D01*
G01*
X181571779Y-102871887D02*
G75*
G03*
X179647892Y-102075000I-1923879J-1923913D01*
G01*
X150799994Y-98725215D02*
G75*
G03*
X151312500Y-99962500I1749806J15D01*
G01*
X182174999Y-117015502D02*
G75*
G03*
X182906500Y-118781500I2497501J2D01*
G01*
X164937504Y-102187496D02*
G75*
G03*
X165631586Y-102475000I694096J694096D01*
G01*
X164649995Y-101493413D02*
G75*
G03*
X164937500Y-102187500I981605J13D01*
G01*
X182906501Y-118781499D02*
G75*
G03*
X184672497Y-119513000I1765999J1765999D01*
G01*
X181392096Y-103257904D02*
G75*
G03*
X179501991Y-102475000I-1890096J-1890096D01*
G01*
X164650017Y-101473657D02*
G75*
G03*
X164357500Y-100767500I-998717J-43D01*
G01*
X151312505Y-99962495D02*
G75*
G03*
X152549784Y-100475000I1237295J1237295D01*
G01*
X164357488Y-100767512D02*
G75*
G03*
X163651342Y-100475000I-706188J-706188D01*
G01*
X182174996Y-105148008D02*
G75*
G03*
X181392094Y-103257906I-2672996J8D01*
G01*
X181774995Y-118176018D02*
G75*
G03*
X182571896Y-120099896I2720805J18D01*
G01*
X181775015Y-105233363D02*
G75*
G03*
X181098896Y-103601104I-2308415J-37D01*
G01*
X164250013Y-102028768D02*
G75*
G03*
X164512500Y-102662500I896187J-32D01*
G01*
X164249991Y-101980000D02*
G75*
G03*
X163953015Y-101263015I-1013991J0D01*
G01*
X147782671Y-99358973D02*
G75*
G03*
X148241321Y-100466321I1566029J-27D01*
G01*
X147053836Y-97478806D02*
G75*
G03*
X145294290Y-96750000I-1759536J-1759594D01*
G01*
X181098885Y-103601115D02*
G75*
G03*
X179466636Y-102925000I-1632285J-1632285D01*
G01*
X131800012Y-94701471D02*
G75*
G03*
X132400000Y-96150000I2048488J-29D01*
G01*
X132399992Y-96150008D02*
G75*
G03*
X133848528Y-96750000I1448508J1448508D01*
G01*
X163932504Y-101242496D02*
G75*
G03*
X163165987Y-100925000I-766504J-766504D01*
G01*
X164512491Y-102662509D02*
G75*
G03*
X165146231Y-102925000I633709J633709D01*
G01*
X147782597Y-99107643D02*
G75*
G03*
X147146245Y-97571247I-2172797J43D01*
G01*
X183969787Y-121497771D02*
G75*
G03*
X185310200Y-122053000I1340413J1340371D01*
G01*
X148241342Y-100466300D02*
G75*
G03*
X149348669Y-100925000I1107358J1107300D01*
G01*
X180805703Y-103944297D02*
G75*
G03*
X179431281Y-103375000I-1374403J-1374403D01*
G01*
X188792495Y-122882495D02*
G75*
G03*
X189150000Y-122019418I-863095J863095D01*
G01*
X147332633Y-99766295D02*
G75*
G03*
X147803822Y-100903820I1608667J-5D01*
G01*
X113262508Y-102687492D02*
G75*
G03*
X114379073Y-103150000I1116592J1116592D01*
G01*
X125472182Y-103149992D02*
G75*
G03*
X126481801Y-102731801I18J1427792D01*
G01*
X163724987Y-102567500D02*
G75*
G03*
X163383819Y-101743821I-1164887J0D01*
G01*
X127481803Y-97781803D02*
G75*
G03*
X126900000Y-99186396I1404597J-1404597D01*
G01*
X183743107Y-122443099D02*
G75*
G03*
X185666981Y-123240000I1923893J1923899D01*
G01*
X128886396Y-97199999D02*
G75*
G03*
X127481802Y-97781802I4J-1986401D01*
G01*
X126481807Y-102731807D02*
G75*
G03*
X126900000Y-101722182I-1009607J1009607D01*
G01*
X163887497Y-103212503D02*
G75*
G03*
X164279809Y-103375000I392303J392303D01*
G01*
X146741299Y-97791343D02*
G75*
G03*
X145313745Y-97200000I-1427599J-1427557D01*
G01*
X181374992Y-105318718D02*
G75*
G03*
X180805698Y-103944302I-1943692J18D01*
G01*
X147332631Y-99218897D02*
G75*
G03*
X146741321Y-97791321I-2018931J-3D01*
G01*
X181374995Y-118948018D02*
G75*
G03*
X182171896Y-120871896I2720805J18D01*
G01*
X163725005Y-102820190D02*
G75*
G03*
X163887501Y-103212499I554795J-10D01*
G01*
X189418495Y-94381495D02*
G75*
G03*
X189150000Y-95029716I648205J-648205D01*
G01*
X187929418Y-123240007D02*
G75*
G03*
X188792499Y-122882499I-18J1220607D01*
G01*
X112799990Y-101570926D02*
G75*
G03*
X113262501Y-102687499I1579110J26D01*
G01*
X163370013Y-101729987D02*
G75*
G03*
X162512954Y-101375000I-857013J-857013D01*
G01*
X147803798Y-100903844D02*
G75*
G03*
X148941347Y-101375000I1137502J1137544D01*
G01*
X190066716Y-94113007D02*
G75*
G03*
X189418500Y-94381500I-16J-916693D01*
G01*
X93799989Y-112111827D02*
G75*
G03*
X94375000Y-113500000I1963211J27D01*
G01*
X146825011Y-100452673D02*
G75*
G03*
X147226945Y-101423055I1372289J-27D01*
G01*
X107637492Y-104312492D02*
G75*
G03*
X106925000Y-106032627I1720108J-1720108D01*
G01*
X126800005Y-103050005D02*
G75*
G03*
X127350000Y-101722182I-1327805J1327805D01*
G01*
X183383800Y-122843092D02*
G75*
G03*
X185307667Y-123640000I1923900J1923892D01*
G01*
X180975010Y-105404073D02*
G75*
G03*
X180512499Y-104287501I-1579110J-27D01*
G01*
X191096900Y-105093108D02*
G75*
G03*
X190300000Y-107016981I1923900J-1923892D01*
G01*
X189817488Y-123157488D02*
G75*
G03*
X190300000Y-121992641I-1164888J1164888D01*
G01*
X104961827Y-114075011D02*
G75*
G03*
X106350000Y-113500000I-27J1963211D01*
G01*
X109357627Y-103600012D02*
G75*
G03*
X107637501Y-104312501I-27J-2432588D01*
G01*
X180975017Y-119530761D02*
G75*
G03*
X181625001Y-121099999I2219183J-39D01*
G01*
X147226937Y-101423063D02*
G75*
G03*
X148197326Y-101825000I970363J970363D01*
G01*
X193043981Y-104272994D02*
G75*
G03*
X191120103Y-105069896I19J-2720806D01*
G01*
X162814999Y-102085001D02*
G75*
G03*
X162187304Y-101825000I-627699J-627699D01*
G01*
X106349992Y-113499992D02*
G75*
G03*
X106925000Y-112111827I-1388192J1388192D01*
G01*
X180512492Y-104287508D02*
G75*
G03*
X179395926Y-103825000I-1116592J-1116592D01*
G01*
X163237497Y-103662503D02*
G75*
G03*
X163629809Y-103825000I392303J392303D01*
G01*
X188652641Y-123640017D02*
G75*
G03*
X189817500Y-123157500I-41J1647417D01*
G01*
X125472182Y-103599992D02*
G75*
G03*
X126799999Y-103049999I18J1877792D01*
G01*
X146825006Y-99399784D02*
G75*
G03*
X146312500Y-98162500I-1749806J-16D01*
G01*
X163075001Y-102712695D02*
G75*
G03*
X162814999Y-102085001I-887701J-5D01*
G01*
X182296202Y-121755574D02*
G75*
G03*
X182282843Y-121750000I-13402J-13326D01*
G01*
X128886396Y-97649999D02*
G75*
G03*
X127800000Y-98100000I4J-1536401D01*
G01*
X127800001Y-98100001D02*
G75*
G03*
X127350000Y-99186396I1086399J-1086399D01*
G01*
X182269440Y-121744468D02*
G75*
G03*
X182282843Y-121750000I13360J13368D01*
G01*
X163075005Y-103270190D02*
G75*
G03*
X163237501Y-103662499I554795J-10D01*
G01*
X94375008Y-113499992D02*
G75*
G03*
X95763172Y-114075000I1388192J1388192D01*
G01*
X146312495Y-98162505D02*
G75*
G03*
X145075215Y-97650000I-1237295J-1237295D01*
G01*
X169799994Y-82384314D02*
G75*
G03*
X170200000Y-83350000I1365706J14D01*
G01*
X185972707Y-103097693D02*
G75*
G03*
X185676475Y-102975000I-296207J-296207D01*
G01*
X182700005Y-86576981D02*
G75*
G03*
X181903103Y-84653103I-2720805J-19D01*
G01*
X182700024Y-100010277D02*
G75*
G03*
X183496896Y-101934155I2720776J-23D01*
G01*
X186095390Y-103393924D02*
G75*
G03*
X185972700Y-103097700I-418890J24D01*
G01*
X181796892Y-84546900D02*
G75*
G03*
X179873018Y-83750000I-1923892J-1923900D01*
G01*
X170200004Y-83349996D02*
G75*
G03*
X171165685Y-83750000I965696J965696D01*
G01*
X184073810Y-102511024D02*
G75*
G03*
X185193871Y-102975000I1120090J1120024D01*
G01*
X182250035Y-100125961D02*
G75*
G03*
X183046896Y-102049839I2720765J-39D01*
G01*
X184412485Y-105873237D02*
G75*
G03*
X184687750Y-106537750I939815J37D01*
G01*
X182249984Y-86753337D02*
G75*
G03*
X181487500Y-84912500I-2603284J37D01*
G01*
X166497971Y-80625879D02*
G75*
G03*
X164574076Y-79829000I-1923871J-1923921D01*
G01*
X167575009Y-83424479D02*
G75*
G03*
X167787500Y-83937500I725491J-21D01*
G01*
X167575031Y-82713972D02*
G75*
G03*
X166860095Y-80988038I-2440831J-28D01*
G01*
X151607107Y-79032099D02*
G75*
G03*
X153530981Y-79829000I1923893J1923899D01*
G01*
X184687761Y-106537739D02*
G75*
G03*
X185352262Y-106813000I664539J664539D01*
G01*
X167787494Y-83937506D02*
G75*
G03*
X168300520Y-84150000I513006J513006D01*
G01*
X150799995Y-77098018D02*
G75*
G03*
X151596896Y-79021896I2720805J18D01*
G01*
X184412474Y-104542425D02*
G75*
G03*
X183615603Y-102618547I-2720774J25D01*
G01*
X181487511Y-84912489D02*
G75*
G03*
X179646662Y-84150000I-1840811J-1840811D01*
G01*
X131800003Y-74892893D02*
G75*
G03*
X132300000Y-76100000I1707097J-7D01*
G01*
X144024997Y-79229707D02*
G75*
G03*
X144317686Y-79936314I999303J7D01*
G01*
X181849988Y-86982627D02*
G75*
G03*
X181137499Y-85262501I-2432588J27D01*
G01*
X167174974Y-82959315D02*
G75*
G03*
X166403769Y-81097398I-2633174J15D01*
G01*
X184012518Y-108622358D02*
G75*
G03*
X184226501Y-109138999I730582J-42D01*
G01*
X143378175Y-77246825D02*
G75*
G03*
X141816638Y-76600000I-1561575J-1561575D01*
G01*
X166332278Y-81025885D02*
G75*
G03*
X164408390Y-80229000I-1923878J-1923915D01*
G01*
X144317688Y-79936312D02*
G75*
G03*
X145024292Y-80229000I706612J706612D01*
G01*
X167425014Y-84299986D02*
G75*
G03*
X168028553Y-84550000I603586J603586D01*
G01*
X144024990Y-78768629D02*
G75*
G03*
X143406282Y-77274911I-2112390J29D01*
G01*
X181137508Y-85262492D02*
G75*
G03*
X179417372Y-84550000I-1720108J-1720108D01*
G01*
X184226488Y-109139012D02*
G75*
G03*
X184743141Y-109353000I516612J516612D01*
G01*
X132299998Y-76100002D02*
G75*
G03*
X133507106Y-76600000I1207102J1207102D01*
G01*
X184012485Y-104708111D02*
G75*
G03*
X183215604Y-102784232I-2720785J11D01*
G01*
X181849975Y-100291646D02*
G75*
G03*
X182646896Y-102215524I2720825J46D01*
G01*
X167175023Y-83696446D02*
G75*
G03*
X167425001Y-84299999I853477J-54D01*
G01*
X124550012Y-65474988D02*
G75*
G03*
X123523959Y-65050000I-1026012J-1026012D01*
G01*
X181449985Y-100457332D02*
G75*
G03*
X182246896Y-102381210I2720815J32D01*
G01*
X167070354Y-84654646D02*
G75*
G03*
X167783364Y-84950000I713046J713046D01*
G01*
X114510034Y-65490034D02*
G75*
G03*
X114070000Y-66552253I1062166J-1062266D01*
G01*
X183612494Y-104873796D02*
G75*
G03*
X182815602Y-102949919I-2720794J-4D01*
G01*
X166774986Y-83941635D02*
G75*
G03*
X167070344Y-84654656I1008414J35D01*
G01*
X125462491Y-76512509D02*
G75*
G03*
X126639429Y-77000000I1176909J1176909D01*
G01*
X166072349Y-81331651D02*
G75*
G03*
X164375978Y-80629000I-1696349J-1696349D01*
G01*
X124975013Y-75335570D02*
G75*
G03*
X125462501Y-76512499I1664387J-30D01*
G01*
X180820338Y-85579662D02*
G75*
G03*
X179300216Y-84950000I-1520138J-1520138D01*
G01*
X124974983Y-66501040D02*
G75*
G03*
X124550000Y-65475000I-1450983J40D01*
G01*
X166774991Y-83028022D02*
G75*
G03*
X166072343Y-81331657I-2398991J22D01*
G01*
X183612502Y-110667297D02*
G75*
G03*
X183971501Y-111533999I1225698J-3D01*
G01*
X115572253Y-65049952D02*
G75*
G03*
X114510000Y-65490000I47J-1502248D01*
G01*
X181450006Y-87099784D02*
G75*
G03*
X180820342Y-85579658I-2149806J-16D01*
G01*
X143625015Y-78808363D02*
G75*
G03*
X143095343Y-77529657I-1808415J-37D01*
G01*
X143624997Y-79229708D02*
G75*
G03*
X144034843Y-80219157I1399303J8D01*
G01*
X144034845Y-80219155D02*
G75*
G03*
X145024291Y-80629000I989455J989455D01*
G01*
X183971499Y-111534001D02*
G75*
G03*
X184838202Y-111893000I866701J866701D01*
G01*
X143095332Y-77529668D02*
G75*
G03*
X141816637Y-77000000I-1278732J-1278732D01*
G01*
X143224997Y-79229709D02*
G75*
G03*
X143752001Y-80501999I1799303J9D01*
G01*
X122700005Y-84575005D02*
G75*
G03*
X123250000Y-83247182I-1327805J1327805D01*
G01*
X123937508Y-78087508D02*
G75*
G03*
X123250000Y-79747271I1659792J-1659792D01*
G01*
X180537495Y-85862505D02*
G75*
G03*
X179300215Y-85350000I-1237295J-1237295D01*
G01*
X183212505Y-105039481D02*
G75*
G03*
X182415603Y-103115603I-2720805J-19D01*
G01*
X105225002Y-78545495D02*
G75*
G03*
X104662500Y-77187500I-1920502J-5D01*
G01*
X143752003Y-80501997D02*
G75*
G03*
X145024290Y-81029000I1272297J1272297D01*
G01*
X181049995Y-100623018D02*
G75*
G03*
X181846896Y-102546896I2720805J18D01*
G01*
X142812489Y-77812511D02*
G75*
G03*
X141816636Y-77400000I-995889J-995889D01*
G01*
X125597271Y-77399989D02*
G75*
G03*
X123937500Y-78087500I29J-2347311D01*
G01*
X183212498Y-114013905D02*
G75*
G03*
X183335250Y-114310250I419102J5D01*
G01*
X121372182Y-85124992D02*
G75*
G03*
X122699999Y-84574999I18J1877792D01*
G01*
X105700014Y-84649986D02*
G75*
G03*
X106846751Y-85125000I1146786J1146786D01*
G01*
X181050006Y-87099784D02*
G75*
G03*
X180537500Y-85862500I-1749806J-16D01*
G01*
X143225015Y-78808363D02*
G75*
G03*
X142812500Y-77812500I-1408415J-37D01*
G01*
X97468485Y-76624994D02*
G75*
G03*
X95772500Y-77327500I15J-2398506D01*
G01*
X104662499Y-77187501D02*
G75*
G03*
X103304504Y-76625000I-1357999J-1357999D01*
G01*
X166374985Y-83941636D02*
G75*
G03*
X166787500Y-84937500I1408415J36D01*
G01*
X183335252Y-114310248D02*
G75*
G03*
X183631594Y-114433000I296348J296348D01*
G01*
X166374990Y-83028022D02*
G75*
G03*
X165789499Y-81614501I-1998990J22D01*
G01*
X95772504Y-77327504D02*
G75*
G03*
X95070000Y-79023485I1695996J-1695996D01*
G01*
X166787511Y-84937489D02*
G75*
G03*
X167783363Y-85350000I995889J995889D01*
G01*
X165789506Y-81614494D02*
G75*
G03*
X164375977Y-81029000I-1413506J-1413506D01*
G01*
X105224980Y-83503248D02*
G75*
G03*
X105700000Y-84650000I1621820J48D01*
G01*
D18*
X196975020Y-98052652D02*
G75*
G03*
X197309000Y-98859000I1140280J-48D01*
G01*
X197308986Y-98859014D02*
G75*
G03*
X198115347Y-99193000I806314J806314D01*
G01*
X201315400Y-99193000D02*
X201315400Y-101733000D01*
X196975000Y-98052652D02*
X196975000Y-95700000D01*
X201315400Y-99193000D02*
X198115347Y-99193000D01*
D17*
X166375000Y-83941636D02*
X166375000Y-83028022D01*
X179300215Y-85350000D02*
X167783363Y-85350000D01*
X181050000Y-100623018D02*
X181050000Y-87099784D01*
X183212500Y-105039481D02*
X183212500Y-114013905D01*
X141816636Y-77400000D02*
X125597271Y-77400000D01*
X182415603Y-103115603D02*
X181846896Y-102546896D01*
X183631594Y-114433000D02*
X186095400Y-114433000D01*
X121372182Y-85125000D02*
X106846751Y-85125000D01*
X97468485Y-76625000D02*
X103304504Y-76625000D01*
X123250000Y-83247182D02*
X123250000Y-79747271D01*
X105225000Y-78545495D02*
X105225000Y-83503248D01*
X95070000Y-79023485D02*
X95070000Y-80265000D01*
X145024290Y-81029000D02*
X164375977Y-81029000D01*
X143225000Y-79229709D02*
X143225000Y-78808363D01*
X124975000Y-75335570D02*
X124975000Y-66501040D01*
X184838202Y-111893000D02*
X186095400Y-111893000D01*
X164375978Y-80629000D02*
X145024291Y-80629000D01*
X182246896Y-102381210D02*
X182815603Y-102949918D01*
X167783364Y-84950000D02*
X179300216Y-84950000D01*
X181450000Y-100457332D02*
X181450000Y-87099784D01*
X143625000Y-78808363D02*
X143625000Y-79229708D01*
X183612500Y-104873796D02*
X183612500Y-110667297D01*
X114070000Y-66552253D02*
X114070000Y-68390000D01*
X126639429Y-77000000D02*
X141816637Y-77000000D01*
X166775000Y-83941635D02*
X166775000Y-83028022D01*
X123523959Y-65050000D02*
X115572253Y-65050000D01*
X144025000Y-79229707D02*
X144025000Y-78768629D01*
X131800000Y-74892893D02*
X131800000Y-64705000D01*
X181850000Y-86982627D02*
X181850000Y-100291646D01*
X183215604Y-102784232D02*
X182646896Y-102215524D01*
X143378186Y-77246814D02*
X143406282Y-77274911D01*
X168028553Y-84550000D02*
X179417372Y-84550000D01*
X184743141Y-109353000D02*
X186095400Y-109353000D01*
X167175000Y-82959315D02*
X167175000Y-83696446D01*
X184012500Y-108622358D02*
X184012500Y-104708111D01*
X141816638Y-76600000D02*
X133507106Y-76600000D01*
X164408390Y-80229000D02*
X145024292Y-80229000D01*
X166403769Y-81097398D02*
X166332267Y-81025896D01*
X166497954Y-80625896D02*
X166860095Y-80988038D01*
X185352262Y-106813000D02*
X186095400Y-106813000D01*
X183046896Y-102049839D02*
X183615603Y-102618547D01*
X164574076Y-79829000D02*
X153530981Y-79829000D01*
X168300520Y-84150000D02*
X179646662Y-84150000D01*
X167575000Y-83424479D02*
X167575000Y-82713972D01*
X182250000Y-100125961D02*
X182250000Y-86753337D01*
X151607103Y-79032103D02*
X151596896Y-79021896D01*
X150800000Y-77098018D02*
X150800000Y-69305000D01*
X184412500Y-105873237D02*
X184412500Y-104542425D01*
X182700000Y-86576981D02*
X182700000Y-100010277D01*
X183496896Y-101934155D02*
X184073788Y-102511046D01*
X169800000Y-82384314D02*
X169800000Y-71805000D01*
X181903103Y-84653103D02*
X181796896Y-84546896D01*
X186095400Y-103393924D02*
X186095400Y-104273000D01*
X179873018Y-83750000D02*
X171165685Y-83750000D01*
X185676475Y-102975000D02*
X185193871Y-102975000D01*
X183383789Y-122843103D02*
X182296231Y-121755545D01*
X181625000Y-121100000D02*
X182269454Y-121744454D01*
X179395926Y-103825000D02*
X163629809Y-103825000D01*
X93800000Y-112111827D02*
X93800000Y-101805000D01*
X109357627Y-103600000D02*
X125472182Y-103600000D01*
X193043981Y-104273000D02*
X201315400Y-104273000D01*
X163075000Y-102712695D02*
X163075000Y-103270190D01*
X127350000Y-101722182D02*
X127350000Y-99186396D01*
X185307667Y-123640000D02*
X188652641Y-123640000D01*
X128886396Y-97650000D02*
X145075215Y-97650000D01*
X104961827Y-114075000D02*
X95763172Y-114075000D01*
X190300000Y-107016981D02*
X190300000Y-121992641D01*
X148197326Y-101825000D02*
X162187304Y-101825000D01*
X146825000Y-100452673D02*
X146825000Y-99399784D01*
X191096895Y-105093103D02*
X191120103Y-105069896D01*
X180975000Y-105404073D02*
X180975000Y-119530761D01*
X106925000Y-106032627D02*
X106925000Y-112111827D01*
X189150000Y-122019418D02*
X189150000Y-95029716D01*
X114379073Y-103150000D02*
X125472182Y-103150000D01*
X162512954Y-101375000D02*
X148941347Y-101375000D01*
X185666981Y-123240000D02*
X187929418Y-123240000D01*
X181375000Y-105318718D02*
X181375000Y-118948018D01*
X163725000Y-102567500D02*
X163725000Y-102820190D01*
X179431281Y-103375000D02*
X164279809Y-103375000D01*
X147332643Y-99766295D02*
X147332643Y-99218897D01*
X190066716Y-94113000D02*
X201315400Y-94113000D01*
X163383820Y-101743820D02*
X163370000Y-101730000D01*
X183743103Y-122443103D02*
X182171896Y-120871896D01*
X128886396Y-97200000D02*
X145313745Y-97200000D01*
X112800000Y-101570926D02*
X112800000Y-89930000D01*
X126900000Y-99186396D02*
X126900000Y-101722182D01*
X147053821Y-97478821D02*
X147146246Y-97571246D01*
X179466636Y-102925000D02*
X165146231Y-102925000D01*
X163165987Y-100925000D02*
X149348669Y-100925000D01*
X185310200Y-122053000D02*
X186095400Y-122053000D01*
X145294290Y-96750000D02*
X133848528Y-96750000D01*
X181775000Y-118176018D02*
X181775000Y-105233363D01*
X182571896Y-120099896D02*
X183969779Y-121497779D01*
X164250000Y-102028768D02*
X164250000Y-101980000D01*
X131800000Y-94701471D02*
X131800000Y-83705000D01*
X163953015Y-101263015D02*
X163932500Y-101242500D01*
X147782643Y-99358973D02*
X147782643Y-99107643D01*
X150800000Y-98725215D02*
X150800000Y-88305000D01*
X182175000Y-117015502D02*
X182175000Y-105148008D01*
X184672497Y-119513000D02*
X186095400Y-119513000D01*
X164650000Y-101493413D02*
X164650000Y-101473657D01*
X165631586Y-102475000D02*
X179501991Y-102475000D01*
X152549784Y-100475000D02*
X163651342Y-100475000D01*
X171037652Y-102075000D02*
X179647892Y-102075000D01*
X182575000Y-105002107D02*
X182575000Y-115866794D01*
X169800000Y-100837347D02*
X169800000Y-90805000D01*
X181778103Y-103078229D02*
X181571770Y-102871896D01*
X183681205Y-116973000D02*
X186095400Y-116973000D01*
X183353103Y-126153103D02*
X182021896Y-124821896D01*
X199650000Y-119765381D02*
X199650000Y-130325215D01*
X103676471Y-115275000D02*
X96742964Y-115275000D01*
X180098018Y-124025000D02*
X108328337Y-124025000D01*
X200446896Y-117841503D02*
X201315400Y-116973000D01*
X95070000Y-116947964D02*
X95070000Y-118265000D01*
X105725000Y-121421662D02*
X105725000Y-117323528D01*
X184150000Y-128076981D02*
X184150000Y-130581281D01*
X198350215Y-131625000D02*
X185193718Y-131625000D01*
X193855937Y-106813000D02*
X201315400Y-106813000D01*
X180998018Y-122150000D02*
X171464429Y-122150000D01*
X169800000Y-120485570D02*
X169800000Y-109805000D01*
X183218103Y-123243103D02*
X182921896Y-122946896D01*
X191565000Y-122110969D02*
X191565000Y-109103937D01*
X185141981Y-124040000D02*
X189635969Y-124040000D01*
X194925000Y-127108707D02*
X194925000Y-114380254D01*
X182471896Y-123796896D02*
X184563864Y-125888864D01*
X134726981Y-123000000D02*
X180548018Y-123000000D01*
X193533707Y-128500000D02*
X186330330Y-128500000D01*
X185050000Y-127219669D02*
X185050000Y-127062500D01*
X197412254Y-111893000D02*
X201315400Y-111893000D01*
X132596896Y-121996896D02*
X132803103Y-122203103D01*
X131800000Y-120073018D02*
X131800000Y-102705000D01*
X192015000Y-125023352D02*
X192015000Y-111592724D01*
X180823018Y-122550000D02*
X154101981Y-122550000D01*
X182746896Y-123346896D02*
X184277746Y-124877746D01*
X151596896Y-121171896D02*
X152178103Y-121753103D01*
X185780000Y-125500000D02*
X185952893Y-125500000D01*
X150800000Y-119248018D02*
X150800000Y-107305000D01*
X190538352Y-126500000D02*
X188367106Y-126500000D01*
X194254724Y-109353000D02*
X201315400Y-109353000D01*
X200253284Y-114433000D02*
X201315400Y-114433000D01*
X182346896Y-124371896D02*
X183803103Y-125828103D01*
X185794974Y-131175000D02*
X198350215Y-131175000D01*
X184600000Y-127751981D02*
X184600000Y-129980025D01*
X199200000Y-115486284D02*
X199200000Y-130325215D01*
X180423018Y-123575000D02*
X114080330Y-123575000D01*
X112800000Y-122294669D02*
X112800000Y-108930000D01*
X179898018Y-124475000D02*
X163266835Y-124475000D01*
X183700000Y-128276981D02*
X183700000Y-130581281D01*
X198332537Y-132075000D02*
X185193718Y-132075000D01*
X200125000Y-130282537D02*
X200125000Y-120685782D01*
X181821896Y-125271896D02*
X182903103Y-126353103D01*
X162743349Y-124998486D02*
X162743349Y-127068696D01*
X200468500Y-119856500D02*
X200812000Y-119513000D01*
X201315400Y-129457618D02*
X201315400Y-122053000D01*
X184650147Y-133274852D02*
X184308608Y-133616391D01*
X200518503Y-131381496D02*
X200171896Y-131728103D01*
X186460451Y-132525000D02*
X198248018Y-132525000D01*
X183900295Y-134602148D02*
X183900295Y-135179591D01*
M02*
