%TF.GenerationSoftware,KiCad,Pcbnew,7.0.5*%
%TF.CreationDate,2023-06-20T22:04:14+01:00*%
%TF.ProjectId,adam-m-rounded,6164616d-2d6d-42d7-926f-756e6465642e,rev?*%
%TF.SameCoordinates,Original*%
%TF.FileFunction,Drillmap*%
%TF.FilePolarity,Positive*%
%FSLAX45Y45*%
G04 Gerber Fmt 4.5, Leading zero omitted, Abs format (unit mm)*
G04 Created by KiCad (PCBNEW 7.0.5) date 2023-06-20 22:04:14*
%MOMM*%
%LPD*%
G01*
G04 APERTURE LIST*
%ADD10C,0.050000*%
%ADD11C,0.200000*%
%ADD12C,0.081280*%
%ADD13C,0.090000*%
%ADD14C,0.130000*%
%ADD15C,0.149860*%
%ADD16C,0.220000*%
G04 APERTURE END LIST*
D10*
X18610020Y-15273665D02*
G75*
G03*
X18983217Y-15213795I157000J214435D01*
G01*
X18358520Y-6791168D02*
G75*
G03*
X18315042Y-6723115I-75000J-2D01*
G01*
X20114117Y-8890000D02*
X18478500Y-8890000D01*
X9088971Y-13291506D02*
X9061517Y-13291260D01*
X20304617Y-9080500D02*
X20304617Y-12468668D01*
X8858022Y-13098168D02*
G75*
G03*
X9061517Y-13291260I199998J6998D01*
G01*
X20304620Y-9080500D02*
G75*
G03*
X20114117Y-8890000I-190500J0D01*
G01*
X16091988Y-14182282D02*
G75*
G03*
X9088971Y-13291270I-7031008J-27295018D01*
G01*
X13896540Y-5790219D02*
X13499017Y-5790668D01*
X18315041Y-6723116D02*
G75*
G03*
X13896540Y-5790219I-5147771J-13451334D01*
G01*
X8858803Y-7667600D02*
X8858017Y-13098168D01*
X9001679Y-7466355D02*
G75*
G03*
X8858803Y-7667600I243092J-323925D01*
G01*
X20128385Y-13205234D02*
X18983217Y-15213795D01*
X18610018Y-15273667D02*
G75*
G03*
X16091988Y-14182282I-4672998J-7331002D01*
G01*
X13499017Y-5790669D02*
G75*
G03*
X9001678Y-7466354I0J-6873000D01*
G01*
X20128386Y-13205235D02*
G75*
G03*
X20304617Y-12468668I-1505596J749595D01*
G01*
X18358020Y-8763000D02*
G75*
G03*
X18478500Y-8890000I123740J-3260D01*
G01*
X18358017Y-8763000D02*
X18358517Y-6791168D01*
D11*
D12*
X18568900Y-9370660D02*
X18650180Y-9451940D01*
X18650180Y-9370660D02*
X18568900Y-9451940D01*
X18568900Y-9624660D02*
X18650180Y-9705940D01*
X18650180Y-9624660D02*
X18568900Y-9705940D01*
X18568900Y-9878660D02*
X18650180Y-9959940D01*
X18650180Y-9878660D02*
X18568900Y-9959940D01*
X18568900Y-10132660D02*
X18650180Y-10213940D01*
X18650180Y-10132660D02*
X18568900Y-10213940D01*
X18568900Y-10386660D02*
X18650180Y-10467940D01*
X18650180Y-10386660D02*
X18568900Y-10467940D01*
X18568900Y-10640660D02*
X18650180Y-10721940D01*
X18650180Y-10640660D02*
X18568900Y-10721940D01*
X18568900Y-10894660D02*
X18650180Y-10975940D01*
X18650180Y-10894660D02*
X18568900Y-10975940D01*
X18568900Y-11148660D02*
X18650180Y-11229940D01*
X18650180Y-11148660D02*
X18568900Y-11229940D01*
X18568900Y-11402660D02*
X18650180Y-11483940D01*
X18650180Y-11402660D02*
X18568900Y-11483940D01*
X18568900Y-11656660D02*
X18650180Y-11737940D01*
X18650180Y-11656660D02*
X18568900Y-11737940D01*
X18568900Y-11910660D02*
X18650180Y-11991940D01*
X18650180Y-11910660D02*
X18568900Y-11991940D01*
X18568900Y-12164660D02*
X18650180Y-12245940D01*
X18650180Y-12164660D02*
X18568900Y-12245940D01*
X20090900Y-9370660D02*
X20172180Y-9451940D01*
X20172180Y-9370660D02*
X20090900Y-9451940D01*
X20090900Y-9624660D02*
X20172180Y-9705940D01*
X20172180Y-9624660D02*
X20090900Y-9705940D01*
X20090900Y-9878660D02*
X20172180Y-9959940D01*
X20172180Y-9878660D02*
X20090900Y-9959940D01*
X20090900Y-10132660D02*
X20172180Y-10213940D01*
X20172180Y-10132660D02*
X20090900Y-10213940D01*
X20090900Y-10386660D02*
X20172180Y-10467940D01*
X20172180Y-10386660D02*
X20090900Y-10467940D01*
X20090900Y-10640660D02*
X20172180Y-10721940D01*
X20172180Y-10640660D02*
X20090900Y-10721940D01*
X20090900Y-10894660D02*
X20172180Y-10975940D01*
X20172180Y-10894660D02*
X20090900Y-10975940D01*
X20090900Y-11148660D02*
X20172180Y-11229940D01*
X20172180Y-11148660D02*
X20090900Y-11229940D01*
X20090900Y-11402660D02*
X20172180Y-11483940D01*
X20172180Y-11402660D02*
X20090900Y-11483940D01*
X20090900Y-11656660D02*
X20172180Y-11737940D01*
X20172180Y-11656660D02*
X20090900Y-11737940D01*
X20090900Y-11910660D02*
X20172180Y-11991940D01*
X20172180Y-11910660D02*
X20090900Y-11991940D01*
X20090900Y-12164660D02*
X20172180Y-12245940D01*
X20172180Y-12164660D02*
X20090900Y-12245940D01*
D13*
X18869000Y-12976500D02*
G75*
G03*
X18869000Y-12976500I-45000J0D01*
G01*
D11*
X18804000Y-13021500D02*
X18844000Y-13021500D01*
X18844000Y-13021500D02*
G75*
G03*
X18844000Y-12931500I0J45000D01*
G01*
X18844000Y-12931500D02*
X18804000Y-12931500D01*
X18804000Y-12931500D02*
G75*
G03*
X18804000Y-13021500I0J-45000D01*
G01*
D13*
X18871000Y-12519500D02*
G75*
G03*
X18871000Y-12519500I-45000J0D01*
G01*
D11*
X18846000Y-12474500D02*
X18806000Y-12474500D01*
X18806000Y-12474500D02*
G75*
G03*
X18806000Y-12564500I0J-45000D01*
G01*
X18806000Y-12564500D02*
X18846000Y-12564500D01*
X18846000Y-12564500D02*
G75*
G03*
X18846000Y-12474500I0J45000D01*
G01*
D13*
X18979000Y-12516500D02*
G75*
G03*
X18979000Y-12516500I-45000J0D01*
G01*
D11*
X18914000Y-12561500D02*
X18954000Y-12561500D01*
X18954000Y-12561500D02*
G75*
G03*
X18954000Y-12471500I0J45000D01*
G01*
X18954000Y-12471500D02*
X18914000Y-12471500D01*
X18914000Y-12471500D02*
G75*
G03*
X18914000Y-12561500I0J-45000D01*
G01*
D13*
X18981000Y-12979500D02*
G75*
G03*
X18981000Y-12979500I-45000J0D01*
G01*
D11*
X18956000Y-12934500D02*
X18916000Y-12934500D01*
X18916000Y-12934500D02*
G75*
G03*
X18916000Y-13024500I0J-45000D01*
G01*
X18916000Y-13024500D02*
X18956000Y-13024500D01*
X18956000Y-13024500D02*
G75*
G03*
X18956000Y-12934500I0J45000D01*
G01*
D13*
X19379000Y-12516500D02*
G75*
G03*
X19379000Y-12516500I-45000J0D01*
G01*
D11*
X19314000Y-12561500D02*
X19354000Y-12561500D01*
X19354000Y-12561500D02*
G75*
G03*
X19354000Y-12471500I0J45000D01*
G01*
X19354000Y-12471500D02*
X19314000Y-12471500D01*
X19314000Y-12471500D02*
G75*
G03*
X19314000Y-12561500I0J-45000D01*
G01*
D13*
X19381000Y-12979500D02*
G75*
G03*
X19381000Y-12979500I-45000J0D01*
G01*
D11*
X19356000Y-12934500D02*
X19316000Y-12934500D01*
X19316000Y-12934500D02*
G75*
G03*
X19316000Y-13024500I0J-45000D01*
G01*
X19316000Y-13024500D02*
X19356000Y-13024500D01*
X19356000Y-13024500D02*
G75*
G03*
X19356000Y-12934500I0J45000D01*
G01*
D13*
X19679000Y-12516500D02*
G75*
G03*
X19679000Y-12516500I-45000J0D01*
G01*
D11*
X19614000Y-12561500D02*
X19654000Y-12561500D01*
X19654000Y-12561500D02*
G75*
G03*
X19654000Y-12471500I0J45000D01*
G01*
X19654000Y-12471500D02*
X19614000Y-12471500D01*
X19614000Y-12471500D02*
G75*
G03*
X19614000Y-12561500I0J-45000D01*
G01*
D13*
X19681000Y-12979500D02*
G75*
G03*
X19681000Y-12979500I-45000J0D01*
G01*
D11*
X19656000Y-12934500D02*
X19616000Y-12934500D01*
X19616000Y-12934500D02*
G75*
G03*
X19616000Y-13024500I0J-45000D01*
G01*
X19616000Y-13024500D02*
X19656000Y-13024500D01*
X19656000Y-13024500D02*
G75*
G03*
X19656000Y-12934500I0J45000D01*
G01*
D14*
X19047500Y-9505000D02*
X19047500Y-9635000D01*
X18982500Y-9570000D02*
X19112500Y-9570000D01*
X19697500Y-9505000D02*
X19697500Y-9635000D01*
X19632500Y-9570000D02*
X19762500Y-9570000D01*
D15*
X9432984Y-8333484D02*
X9432984Y-8227516D01*
X9327016Y-8227516D01*
X9327016Y-8333484D01*
X9432984Y-8333484D01*
X9432984Y-10233484D02*
X9432984Y-10127516D01*
X9327016Y-10127516D01*
X9327016Y-10233484D01*
X9432984Y-10233484D01*
X9432984Y-12133484D02*
X9432984Y-12027516D01*
X9327016Y-12027516D01*
X9327016Y-12133484D01*
X9432984Y-12133484D01*
X9559984Y-8079484D02*
X9559984Y-7973516D01*
X9454016Y-7973516D01*
X9454016Y-8079484D01*
X9559984Y-8079484D01*
X9559984Y-9979484D02*
X9559984Y-9873516D01*
X9454016Y-9873516D01*
X9454016Y-9979484D01*
X9559984Y-9979484D01*
X9559984Y-11879484D02*
X9559984Y-11773516D01*
X9454016Y-11773516D01*
X9454016Y-11879484D01*
X9559984Y-11879484D01*
X10067984Y-8079484D02*
X10067984Y-7973516D01*
X9962016Y-7973516D01*
X9962016Y-8079484D01*
X10067984Y-8079484D01*
X10067984Y-9979484D02*
X10067984Y-9873516D01*
X9962016Y-9873516D01*
X9962016Y-9979484D01*
X10067984Y-9979484D01*
X10067984Y-11879484D02*
X10067984Y-11773516D01*
X9962016Y-11773516D01*
X9962016Y-11879484D01*
X10067984Y-11879484D01*
X10194984Y-8333484D02*
X10194984Y-8227516D01*
X10089016Y-8227516D01*
X10089016Y-8333484D01*
X10194984Y-8333484D01*
X10194984Y-10233484D02*
X10194984Y-10127516D01*
X10089016Y-10127516D01*
X10089016Y-10233484D01*
X10194984Y-10233484D01*
X10194984Y-12133484D02*
X10194984Y-12027516D01*
X10089016Y-12027516D01*
X10089016Y-12133484D01*
X10194984Y-12133484D01*
X11332984Y-7145984D02*
X11332984Y-7040016D01*
X11227016Y-7040016D01*
X11227016Y-7145984D01*
X11332984Y-7145984D01*
X11332984Y-9045984D02*
X11332984Y-8940016D01*
X11227016Y-8940016D01*
X11227016Y-9045984D01*
X11332984Y-9045984D01*
X11332984Y-10945984D02*
X11332984Y-10840016D01*
X11227016Y-10840016D01*
X11227016Y-10945984D01*
X11332984Y-10945984D01*
X11459984Y-6891984D02*
X11459984Y-6786016D01*
X11354016Y-6786016D01*
X11354016Y-6891984D01*
X11459984Y-6891984D01*
X11459984Y-8791984D02*
X11459984Y-8686016D01*
X11354016Y-8686016D01*
X11354016Y-8791984D01*
X11459984Y-8791984D01*
X11459984Y-10691984D02*
X11459984Y-10586016D01*
X11354016Y-10586016D01*
X11354016Y-10691984D01*
X11459984Y-10691984D01*
X11967984Y-6891984D02*
X11967984Y-6786016D01*
X11862016Y-6786016D01*
X11862016Y-6891984D01*
X11967984Y-6891984D01*
X11967984Y-8791984D02*
X11967984Y-8686016D01*
X11862016Y-8686016D01*
X11862016Y-8791984D01*
X11967984Y-8791984D01*
X11967984Y-10691984D02*
X11967984Y-10586016D01*
X11862016Y-10586016D01*
X11862016Y-10691984D01*
X11967984Y-10691984D01*
X12094984Y-7145984D02*
X12094984Y-7040016D01*
X11989016Y-7040016D01*
X11989016Y-7145984D01*
X12094984Y-7145984D01*
X12094984Y-9045984D02*
X12094984Y-8940016D01*
X11989016Y-8940016D01*
X11989016Y-9045984D01*
X12094984Y-9045984D01*
X12094984Y-10945984D02*
X12094984Y-10840016D01*
X11989016Y-10840016D01*
X11989016Y-10945984D01*
X12094984Y-10945984D01*
X13232984Y-6523484D02*
X13232984Y-6417516D01*
X13127016Y-6417516D01*
X13127016Y-6523484D01*
X13232984Y-6523484D01*
X13232984Y-8423484D02*
X13232984Y-8317516D01*
X13127016Y-8317516D01*
X13127016Y-8423484D01*
X13232984Y-8423484D01*
X13232984Y-10323484D02*
X13232984Y-10217516D01*
X13127016Y-10217516D01*
X13127016Y-10323484D01*
X13232984Y-10323484D01*
X13359984Y-6269484D02*
X13359984Y-6163516D01*
X13254016Y-6163516D01*
X13254016Y-6269484D01*
X13359984Y-6269484D01*
X13359984Y-8169484D02*
X13359984Y-8063516D01*
X13254016Y-8063516D01*
X13254016Y-8169484D01*
X13359984Y-8169484D01*
X13359984Y-10069484D02*
X13359984Y-9963516D01*
X13254016Y-9963516D01*
X13254016Y-10069484D01*
X13359984Y-10069484D01*
X13867984Y-6269484D02*
X13867984Y-6163516D01*
X13762016Y-6163516D01*
X13762016Y-6269484D01*
X13867984Y-6269484D01*
X13867984Y-8169484D02*
X13867984Y-8063516D01*
X13762016Y-8063516D01*
X13762016Y-8169484D01*
X13867984Y-8169484D01*
X13867984Y-10069484D02*
X13867984Y-9963516D01*
X13762016Y-9963516D01*
X13762016Y-10069484D01*
X13867984Y-10069484D01*
X13994984Y-6523484D02*
X13994984Y-6417516D01*
X13889016Y-6417516D01*
X13889016Y-6523484D01*
X13994984Y-6523484D01*
X13994984Y-8423484D02*
X13994984Y-8317516D01*
X13889016Y-8317516D01*
X13889016Y-8423484D01*
X13994984Y-8423484D01*
X13994984Y-10323484D02*
X13994984Y-10217516D01*
X13889016Y-10217516D01*
X13889016Y-10323484D01*
X13994984Y-10323484D01*
X15132984Y-6983484D02*
X15132984Y-6877516D01*
X15027016Y-6877516D01*
X15027016Y-6983484D01*
X15132984Y-6983484D01*
X15132984Y-8883484D02*
X15132984Y-8777516D01*
X15027016Y-8777516D01*
X15027016Y-8883484D01*
X15132984Y-8883484D01*
X15132984Y-10783484D02*
X15132984Y-10677516D01*
X15027016Y-10677516D01*
X15027016Y-10783484D01*
X15132984Y-10783484D01*
X15259984Y-6729484D02*
X15259984Y-6623516D01*
X15154016Y-6623516D01*
X15154016Y-6729484D01*
X15259984Y-6729484D01*
X15259984Y-8629484D02*
X15259984Y-8523516D01*
X15154016Y-8523516D01*
X15154016Y-8629484D01*
X15259984Y-8629484D01*
X15259984Y-10529484D02*
X15259984Y-10423516D01*
X15154016Y-10423516D01*
X15154016Y-10529484D01*
X15259984Y-10529484D01*
X15767984Y-6729484D02*
X15767984Y-6623516D01*
X15662016Y-6623516D01*
X15662016Y-6729484D01*
X15767984Y-6729484D01*
X15767984Y-8629484D02*
X15767984Y-8523516D01*
X15662016Y-8523516D01*
X15662016Y-8629484D01*
X15767984Y-8629484D01*
X15767984Y-10529484D02*
X15767984Y-10423516D01*
X15662016Y-10423516D01*
X15662016Y-10529484D01*
X15767984Y-10529484D01*
X15894984Y-6983484D02*
X15894984Y-6877516D01*
X15789016Y-6877516D01*
X15789016Y-6983484D01*
X15894984Y-6983484D01*
X15894984Y-8883484D02*
X15894984Y-8777516D01*
X15789016Y-8777516D01*
X15789016Y-8883484D01*
X15894984Y-8883484D01*
X15894984Y-10783484D02*
X15894984Y-10677516D01*
X15789016Y-10677516D01*
X15789016Y-10783484D01*
X15894984Y-10783484D01*
X16138906Y-12972329D02*
X16138906Y-12866361D01*
X16032938Y-12866361D01*
X16032938Y-12972329D01*
X16138906Y-12972329D01*
X16327319Y-12759854D02*
X16327319Y-12653886D01*
X16221351Y-12653886D01*
X16221351Y-12759854D01*
X16327319Y-12759854D01*
X16818009Y-12891334D02*
X16818009Y-12785366D01*
X16712041Y-12785366D01*
X16712041Y-12891334D01*
X16818009Y-12891334D01*
X16874942Y-13169549D02*
X16874942Y-13063581D01*
X16768974Y-13063581D01*
X16768974Y-13169549D01*
X16874942Y-13169549D01*
X17032984Y-7233484D02*
X17032984Y-7127516D01*
X16927016Y-7127516D01*
X16927016Y-7233484D01*
X17032984Y-7233484D01*
X17032984Y-9133484D02*
X17032984Y-9027516D01*
X16927016Y-9027516D01*
X16927016Y-9133484D01*
X17032984Y-9133484D01*
X17032984Y-11033484D02*
X17032984Y-10927516D01*
X16927016Y-10927516D01*
X16927016Y-11033484D01*
X17032984Y-11033484D01*
X17159984Y-6979484D02*
X17159984Y-6873516D01*
X17054016Y-6873516D01*
X17054016Y-6979484D01*
X17159984Y-6979484D01*
X17159984Y-8879484D02*
X17159984Y-8773516D01*
X17054016Y-8773516D01*
X17054016Y-8879484D01*
X17159984Y-8879484D01*
X17159984Y-10779484D02*
X17159984Y-10673516D01*
X17054016Y-10673516D01*
X17054016Y-10779484D01*
X17159984Y-10779484D01*
X17667984Y-6979484D02*
X17667984Y-6873516D01*
X17562016Y-6873516D01*
X17562016Y-6979484D01*
X17667984Y-6979484D01*
X17667984Y-8879484D02*
X17667984Y-8773516D01*
X17562016Y-8773516D01*
X17562016Y-8879484D01*
X17667984Y-8879484D01*
X17667984Y-10779484D02*
X17667984Y-10673516D01*
X17562016Y-10673516D01*
X17562016Y-10779484D01*
X17667984Y-10779484D01*
X17794984Y-7233484D02*
X17794984Y-7127516D01*
X17689016Y-7127516D01*
X17689016Y-7233484D01*
X17794984Y-7233484D01*
X17794984Y-9133484D02*
X17794984Y-9027516D01*
X17689016Y-9027516D01*
X17689016Y-9133484D01*
X17794984Y-9133484D01*
X17794984Y-11033484D02*
X17794984Y-10927516D01*
X17689016Y-10927516D01*
X17689016Y-11033484D01*
X17794984Y-11033484D01*
X18206028Y-13727413D02*
X18206028Y-13621445D01*
X18100060Y-13621445D01*
X18100060Y-13727413D01*
X18206028Y-13727413D01*
X18443014Y-13570943D02*
X18443014Y-13464975D01*
X18337046Y-13464975D01*
X18337046Y-13570943D01*
X18443014Y-13570943D01*
X18865940Y-14108413D02*
X18865940Y-14002445D01*
X18759972Y-14002445D01*
X18759972Y-14108413D01*
X18865940Y-14108413D01*
X18882955Y-13824943D02*
X18882955Y-13718975D01*
X18776987Y-13718975D01*
X18776987Y-13824943D01*
X18882955Y-13824943D01*
D16*
X12576200Y-8462900D02*
X12686200Y-8352900D01*
X12576200Y-8242900D01*
X12466200Y-8352900D01*
X12576200Y-8462900D01*
X14481200Y-6557900D02*
X14591200Y-6447900D01*
X14481200Y-6337900D01*
X14371200Y-6447900D01*
X14481200Y-6557900D01*
X14481200Y-10367900D02*
X14591200Y-10257900D01*
X14481200Y-10147900D01*
X14371200Y-10257900D01*
X14481200Y-10367900D01*
X16386200Y-8462900D02*
X16496200Y-8352900D01*
X16386200Y-8242900D01*
X16276200Y-8352900D01*
X16386200Y-8462900D01*
D11*
X9116294Y-15638980D02*
X9116294Y-15438980D01*
X9116294Y-15438980D02*
X9163913Y-15438980D01*
X9163913Y-15438980D02*
X9192484Y-15448503D01*
X9192484Y-15448503D02*
X9211532Y-15467551D01*
X9211532Y-15467551D02*
X9221056Y-15486599D01*
X9221056Y-15486599D02*
X9230580Y-15524694D01*
X9230580Y-15524694D02*
X9230580Y-15553265D01*
X9230580Y-15553265D02*
X9221056Y-15591360D01*
X9221056Y-15591360D02*
X9211532Y-15610408D01*
X9211532Y-15610408D02*
X9192484Y-15629456D01*
X9192484Y-15629456D02*
X9163913Y-15638980D01*
X9163913Y-15638980D02*
X9116294Y-15638980D01*
X9316294Y-15638980D02*
X9316294Y-15505646D01*
X9316294Y-15543741D02*
X9325818Y-15524694D01*
X9325818Y-15524694D02*
X9335342Y-15515170D01*
X9335342Y-15515170D02*
X9354389Y-15505646D01*
X9354389Y-15505646D02*
X9373437Y-15505646D01*
X9440103Y-15638980D02*
X9440103Y-15505646D01*
X9440103Y-15438980D02*
X9430580Y-15448503D01*
X9430580Y-15448503D02*
X9440103Y-15458027D01*
X9440103Y-15458027D02*
X9449627Y-15448503D01*
X9449627Y-15448503D02*
X9440103Y-15438980D01*
X9440103Y-15438980D02*
X9440103Y-15458027D01*
X9563913Y-15638980D02*
X9544865Y-15629456D01*
X9544865Y-15629456D02*
X9535342Y-15610408D01*
X9535342Y-15610408D02*
X9535342Y-15438980D01*
X9668675Y-15638980D02*
X9649627Y-15629456D01*
X9649627Y-15629456D02*
X9640103Y-15610408D01*
X9640103Y-15610408D02*
X9640103Y-15438980D01*
X9897246Y-15638980D02*
X9897246Y-15438980D01*
X9897246Y-15438980D02*
X9963913Y-15581837D01*
X9963913Y-15581837D02*
X10030580Y-15438980D01*
X10030580Y-15438980D02*
X10030580Y-15638980D01*
X10211532Y-15638980D02*
X10211532Y-15534218D01*
X10211532Y-15534218D02*
X10202008Y-15515170D01*
X10202008Y-15515170D02*
X10182961Y-15505646D01*
X10182961Y-15505646D02*
X10144865Y-15505646D01*
X10144865Y-15505646D02*
X10125818Y-15515170D01*
X10211532Y-15629456D02*
X10192484Y-15638980D01*
X10192484Y-15638980D02*
X10144865Y-15638980D01*
X10144865Y-15638980D02*
X10125818Y-15629456D01*
X10125818Y-15629456D02*
X10116294Y-15610408D01*
X10116294Y-15610408D02*
X10116294Y-15591360D01*
X10116294Y-15591360D02*
X10125818Y-15572313D01*
X10125818Y-15572313D02*
X10144865Y-15562789D01*
X10144865Y-15562789D02*
X10192484Y-15562789D01*
X10192484Y-15562789D02*
X10211532Y-15553265D01*
X10306770Y-15505646D02*
X10306770Y-15705646D01*
X10306770Y-15515170D02*
X10325818Y-15505646D01*
X10325818Y-15505646D02*
X10363913Y-15505646D01*
X10363913Y-15505646D02*
X10382961Y-15515170D01*
X10382961Y-15515170D02*
X10392484Y-15524694D01*
X10392484Y-15524694D02*
X10402008Y-15543741D01*
X10402008Y-15543741D02*
X10402008Y-15600884D01*
X10402008Y-15600884D02*
X10392484Y-15619932D01*
X10392484Y-15619932D02*
X10382961Y-15629456D01*
X10382961Y-15629456D02*
X10363913Y-15638980D01*
X10363913Y-15638980D02*
X10325818Y-15638980D01*
X10325818Y-15638980D02*
X10306770Y-15629456D01*
X10487723Y-15619932D02*
X10497246Y-15629456D01*
X10497246Y-15629456D02*
X10487723Y-15638980D01*
X10487723Y-15638980D02*
X10478199Y-15629456D01*
X10478199Y-15629456D02*
X10487723Y-15619932D01*
X10487723Y-15619932D02*
X10487723Y-15638980D01*
X10487723Y-15515170D02*
X10497246Y-15524694D01*
X10497246Y-15524694D02*
X10487723Y-15534218D01*
X10487723Y-15534218D02*
X10478199Y-15524694D01*
X10478199Y-15524694D02*
X10487723Y-15515170D01*
X10487723Y-15515170D02*
X10487723Y-15534218D01*
D12*
X8774237Y-15926856D02*
X8855517Y-16008136D01*
X8855517Y-15926856D02*
X8774237Y-16008136D01*
D11*
X9154389Y-15858980D02*
X9173437Y-15858980D01*
X9173437Y-15858980D02*
X9192484Y-15868503D01*
X9192484Y-15868503D02*
X9202008Y-15878027D01*
X9202008Y-15878027D02*
X9211532Y-15897075D01*
X9211532Y-15897075D02*
X9221056Y-15935170D01*
X9221056Y-15935170D02*
X9221056Y-15982789D01*
X9221056Y-15982789D02*
X9211532Y-16020884D01*
X9211532Y-16020884D02*
X9202008Y-16039932D01*
X9202008Y-16039932D02*
X9192484Y-16049456D01*
X9192484Y-16049456D02*
X9173437Y-16058980D01*
X9173437Y-16058980D02*
X9154389Y-16058980D01*
X9154389Y-16058980D02*
X9135342Y-16049456D01*
X9135342Y-16049456D02*
X9125818Y-16039932D01*
X9125818Y-16039932D02*
X9116294Y-16020884D01*
X9116294Y-16020884D02*
X9106770Y-15982789D01*
X9106770Y-15982789D02*
X9106770Y-15935170D01*
X9106770Y-15935170D02*
X9116294Y-15897075D01*
X9116294Y-15897075D02*
X9125818Y-15878027D01*
X9125818Y-15878027D02*
X9135342Y-15868503D01*
X9135342Y-15868503D02*
X9154389Y-15858980D01*
X9306770Y-16039932D02*
X9316294Y-16049456D01*
X9316294Y-16049456D02*
X9306770Y-16058980D01*
X9306770Y-16058980D02*
X9297246Y-16049456D01*
X9297246Y-16049456D02*
X9306770Y-16039932D01*
X9306770Y-16039932D02*
X9306770Y-16058980D01*
X9430580Y-15944694D02*
X9411532Y-15935170D01*
X9411532Y-15935170D02*
X9402008Y-15925646D01*
X9402008Y-15925646D02*
X9392484Y-15906599D01*
X9392484Y-15906599D02*
X9392484Y-15897075D01*
X9392484Y-15897075D02*
X9402008Y-15878027D01*
X9402008Y-15878027D02*
X9411532Y-15868503D01*
X9411532Y-15868503D02*
X9430580Y-15858980D01*
X9430580Y-15858980D02*
X9468675Y-15858980D01*
X9468675Y-15858980D02*
X9487723Y-15868503D01*
X9487723Y-15868503D02*
X9497246Y-15878027D01*
X9497246Y-15878027D02*
X9506770Y-15897075D01*
X9506770Y-15897075D02*
X9506770Y-15906599D01*
X9506770Y-15906599D02*
X9497246Y-15925646D01*
X9497246Y-15925646D02*
X9487723Y-15935170D01*
X9487723Y-15935170D02*
X9468675Y-15944694D01*
X9468675Y-15944694D02*
X9430580Y-15944694D01*
X9430580Y-15944694D02*
X9411532Y-15954218D01*
X9411532Y-15954218D02*
X9402008Y-15963741D01*
X9402008Y-15963741D02*
X9392484Y-15982789D01*
X9392484Y-15982789D02*
X9392484Y-16020884D01*
X9392484Y-16020884D02*
X9402008Y-16039932D01*
X9402008Y-16039932D02*
X9411532Y-16049456D01*
X9411532Y-16049456D02*
X9430580Y-16058980D01*
X9430580Y-16058980D02*
X9468675Y-16058980D01*
X9468675Y-16058980D02*
X9487723Y-16049456D01*
X9487723Y-16049456D02*
X9497246Y-16039932D01*
X9497246Y-16039932D02*
X9506770Y-16020884D01*
X9506770Y-16020884D02*
X9506770Y-15982789D01*
X9506770Y-15982789D02*
X9497246Y-15963741D01*
X9497246Y-15963741D02*
X9487723Y-15954218D01*
X9487723Y-15954218D02*
X9468675Y-15944694D01*
X9697246Y-16058980D02*
X9582961Y-16058980D01*
X9640103Y-16058980D02*
X9640103Y-15858980D01*
X9640103Y-15858980D02*
X9621056Y-15887551D01*
X9621056Y-15887551D02*
X9602008Y-15906599D01*
X9602008Y-15906599D02*
X9582961Y-15916122D01*
X9763913Y-15858980D02*
X9887723Y-15858980D01*
X9887723Y-15858980D02*
X9821056Y-15935170D01*
X9821056Y-15935170D02*
X9849627Y-15935170D01*
X9849627Y-15935170D02*
X9868675Y-15944694D01*
X9868675Y-15944694D02*
X9878199Y-15954218D01*
X9878199Y-15954218D02*
X9887723Y-15973265D01*
X9887723Y-15973265D02*
X9887723Y-16020884D01*
X9887723Y-16020884D02*
X9878199Y-16039932D01*
X9878199Y-16039932D02*
X9868675Y-16049456D01*
X9868675Y-16049456D02*
X9849627Y-16058980D01*
X9849627Y-16058980D02*
X9792484Y-16058980D01*
X9792484Y-16058980D02*
X9773437Y-16049456D01*
X9773437Y-16049456D02*
X9763913Y-16039932D01*
X9973437Y-16058980D02*
X9973437Y-15925646D01*
X9973437Y-15944694D02*
X9982961Y-15935170D01*
X9982961Y-15935170D02*
X10002008Y-15925646D01*
X10002008Y-15925646D02*
X10030580Y-15925646D01*
X10030580Y-15925646D02*
X10049627Y-15935170D01*
X10049627Y-15935170D02*
X10059151Y-15954218D01*
X10059151Y-15954218D02*
X10059151Y-16058980D01*
X10059151Y-15954218D02*
X10068675Y-15935170D01*
X10068675Y-15935170D02*
X10087723Y-15925646D01*
X10087723Y-15925646D02*
X10116294Y-15925646D01*
X10116294Y-15925646D02*
X10135342Y-15935170D01*
X10135342Y-15935170D02*
X10144865Y-15954218D01*
X10144865Y-15954218D02*
X10144865Y-16058980D01*
X10240104Y-16058980D02*
X10240104Y-15925646D01*
X10240104Y-15944694D02*
X10249627Y-15935170D01*
X10249627Y-15935170D02*
X10268675Y-15925646D01*
X10268675Y-15925646D02*
X10297246Y-15925646D01*
X10297246Y-15925646D02*
X10316294Y-15935170D01*
X10316294Y-15935170D02*
X10325818Y-15954218D01*
X10325818Y-15954218D02*
X10325818Y-16058980D01*
X10325818Y-15954218D02*
X10335342Y-15935170D01*
X10335342Y-15935170D02*
X10354389Y-15925646D01*
X10354389Y-15925646D02*
X10382961Y-15925646D01*
X10382961Y-15925646D02*
X10402008Y-15935170D01*
X10402008Y-15935170D02*
X10411532Y-15954218D01*
X10411532Y-15954218D02*
X10411532Y-16058980D01*
X10802008Y-15849456D02*
X10630580Y-16106599D01*
X11059151Y-15858980D02*
X11078199Y-15858980D01*
X11078199Y-15858980D02*
X11097247Y-15868503D01*
X11097247Y-15868503D02*
X11106770Y-15878027D01*
X11106770Y-15878027D02*
X11116294Y-15897075D01*
X11116294Y-15897075D02*
X11125818Y-15935170D01*
X11125818Y-15935170D02*
X11125818Y-15982789D01*
X11125818Y-15982789D02*
X11116294Y-16020884D01*
X11116294Y-16020884D02*
X11106770Y-16039932D01*
X11106770Y-16039932D02*
X11097247Y-16049456D01*
X11097247Y-16049456D02*
X11078199Y-16058980D01*
X11078199Y-16058980D02*
X11059151Y-16058980D01*
X11059151Y-16058980D02*
X11040104Y-16049456D01*
X11040104Y-16049456D02*
X11030580Y-16039932D01*
X11030580Y-16039932D02*
X11021056Y-16020884D01*
X11021056Y-16020884D02*
X11011532Y-15982789D01*
X11011532Y-15982789D02*
X11011532Y-15935170D01*
X11011532Y-15935170D02*
X11021056Y-15897075D01*
X11021056Y-15897075D02*
X11030580Y-15878027D01*
X11030580Y-15878027D02*
X11040104Y-15868503D01*
X11040104Y-15868503D02*
X11059151Y-15858980D01*
X11211532Y-16039932D02*
X11221056Y-16049456D01*
X11221056Y-16049456D02*
X11211532Y-16058980D01*
X11211532Y-16058980D02*
X11202008Y-16049456D01*
X11202008Y-16049456D02*
X11211532Y-16039932D01*
X11211532Y-16039932D02*
X11211532Y-16058980D01*
X11344865Y-15858980D02*
X11363913Y-15858980D01*
X11363913Y-15858980D02*
X11382961Y-15868503D01*
X11382961Y-15868503D02*
X11392485Y-15878027D01*
X11392485Y-15878027D02*
X11402008Y-15897075D01*
X11402008Y-15897075D02*
X11411532Y-15935170D01*
X11411532Y-15935170D02*
X11411532Y-15982789D01*
X11411532Y-15982789D02*
X11402008Y-16020884D01*
X11402008Y-16020884D02*
X11392485Y-16039932D01*
X11392485Y-16039932D02*
X11382961Y-16049456D01*
X11382961Y-16049456D02*
X11363913Y-16058980D01*
X11363913Y-16058980D02*
X11344865Y-16058980D01*
X11344865Y-16058980D02*
X11325818Y-16049456D01*
X11325818Y-16049456D02*
X11316294Y-16039932D01*
X11316294Y-16039932D02*
X11306770Y-16020884D01*
X11306770Y-16020884D02*
X11297246Y-15982789D01*
X11297246Y-15982789D02*
X11297246Y-15935170D01*
X11297246Y-15935170D02*
X11306770Y-15897075D01*
X11306770Y-15897075D02*
X11316294Y-15878027D01*
X11316294Y-15878027D02*
X11325818Y-15868503D01*
X11325818Y-15868503D02*
X11344865Y-15858980D01*
X11478199Y-15858980D02*
X11602008Y-15858980D01*
X11602008Y-15858980D02*
X11535342Y-15935170D01*
X11535342Y-15935170D02*
X11563913Y-15935170D01*
X11563913Y-15935170D02*
X11582961Y-15944694D01*
X11582961Y-15944694D02*
X11592485Y-15954218D01*
X11592485Y-15954218D02*
X11602008Y-15973265D01*
X11602008Y-15973265D02*
X11602008Y-16020884D01*
X11602008Y-16020884D02*
X11592485Y-16039932D01*
X11592485Y-16039932D02*
X11582961Y-16049456D01*
X11582961Y-16049456D02*
X11563913Y-16058980D01*
X11563913Y-16058980D02*
X11506770Y-16058980D01*
X11506770Y-16058980D02*
X11487723Y-16049456D01*
X11487723Y-16049456D02*
X11478199Y-16039932D01*
X11678199Y-15878027D02*
X11687723Y-15868503D01*
X11687723Y-15868503D02*
X11706770Y-15858980D01*
X11706770Y-15858980D02*
X11754389Y-15858980D01*
X11754389Y-15858980D02*
X11773437Y-15868503D01*
X11773437Y-15868503D02*
X11782961Y-15878027D01*
X11782961Y-15878027D02*
X11792485Y-15897075D01*
X11792485Y-15897075D02*
X11792485Y-15916122D01*
X11792485Y-15916122D02*
X11782961Y-15944694D01*
X11782961Y-15944694D02*
X11668675Y-16058980D01*
X11668675Y-16058980D02*
X11792485Y-16058980D01*
X11916294Y-15858980D02*
X11935342Y-15858980D01*
X11935342Y-15858980D02*
X11954389Y-15868503D01*
X11954389Y-15868503D02*
X11963913Y-15878027D01*
X11963913Y-15878027D02*
X11973437Y-15897075D01*
X11973437Y-15897075D02*
X11982961Y-15935170D01*
X11982961Y-15935170D02*
X11982961Y-15982789D01*
X11982961Y-15982789D02*
X11973437Y-16020884D01*
X11973437Y-16020884D02*
X11963913Y-16039932D01*
X11963913Y-16039932D02*
X11954389Y-16049456D01*
X11954389Y-16049456D02*
X11935342Y-16058980D01*
X11935342Y-16058980D02*
X11916294Y-16058980D01*
X11916294Y-16058980D02*
X11897246Y-16049456D01*
X11897246Y-16049456D02*
X11887723Y-16039932D01*
X11887723Y-16039932D02*
X11878199Y-16020884D01*
X11878199Y-16020884D02*
X11868675Y-15982789D01*
X11868675Y-15982789D02*
X11868675Y-15935170D01*
X11868675Y-15935170D02*
X11878199Y-15897075D01*
X11878199Y-15897075D02*
X11887723Y-15878027D01*
X11887723Y-15878027D02*
X11897246Y-15868503D01*
X11897246Y-15868503D02*
X11916294Y-15858980D01*
X12059151Y-15858980D02*
X12059151Y-15897075D01*
X12135342Y-15858980D02*
X12135342Y-15897075D01*
X12430580Y-16135170D02*
X12421056Y-16125646D01*
X12421056Y-16125646D02*
X12402008Y-16097075D01*
X12402008Y-16097075D02*
X12392485Y-16078027D01*
X12392485Y-16078027D02*
X12382961Y-16049456D01*
X12382961Y-16049456D02*
X12373437Y-16001837D01*
X12373437Y-16001837D02*
X12373437Y-15963741D01*
X12373437Y-15963741D02*
X12382961Y-15916122D01*
X12382961Y-15916122D02*
X12392485Y-15887551D01*
X12392485Y-15887551D02*
X12402008Y-15868503D01*
X12402008Y-15868503D02*
X12421056Y-15839932D01*
X12421056Y-15839932D02*
X12430580Y-15830408D01*
X12497247Y-15878027D02*
X12506770Y-15868503D01*
X12506770Y-15868503D02*
X12525818Y-15858980D01*
X12525818Y-15858980D02*
X12573437Y-15858980D01*
X12573437Y-15858980D02*
X12592485Y-15868503D01*
X12592485Y-15868503D02*
X12602008Y-15878027D01*
X12602008Y-15878027D02*
X12611532Y-15897075D01*
X12611532Y-15897075D02*
X12611532Y-15916122D01*
X12611532Y-15916122D02*
X12602008Y-15944694D01*
X12602008Y-15944694D02*
X12487723Y-16058980D01*
X12487723Y-16058980D02*
X12611532Y-16058980D01*
X12782961Y-15925646D02*
X12782961Y-16058980D01*
X12735342Y-15849456D02*
X12687723Y-15992313D01*
X12687723Y-15992313D02*
X12811532Y-15992313D01*
X13040104Y-16058980D02*
X13040104Y-15858980D01*
X13125818Y-16058980D02*
X13125818Y-15954218D01*
X13125818Y-15954218D02*
X13116294Y-15935170D01*
X13116294Y-15935170D02*
X13097247Y-15925646D01*
X13097247Y-15925646D02*
X13068675Y-15925646D01*
X13068675Y-15925646D02*
X13049628Y-15935170D01*
X13049628Y-15935170D02*
X13040104Y-15944694D01*
X13249628Y-16058980D02*
X13230580Y-16049456D01*
X13230580Y-16049456D02*
X13221056Y-16039932D01*
X13221056Y-16039932D02*
X13211532Y-16020884D01*
X13211532Y-16020884D02*
X13211532Y-15963741D01*
X13211532Y-15963741D02*
X13221056Y-15944694D01*
X13221056Y-15944694D02*
X13230580Y-15935170D01*
X13230580Y-15935170D02*
X13249628Y-15925646D01*
X13249628Y-15925646D02*
X13278199Y-15925646D01*
X13278199Y-15925646D02*
X13297247Y-15935170D01*
X13297247Y-15935170D02*
X13306770Y-15944694D01*
X13306770Y-15944694D02*
X13316294Y-15963741D01*
X13316294Y-15963741D02*
X13316294Y-16020884D01*
X13316294Y-16020884D02*
X13306770Y-16039932D01*
X13306770Y-16039932D02*
X13297247Y-16049456D01*
X13297247Y-16049456D02*
X13278199Y-16058980D01*
X13278199Y-16058980D02*
X13249628Y-16058980D01*
X13430580Y-16058980D02*
X13411532Y-16049456D01*
X13411532Y-16049456D02*
X13402009Y-16030408D01*
X13402009Y-16030408D02*
X13402009Y-15858980D01*
X13582961Y-16049456D02*
X13563913Y-16058980D01*
X13563913Y-16058980D02*
X13525818Y-16058980D01*
X13525818Y-16058980D02*
X13506770Y-16049456D01*
X13506770Y-16049456D02*
X13497247Y-16030408D01*
X13497247Y-16030408D02*
X13497247Y-15954218D01*
X13497247Y-15954218D02*
X13506770Y-15935170D01*
X13506770Y-15935170D02*
X13525818Y-15925646D01*
X13525818Y-15925646D02*
X13563913Y-15925646D01*
X13563913Y-15925646D02*
X13582961Y-15935170D01*
X13582961Y-15935170D02*
X13592485Y-15954218D01*
X13592485Y-15954218D02*
X13592485Y-15973265D01*
X13592485Y-15973265D02*
X13497247Y-15992313D01*
X13668675Y-16049456D02*
X13687723Y-16058980D01*
X13687723Y-16058980D02*
X13725818Y-16058980D01*
X13725818Y-16058980D02*
X13744866Y-16049456D01*
X13744866Y-16049456D02*
X13754390Y-16030408D01*
X13754390Y-16030408D02*
X13754390Y-16020884D01*
X13754390Y-16020884D02*
X13744866Y-16001837D01*
X13744866Y-16001837D02*
X13725818Y-15992313D01*
X13725818Y-15992313D02*
X13697247Y-15992313D01*
X13697247Y-15992313D02*
X13678199Y-15982789D01*
X13678199Y-15982789D02*
X13668675Y-15963741D01*
X13668675Y-15963741D02*
X13668675Y-15954218D01*
X13668675Y-15954218D02*
X13678199Y-15935170D01*
X13678199Y-15935170D02*
X13697247Y-15925646D01*
X13697247Y-15925646D02*
X13725818Y-15925646D01*
X13725818Y-15925646D02*
X13744866Y-15935170D01*
X13821056Y-16135170D02*
X13830580Y-16125646D01*
X13830580Y-16125646D02*
X13849628Y-16097075D01*
X13849628Y-16097075D02*
X13859151Y-16078027D01*
X13859151Y-16078027D02*
X13868675Y-16049456D01*
X13868675Y-16049456D02*
X13878199Y-16001837D01*
X13878199Y-16001837D02*
X13878199Y-15963741D01*
X13878199Y-15963741D02*
X13868675Y-15916122D01*
X13868675Y-15916122D02*
X13859151Y-15887551D01*
X13859151Y-15887551D02*
X13849628Y-15868503D01*
X13849628Y-15868503D02*
X13830580Y-15839932D01*
X13830580Y-15839932D02*
X13821056Y-15830408D01*
D13*
X8855517Y-16231496D02*
G75*
G03*
X8855517Y-16231496I-45000J0D01*
G01*
D11*
X9154389Y-16122980D02*
X9173437Y-16122980D01*
X9173437Y-16122980D02*
X9192484Y-16132503D01*
X9192484Y-16132503D02*
X9202008Y-16142027D01*
X9202008Y-16142027D02*
X9211532Y-16161075D01*
X9211532Y-16161075D02*
X9221056Y-16199170D01*
X9221056Y-16199170D02*
X9221056Y-16246789D01*
X9221056Y-16246789D02*
X9211532Y-16284884D01*
X9211532Y-16284884D02*
X9202008Y-16303932D01*
X9202008Y-16303932D02*
X9192484Y-16313456D01*
X9192484Y-16313456D02*
X9173437Y-16322980D01*
X9173437Y-16322980D02*
X9154389Y-16322980D01*
X9154389Y-16322980D02*
X9135342Y-16313456D01*
X9135342Y-16313456D02*
X9125818Y-16303932D01*
X9125818Y-16303932D02*
X9116294Y-16284884D01*
X9116294Y-16284884D02*
X9106770Y-16246789D01*
X9106770Y-16246789D02*
X9106770Y-16199170D01*
X9106770Y-16199170D02*
X9116294Y-16161075D01*
X9116294Y-16161075D02*
X9125818Y-16142027D01*
X9125818Y-16142027D02*
X9135342Y-16132503D01*
X9135342Y-16132503D02*
X9154389Y-16122980D01*
X9306770Y-16303932D02*
X9316294Y-16313456D01*
X9316294Y-16313456D02*
X9306770Y-16322980D01*
X9306770Y-16322980D02*
X9297246Y-16313456D01*
X9297246Y-16313456D02*
X9306770Y-16303932D01*
X9306770Y-16303932D02*
X9306770Y-16322980D01*
X9411532Y-16322980D02*
X9449627Y-16322980D01*
X9449627Y-16322980D02*
X9468675Y-16313456D01*
X9468675Y-16313456D02*
X9478199Y-16303932D01*
X9478199Y-16303932D02*
X9497246Y-16275360D01*
X9497246Y-16275360D02*
X9506770Y-16237265D01*
X9506770Y-16237265D02*
X9506770Y-16161075D01*
X9506770Y-16161075D02*
X9497246Y-16142027D01*
X9497246Y-16142027D02*
X9487723Y-16132503D01*
X9487723Y-16132503D02*
X9468675Y-16122980D01*
X9468675Y-16122980D02*
X9430580Y-16122980D01*
X9430580Y-16122980D02*
X9411532Y-16132503D01*
X9411532Y-16132503D02*
X9402008Y-16142027D01*
X9402008Y-16142027D02*
X9392484Y-16161075D01*
X9392484Y-16161075D02*
X9392484Y-16208694D01*
X9392484Y-16208694D02*
X9402008Y-16227741D01*
X9402008Y-16227741D02*
X9411532Y-16237265D01*
X9411532Y-16237265D02*
X9430580Y-16246789D01*
X9430580Y-16246789D02*
X9468675Y-16246789D01*
X9468675Y-16246789D02*
X9487723Y-16237265D01*
X9487723Y-16237265D02*
X9497246Y-16227741D01*
X9497246Y-16227741D02*
X9506770Y-16208694D01*
X9630580Y-16122980D02*
X9649627Y-16122980D01*
X9649627Y-16122980D02*
X9668675Y-16132503D01*
X9668675Y-16132503D02*
X9678199Y-16142027D01*
X9678199Y-16142027D02*
X9687723Y-16161075D01*
X9687723Y-16161075D02*
X9697246Y-16199170D01*
X9697246Y-16199170D02*
X9697246Y-16246789D01*
X9697246Y-16246789D02*
X9687723Y-16284884D01*
X9687723Y-16284884D02*
X9678199Y-16303932D01*
X9678199Y-16303932D02*
X9668675Y-16313456D01*
X9668675Y-16313456D02*
X9649627Y-16322980D01*
X9649627Y-16322980D02*
X9630580Y-16322980D01*
X9630580Y-16322980D02*
X9611532Y-16313456D01*
X9611532Y-16313456D02*
X9602008Y-16303932D01*
X9602008Y-16303932D02*
X9592484Y-16284884D01*
X9592484Y-16284884D02*
X9582961Y-16246789D01*
X9582961Y-16246789D02*
X9582961Y-16199170D01*
X9582961Y-16199170D02*
X9592484Y-16161075D01*
X9592484Y-16161075D02*
X9602008Y-16142027D01*
X9602008Y-16142027D02*
X9611532Y-16132503D01*
X9611532Y-16132503D02*
X9630580Y-16122980D01*
X9821056Y-16122980D02*
X9840104Y-16122980D01*
X9840104Y-16122980D02*
X9859151Y-16132503D01*
X9859151Y-16132503D02*
X9868675Y-16142027D01*
X9868675Y-16142027D02*
X9878199Y-16161075D01*
X9878199Y-16161075D02*
X9887723Y-16199170D01*
X9887723Y-16199170D02*
X9887723Y-16246789D01*
X9887723Y-16246789D02*
X9878199Y-16284884D01*
X9878199Y-16284884D02*
X9868675Y-16303932D01*
X9868675Y-16303932D02*
X9859151Y-16313456D01*
X9859151Y-16313456D02*
X9840104Y-16322980D01*
X9840104Y-16322980D02*
X9821056Y-16322980D01*
X9821056Y-16322980D02*
X9802008Y-16313456D01*
X9802008Y-16313456D02*
X9792484Y-16303932D01*
X9792484Y-16303932D02*
X9782961Y-16284884D01*
X9782961Y-16284884D02*
X9773437Y-16246789D01*
X9773437Y-16246789D02*
X9773437Y-16199170D01*
X9773437Y-16199170D02*
X9782961Y-16161075D01*
X9782961Y-16161075D02*
X9792484Y-16142027D01*
X9792484Y-16142027D02*
X9802008Y-16132503D01*
X9802008Y-16132503D02*
X9821056Y-16122980D01*
X9973437Y-16322980D02*
X9973437Y-16189646D01*
X9973437Y-16208694D02*
X9982961Y-16199170D01*
X9982961Y-16199170D02*
X10002008Y-16189646D01*
X10002008Y-16189646D02*
X10030580Y-16189646D01*
X10030580Y-16189646D02*
X10049627Y-16199170D01*
X10049627Y-16199170D02*
X10059151Y-16218218D01*
X10059151Y-16218218D02*
X10059151Y-16322980D01*
X10059151Y-16218218D02*
X10068675Y-16199170D01*
X10068675Y-16199170D02*
X10087723Y-16189646D01*
X10087723Y-16189646D02*
X10116294Y-16189646D01*
X10116294Y-16189646D02*
X10135342Y-16199170D01*
X10135342Y-16199170D02*
X10144865Y-16218218D01*
X10144865Y-16218218D02*
X10144865Y-16322980D01*
X10240104Y-16322980D02*
X10240104Y-16189646D01*
X10240104Y-16208694D02*
X10249627Y-16199170D01*
X10249627Y-16199170D02*
X10268675Y-16189646D01*
X10268675Y-16189646D02*
X10297246Y-16189646D01*
X10297246Y-16189646D02*
X10316294Y-16199170D01*
X10316294Y-16199170D02*
X10325818Y-16218218D01*
X10325818Y-16218218D02*
X10325818Y-16322980D01*
X10325818Y-16218218D02*
X10335342Y-16199170D01*
X10335342Y-16199170D02*
X10354389Y-16189646D01*
X10354389Y-16189646D02*
X10382961Y-16189646D01*
X10382961Y-16189646D02*
X10402008Y-16199170D01*
X10402008Y-16199170D02*
X10411532Y-16218218D01*
X10411532Y-16218218D02*
X10411532Y-16322980D01*
X10802008Y-16113456D02*
X10630580Y-16370599D01*
X11059151Y-16122980D02*
X11078199Y-16122980D01*
X11078199Y-16122980D02*
X11097247Y-16132503D01*
X11097247Y-16132503D02*
X11106770Y-16142027D01*
X11106770Y-16142027D02*
X11116294Y-16161075D01*
X11116294Y-16161075D02*
X11125818Y-16199170D01*
X11125818Y-16199170D02*
X11125818Y-16246789D01*
X11125818Y-16246789D02*
X11116294Y-16284884D01*
X11116294Y-16284884D02*
X11106770Y-16303932D01*
X11106770Y-16303932D02*
X11097247Y-16313456D01*
X11097247Y-16313456D02*
X11078199Y-16322980D01*
X11078199Y-16322980D02*
X11059151Y-16322980D01*
X11059151Y-16322980D02*
X11040104Y-16313456D01*
X11040104Y-16313456D02*
X11030580Y-16303932D01*
X11030580Y-16303932D02*
X11021056Y-16284884D01*
X11021056Y-16284884D02*
X11011532Y-16246789D01*
X11011532Y-16246789D02*
X11011532Y-16199170D01*
X11011532Y-16199170D02*
X11021056Y-16161075D01*
X11021056Y-16161075D02*
X11030580Y-16142027D01*
X11030580Y-16142027D02*
X11040104Y-16132503D01*
X11040104Y-16132503D02*
X11059151Y-16122980D01*
X11211532Y-16303932D02*
X11221056Y-16313456D01*
X11221056Y-16313456D02*
X11211532Y-16322980D01*
X11211532Y-16322980D02*
X11202008Y-16313456D01*
X11202008Y-16313456D02*
X11211532Y-16303932D01*
X11211532Y-16303932D02*
X11211532Y-16322980D01*
X11344865Y-16122980D02*
X11363913Y-16122980D01*
X11363913Y-16122980D02*
X11382961Y-16132503D01*
X11382961Y-16132503D02*
X11392485Y-16142027D01*
X11392485Y-16142027D02*
X11402008Y-16161075D01*
X11402008Y-16161075D02*
X11411532Y-16199170D01*
X11411532Y-16199170D02*
X11411532Y-16246789D01*
X11411532Y-16246789D02*
X11402008Y-16284884D01*
X11402008Y-16284884D02*
X11392485Y-16303932D01*
X11392485Y-16303932D02*
X11382961Y-16313456D01*
X11382961Y-16313456D02*
X11363913Y-16322980D01*
X11363913Y-16322980D02*
X11344865Y-16322980D01*
X11344865Y-16322980D02*
X11325818Y-16313456D01*
X11325818Y-16313456D02*
X11316294Y-16303932D01*
X11316294Y-16303932D02*
X11306770Y-16284884D01*
X11306770Y-16284884D02*
X11297246Y-16246789D01*
X11297246Y-16246789D02*
X11297246Y-16199170D01*
X11297246Y-16199170D02*
X11306770Y-16161075D01*
X11306770Y-16161075D02*
X11316294Y-16142027D01*
X11316294Y-16142027D02*
X11325818Y-16132503D01*
X11325818Y-16132503D02*
X11344865Y-16122980D01*
X11478199Y-16122980D02*
X11602008Y-16122980D01*
X11602008Y-16122980D02*
X11535342Y-16199170D01*
X11535342Y-16199170D02*
X11563913Y-16199170D01*
X11563913Y-16199170D02*
X11582961Y-16208694D01*
X11582961Y-16208694D02*
X11592485Y-16218218D01*
X11592485Y-16218218D02*
X11602008Y-16237265D01*
X11602008Y-16237265D02*
X11602008Y-16284884D01*
X11602008Y-16284884D02*
X11592485Y-16303932D01*
X11592485Y-16303932D02*
X11582961Y-16313456D01*
X11582961Y-16313456D02*
X11563913Y-16322980D01*
X11563913Y-16322980D02*
X11506770Y-16322980D01*
X11506770Y-16322980D02*
X11487723Y-16313456D01*
X11487723Y-16313456D02*
X11478199Y-16303932D01*
X11782961Y-16122980D02*
X11687723Y-16122980D01*
X11687723Y-16122980D02*
X11678199Y-16218218D01*
X11678199Y-16218218D02*
X11687723Y-16208694D01*
X11687723Y-16208694D02*
X11706770Y-16199170D01*
X11706770Y-16199170D02*
X11754389Y-16199170D01*
X11754389Y-16199170D02*
X11773437Y-16208694D01*
X11773437Y-16208694D02*
X11782961Y-16218218D01*
X11782961Y-16218218D02*
X11792485Y-16237265D01*
X11792485Y-16237265D02*
X11792485Y-16284884D01*
X11792485Y-16284884D02*
X11782961Y-16303932D01*
X11782961Y-16303932D02*
X11773437Y-16313456D01*
X11773437Y-16313456D02*
X11754389Y-16322980D01*
X11754389Y-16322980D02*
X11706770Y-16322980D01*
X11706770Y-16322980D02*
X11687723Y-16313456D01*
X11687723Y-16313456D02*
X11678199Y-16303932D01*
X11963913Y-16189646D02*
X11963913Y-16322980D01*
X11916294Y-16113456D02*
X11868675Y-16256313D01*
X11868675Y-16256313D02*
X11992485Y-16256313D01*
X12059151Y-16122980D02*
X12059151Y-16161075D01*
X12135342Y-16122980D02*
X12135342Y-16161075D01*
X12430580Y-16399170D02*
X12421056Y-16389646D01*
X12421056Y-16389646D02*
X12402008Y-16361075D01*
X12402008Y-16361075D02*
X12392485Y-16342027D01*
X12392485Y-16342027D02*
X12382961Y-16313456D01*
X12382961Y-16313456D02*
X12373437Y-16265837D01*
X12373437Y-16265837D02*
X12373437Y-16227741D01*
X12373437Y-16227741D02*
X12382961Y-16180122D01*
X12382961Y-16180122D02*
X12392485Y-16151551D01*
X12392485Y-16151551D02*
X12402008Y-16132503D01*
X12402008Y-16132503D02*
X12421056Y-16103932D01*
X12421056Y-16103932D02*
X12430580Y-16094408D01*
X12544866Y-16122980D02*
X12563913Y-16122980D01*
X12563913Y-16122980D02*
X12582961Y-16132503D01*
X12582961Y-16132503D02*
X12592485Y-16142027D01*
X12592485Y-16142027D02*
X12602008Y-16161075D01*
X12602008Y-16161075D02*
X12611532Y-16199170D01*
X12611532Y-16199170D02*
X12611532Y-16246789D01*
X12611532Y-16246789D02*
X12602008Y-16284884D01*
X12602008Y-16284884D02*
X12592485Y-16303932D01*
X12592485Y-16303932D02*
X12582961Y-16313456D01*
X12582961Y-16313456D02*
X12563913Y-16322980D01*
X12563913Y-16322980D02*
X12544866Y-16322980D01*
X12544866Y-16322980D02*
X12525818Y-16313456D01*
X12525818Y-16313456D02*
X12516294Y-16303932D01*
X12516294Y-16303932D02*
X12506770Y-16284884D01*
X12506770Y-16284884D02*
X12497247Y-16246789D01*
X12497247Y-16246789D02*
X12497247Y-16199170D01*
X12497247Y-16199170D02*
X12506770Y-16161075D01*
X12506770Y-16161075D02*
X12516294Y-16142027D01*
X12516294Y-16142027D02*
X12525818Y-16132503D01*
X12525818Y-16132503D02*
X12544866Y-16122980D01*
X12849628Y-16322980D02*
X12849628Y-16122980D01*
X12935342Y-16322980D02*
X12935342Y-16218218D01*
X12935342Y-16218218D02*
X12925818Y-16199170D01*
X12925818Y-16199170D02*
X12906770Y-16189646D01*
X12906770Y-16189646D02*
X12878199Y-16189646D01*
X12878199Y-16189646D02*
X12859151Y-16199170D01*
X12859151Y-16199170D02*
X12849628Y-16208694D01*
X13059151Y-16322980D02*
X13040104Y-16313456D01*
X13040104Y-16313456D02*
X13030580Y-16303932D01*
X13030580Y-16303932D02*
X13021056Y-16284884D01*
X13021056Y-16284884D02*
X13021056Y-16227741D01*
X13021056Y-16227741D02*
X13030580Y-16208694D01*
X13030580Y-16208694D02*
X13040104Y-16199170D01*
X13040104Y-16199170D02*
X13059151Y-16189646D01*
X13059151Y-16189646D02*
X13087723Y-16189646D01*
X13087723Y-16189646D02*
X13106770Y-16199170D01*
X13106770Y-16199170D02*
X13116294Y-16208694D01*
X13116294Y-16208694D02*
X13125818Y-16227741D01*
X13125818Y-16227741D02*
X13125818Y-16284884D01*
X13125818Y-16284884D02*
X13116294Y-16303932D01*
X13116294Y-16303932D02*
X13106770Y-16313456D01*
X13106770Y-16313456D02*
X13087723Y-16322980D01*
X13087723Y-16322980D02*
X13059151Y-16322980D01*
X13240104Y-16322980D02*
X13221056Y-16313456D01*
X13221056Y-16313456D02*
X13211532Y-16294408D01*
X13211532Y-16294408D02*
X13211532Y-16122980D01*
X13392485Y-16313456D02*
X13373437Y-16322980D01*
X13373437Y-16322980D02*
X13335342Y-16322980D01*
X13335342Y-16322980D02*
X13316294Y-16313456D01*
X13316294Y-16313456D02*
X13306770Y-16294408D01*
X13306770Y-16294408D02*
X13306770Y-16218218D01*
X13306770Y-16218218D02*
X13316294Y-16199170D01*
X13316294Y-16199170D02*
X13335342Y-16189646D01*
X13335342Y-16189646D02*
X13373437Y-16189646D01*
X13373437Y-16189646D02*
X13392485Y-16199170D01*
X13392485Y-16199170D02*
X13402009Y-16218218D01*
X13402009Y-16218218D02*
X13402009Y-16237265D01*
X13402009Y-16237265D02*
X13306770Y-16256313D01*
X13478199Y-16313456D02*
X13497247Y-16322980D01*
X13497247Y-16322980D02*
X13535342Y-16322980D01*
X13535342Y-16322980D02*
X13554390Y-16313456D01*
X13554390Y-16313456D02*
X13563913Y-16294408D01*
X13563913Y-16294408D02*
X13563913Y-16284884D01*
X13563913Y-16284884D02*
X13554390Y-16265837D01*
X13554390Y-16265837D02*
X13535342Y-16256313D01*
X13535342Y-16256313D02*
X13506770Y-16256313D01*
X13506770Y-16256313D02*
X13487723Y-16246789D01*
X13487723Y-16246789D02*
X13478199Y-16227741D01*
X13478199Y-16227741D02*
X13478199Y-16218218D01*
X13478199Y-16218218D02*
X13487723Y-16199170D01*
X13487723Y-16199170D02*
X13506770Y-16189646D01*
X13506770Y-16189646D02*
X13535342Y-16189646D01*
X13535342Y-16189646D02*
X13554390Y-16199170D01*
X13802009Y-16246789D02*
X13954390Y-16246789D01*
X13878199Y-16322980D02*
X13878199Y-16170599D01*
X14230580Y-16208694D02*
X14211532Y-16199170D01*
X14211532Y-16199170D02*
X14202009Y-16189646D01*
X14202009Y-16189646D02*
X14192485Y-16170599D01*
X14192485Y-16170599D02*
X14192485Y-16161075D01*
X14192485Y-16161075D02*
X14202009Y-16142027D01*
X14202009Y-16142027D02*
X14211532Y-16132503D01*
X14211532Y-16132503D02*
X14230580Y-16122980D01*
X14230580Y-16122980D02*
X14268675Y-16122980D01*
X14268675Y-16122980D02*
X14287723Y-16132503D01*
X14287723Y-16132503D02*
X14297247Y-16142027D01*
X14297247Y-16142027D02*
X14306771Y-16161075D01*
X14306771Y-16161075D02*
X14306771Y-16170599D01*
X14306771Y-16170599D02*
X14297247Y-16189646D01*
X14297247Y-16189646D02*
X14287723Y-16199170D01*
X14287723Y-16199170D02*
X14268675Y-16208694D01*
X14268675Y-16208694D02*
X14230580Y-16208694D01*
X14230580Y-16208694D02*
X14211532Y-16218218D01*
X14211532Y-16218218D02*
X14202009Y-16227741D01*
X14202009Y-16227741D02*
X14192485Y-16246789D01*
X14192485Y-16246789D02*
X14192485Y-16284884D01*
X14192485Y-16284884D02*
X14202009Y-16303932D01*
X14202009Y-16303932D02*
X14211532Y-16313456D01*
X14211532Y-16313456D02*
X14230580Y-16322980D01*
X14230580Y-16322980D02*
X14268675Y-16322980D01*
X14268675Y-16322980D02*
X14287723Y-16313456D01*
X14287723Y-16313456D02*
X14297247Y-16303932D01*
X14297247Y-16303932D02*
X14306771Y-16284884D01*
X14306771Y-16284884D02*
X14306771Y-16246789D01*
X14306771Y-16246789D02*
X14297247Y-16227741D01*
X14297247Y-16227741D02*
X14287723Y-16218218D01*
X14287723Y-16218218D02*
X14268675Y-16208694D01*
X14535342Y-16313456D02*
X14554390Y-16322980D01*
X14554390Y-16322980D02*
X14592485Y-16322980D01*
X14592485Y-16322980D02*
X14611533Y-16313456D01*
X14611533Y-16313456D02*
X14621056Y-16294408D01*
X14621056Y-16294408D02*
X14621056Y-16284884D01*
X14621056Y-16284884D02*
X14611533Y-16265837D01*
X14611533Y-16265837D02*
X14592485Y-16256313D01*
X14592485Y-16256313D02*
X14563913Y-16256313D01*
X14563913Y-16256313D02*
X14544866Y-16246789D01*
X14544866Y-16246789D02*
X14535342Y-16227741D01*
X14535342Y-16227741D02*
X14535342Y-16218218D01*
X14535342Y-16218218D02*
X14544866Y-16199170D01*
X14544866Y-16199170D02*
X14563913Y-16189646D01*
X14563913Y-16189646D02*
X14592485Y-16189646D01*
X14592485Y-16189646D02*
X14611533Y-16199170D01*
X14735342Y-16322980D02*
X14716294Y-16313456D01*
X14716294Y-16313456D02*
X14706771Y-16294408D01*
X14706771Y-16294408D02*
X14706771Y-16122980D01*
X14840104Y-16322980D02*
X14821056Y-16313456D01*
X14821056Y-16313456D02*
X14811533Y-16303932D01*
X14811533Y-16303932D02*
X14802009Y-16284884D01*
X14802009Y-16284884D02*
X14802009Y-16227741D01*
X14802009Y-16227741D02*
X14811533Y-16208694D01*
X14811533Y-16208694D02*
X14821056Y-16199170D01*
X14821056Y-16199170D02*
X14840104Y-16189646D01*
X14840104Y-16189646D02*
X14868675Y-16189646D01*
X14868675Y-16189646D02*
X14887723Y-16199170D01*
X14887723Y-16199170D02*
X14897247Y-16208694D01*
X14897247Y-16208694D02*
X14906771Y-16227741D01*
X14906771Y-16227741D02*
X14906771Y-16284884D01*
X14906771Y-16284884D02*
X14897247Y-16303932D01*
X14897247Y-16303932D02*
X14887723Y-16313456D01*
X14887723Y-16313456D02*
X14868675Y-16322980D01*
X14868675Y-16322980D02*
X14840104Y-16322980D01*
X14963914Y-16189646D02*
X15040104Y-16189646D01*
X14992485Y-16122980D02*
X14992485Y-16294408D01*
X14992485Y-16294408D02*
X15002009Y-16313456D01*
X15002009Y-16313456D02*
X15021056Y-16322980D01*
X15021056Y-16322980D02*
X15040104Y-16322980D01*
X15097247Y-16313456D02*
X15116294Y-16322980D01*
X15116294Y-16322980D02*
X15154390Y-16322980D01*
X15154390Y-16322980D02*
X15173437Y-16313456D01*
X15173437Y-16313456D02*
X15182961Y-16294408D01*
X15182961Y-16294408D02*
X15182961Y-16284884D01*
X15182961Y-16284884D02*
X15173437Y-16265837D01*
X15173437Y-16265837D02*
X15154390Y-16256313D01*
X15154390Y-16256313D02*
X15125818Y-16256313D01*
X15125818Y-16256313D02*
X15106771Y-16246789D01*
X15106771Y-16246789D02*
X15097247Y-16227741D01*
X15097247Y-16227741D02*
X15097247Y-16218218D01*
X15097247Y-16218218D02*
X15106771Y-16199170D01*
X15106771Y-16199170D02*
X15125818Y-16189646D01*
X15125818Y-16189646D02*
X15154390Y-16189646D01*
X15154390Y-16189646D02*
X15173437Y-16199170D01*
X15249628Y-16399170D02*
X15259152Y-16389646D01*
X15259152Y-16389646D02*
X15278199Y-16361075D01*
X15278199Y-16361075D02*
X15287723Y-16342027D01*
X15287723Y-16342027D02*
X15297247Y-16313456D01*
X15297247Y-16313456D02*
X15306771Y-16265837D01*
X15306771Y-16265837D02*
X15306771Y-16227741D01*
X15306771Y-16227741D02*
X15297247Y-16180122D01*
X15297247Y-16180122D02*
X15287723Y-16151551D01*
X15287723Y-16151551D02*
X15278199Y-16132503D01*
X15278199Y-16132503D02*
X15259152Y-16103932D01*
X15259152Y-16103932D02*
X15249628Y-16094408D01*
D14*
X8790517Y-16430496D02*
X8790517Y-16560496D01*
X8725517Y-16495496D02*
X8855517Y-16495496D01*
D11*
X9221056Y-16586980D02*
X9106770Y-16586980D01*
X9163913Y-16586980D02*
X9163913Y-16386980D01*
X9163913Y-16386980D02*
X9144865Y-16415551D01*
X9144865Y-16415551D02*
X9125818Y-16434599D01*
X9125818Y-16434599D02*
X9106770Y-16444122D01*
X9306770Y-16567932D02*
X9316294Y-16577456D01*
X9316294Y-16577456D02*
X9306770Y-16586980D01*
X9306770Y-16586980D02*
X9297246Y-16577456D01*
X9297246Y-16577456D02*
X9306770Y-16567932D01*
X9306770Y-16567932D02*
X9306770Y-16586980D01*
X9382961Y-16386980D02*
X9506770Y-16386980D01*
X9506770Y-16386980D02*
X9440103Y-16463170D01*
X9440103Y-16463170D02*
X9468675Y-16463170D01*
X9468675Y-16463170D02*
X9487723Y-16472694D01*
X9487723Y-16472694D02*
X9497246Y-16482218D01*
X9497246Y-16482218D02*
X9506770Y-16501265D01*
X9506770Y-16501265D02*
X9506770Y-16548884D01*
X9506770Y-16548884D02*
X9497246Y-16567932D01*
X9497246Y-16567932D02*
X9487723Y-16577456D01*
X9487723Y-16577456D02*
X9468675Y-16586980D01*
X9468675Y-16586980D02*
X9411532Y-16586980D01*
X9411532Y-16586980D02*
X9392484Y-16577456D01*
X9392484Y-16577456D02*
X9382961Y-16567932D01*
X9630580Y-16386980D02*
X9649627Y-16386980D01*
X9649627Y-16386980D02*
X9668675Y-16396503D01*
X9668675Y-16396503D02*
X9678199Y-16406027D01*
X9678199Y-16406027D02*
X9687723Y-16425075D01*
X9687723Y-16425075D02*
X9697246Y-16463170D01*
X9697246Y-16463170D02*
X9697246Y-16510789D01*
X9697246Y-16510789D02*
X9687723Y-16548884D01*
X9687723Y-16548884D02*
X9678199Y-16567932D01*
X9678199Y-16567932D02*
X9668675Y-16577456D01*
X9668675Y-16577456D02*
X9649627Y-16586980D01*
X9649627Y-16586980D02*
X9630580Y-16586980D01*
X9630580Y-16586980D02*
X9611532Y-16577456D01*
X9611532Y-16577456D02*
X9602008Y-16567932D01*
X9602008Y-16567932D02*
X9592484Y-16548884D01*
X9592484Y-16548884D02*
X9582961Y-16510789D01*
X9582961Y-16510789D02*
X9582961Y-16463170D01*
X9582961Y-16463170D02*
X9592484Y-16425075D01*
X9592484Y-16425075D02*
X9602008Y-16406027D01*
X9602008Y-16406027D02*
X9611532Y-16396503D01*
X9611532Y-16396503D02*
X9630580Y-16386980D01*
X9821056Y-16386980D02*
X9840104Y-16386980D01*
X9840104Y-16386980D02*
X9859151Y-16396503D01*
X9859151Y-16396503D02*
X9868675Y-16406027D01*
X9868675Y-16406027D02*
X9878199Y-16425075D01*
X9878199Y-16425075D02*
X9887723Y-16463170D01*
X9887723Y-16463170D02*
X9887723Y-16510789D01*
X9887723Y-16510789D02*
X9878199Y-16548884D01*
X9878199Y-16548884D02*
X9868675Y-16567932D01*
X9868675Y-16567932D02*
X9859151Y-16577456D01*
X9859151Y-16577456D02*
X9840104Y-16586980D01*
X9840104Y-16586980D02*
X9821056Y-16586980D01*
X9821056Y-16586980D02*
X9802008Y-16577456D01*
X9802008Y-16577456D02*
X9792484Y-16567932D01*
X9792484Y-16567932D02*
X9782961Y-16548884D01*
X9782961Y-16548884D02*
X9773437Y-16510789D01*
X9773437Y-16510789D02*
X9773437Y-16463170D01*
X9773437Y-16463170D02*
X9782961Y-16425075D01*
X9782961Y-16425075D02*
X9792484Y-16406027D01*
X9792484Y-16406027D02*
X9802008Y-16396503D01*
X9802008Y-16396503D02*
X9821056Y-16386980D01*
X9973437Y-16586980D02*
X9973437Y-16453646D01*
X9973437Y-16472694D02*
X9982961Y-16463170D01*
X9982961Y-16463170D02*
X10002008Y-16453646D01*
X10002008Y-16453646D02*
X10030580Y-16453646D01*
X10030580Y-16453646D02*
X10049627Y-16463170D01*
X10049627Y-16463170D02*
X10059151Y-16482218D01*
X10059151Y-16482218D02*
X10059151Y-16586980D01*
X10059151Y-16482218D02*
X10068675Y-16463170D01*
X10068675Y-16463170D02*
X10087723Y-16453646D01*
X10087723Y-16453646D02*
X10116294Y-16453646D01*
X10116294Y-16453646D02*
X10135342Y-16463170D01*
X10135342Y-16463170D02*
X10144865Y-16482218D01*
X10144865Y-16482218D02*
X10144865Y-16586980D01*
X10240104Y-16586980D02*
X10240104Y-16453646D01*
X10240104Y-16472694D02*
X10249627Y-16463170D01*
X10249627Y-16463170D02*
X10268675Y-16453646D01*
X10268675Y-16453646D02*
X10297246Y-16453646D01*
X10297246Y-16453646D02*
X10316294Y-16463170D01*
X10316294Y-16463170D02*
X10325818Y-16482218D01*
X10325818Y-16482218D02*
X10325818Y-16586980D01*
X10325818Y-16482218D02*
X10335342Y-16463170D01*
X10335342Y-16463170D02*
X10354389Y-16453646D01*
X10354389Y-16453646D02*
X10382961Y-16453646D01*
X10382961Y-16453646D02*
X10402008Y-16463170D01*
X10402008Y-16463170D02*
X10411532Y-16482218D01*
X10411532Y-16482218D02*
X10411532Y-16586980D01*
X10802008Y-16377456D02*
X10630580Y-16634599D01*
X11059151Y-16386980D02*
X11078199Y-16386980D01*
X11078199Y-16386980D02*
X11097247Y-16396503D01*
X11097247Y-16396503D02*
X11106770Y-16406027D01*
X11106770Y-16406027D02*
X11116294Y-16425075D01*
X11116294Y-16425075D02*
X11125818Y-16463170D01*
X11125818Y-16463170D02*
X11125818Y-16510789D01*
X11125818Y-16510789D02*
X11116294Y-16548884D01*
X11116294Y-16548884D02*
X11106770Y-16567932D01*
X11106770Y-16567932D02*
X11097247Y-16577456D01*
X11097247Y-16577456D02*
X11078199Y-16586980D01*
X11078199Y-16586980D02*
X11059151Y-16586980D01*
X11059151Y-16586980D02*
X11040104Y-16577456D01*
X11040104Y-16577456D02*
X11030580Y-16567932D01*
X11030580Y-16567932D02*
X11021056Y-16548884D01*
X11021056Y-16548884D02*
X11011532Y-16510789D01*
X11011532Y-16510789D02*
X11011532Y-16463170D01*
X11011532Y-16463170D02*
X11021056Y-16425075D01*
X11021056Y-16425075D02*
X11030580Y-16406027D01*
X11030580Y-16406027D02*
X11040104Y-16396503D01*
X11040104Y-16396503D02*
X11059151Y-16386980D01*
X11211532Y-16567932D02*
X11221056Y-16577456D01*
X11221056Y-16577456D02*
X11211532Y-16586980D01*
X11211532Y-16586980D02*
X11202008Y-16577456D01*
X11202008Y-16577456D02*
X11211532Y-16567932D01*
X11211532Y-16567932D02*
X11211532Y-16586980D01*
X11344865Y-16386980D02*
X11363913Y-16386980D01*
X11363913Y-16386980D02*
X11382961Y-16396503D01*
X11382961Y-16396503D02*
X11392485Y-16406027D01*
X11392485Y-16406027D02*
X11402008Y-16425075D01*
X11402008Y-16425075D02*
X11411532Y-16463170D01*
X11411532Y-16463170D02*
X11411532Y-16510789D01*
X11411532Y-16510789D02*
X11402008Y-16548884D01*
X11402008Y-16548884D02*
X11392485Y-16567932D01*
X11392485Y-16567932D02*
X11382961Y-16577456D01*
X11382961Y-16577456D02*
X11363913Y-16586980D01*
X11363913Y-16586980D02*
X11344865Y-16586980D01*
X11344865Y-16586980D02*
X11325818Y-16577456D01*
X11325818Y-16577456D02*
X11316294Y-16567932D01*
X11316294Y-16567932D02*
X11306770Y-16548884D01*
X11306770Y-16548884D02*
X11297246Y-16510789D01*
X11297246Y-16510789D02*
X11297246Y-16463170D01*
X11297246Y-16463170D02*
X11306770Y-16425075D01*
X11306770Y-16425075D02*
X11316294Y-16406027D01*
X11316294Y-16406027D02*
X11325818Y-16396503D01*
X11325818Y-16396503D02*
X11344865Y-16386980D01*
X11592485Y-16386980D02*
X11497246Y-16386980D01*
X11497246Y-16386980D02*
X11487723Y-16482218D01*
X11487723Y-16482218D02*
X11497246Y-16472694D01*
X11497246Y-16472694D02*
X11516294Y-16463170D01*
X11516294Y-16463170D02*
X11563913Y-16463170D01*
X11563913Y-16463170D02*
X11582961Y-16472694D01*
X11582961Y-16472694D02*
X11592485Y-16482218D01*
X11592485Y-16482218D02*
X11602008Y-16501265D01*
X11602008Y-16501265D02*
X11602008Y-16548884D01*
X11602008Y-16548884D02*
X11592485Y-16567932D01*
X11592485Y-16567932D02*
X11582961Y-16577456D01*
X11582961Y-16577456D02*
X11563913Y-16586980D01*
X11563913Y-16586980D02*
X11516294Y-16586980D01*
X11516294Y-16586980D02*
X11497246Y-16577456D01*
X11497246Y-16577456D02*
X11487723Y-16567932D01*
X11792485Y-16586980D02*
X11678199Y-16586980D01*
X11735342Y-16586980D02*
X11735342Y-16386980D01*
X11735342Y-16386980D02*
X11716294Y-16415551D01*
X11716294Y-16415551D02*
X11697246Y-16434599D01*
X11697246Y-16434599D02*
X11678199Y-16444122D01*
X11868675Y-16406027D02*
X11878199Y-16396503D01*
X11878199Y-16396503D02*
X11897246Y-16386980D01*
X11897246Y-16386980D02*
X11944866Y-16386980D01*
X11944866Y-16386980D02*
X11963913Y-16396503D01*
X11963913Y-16396503D02*
X11973437Y-16406027D01*
X11973437Y-16406027D02*
X11982961Y-16425075D01*
X11982961Y-16425075D02*
X11982961Y-16444122D01*
X11982961Y-16444122D02*
X11973437Y-16472694D01*
X11973437Y-16472694D02*
X11859151Y-16586980D01*
X11859151Y-16586980D02*
X11982961Y-16586980D01*
X12059151Y-16386980D02*
X12059151Y-16425075D01*
X12135342Y-16386980D02*
X12135342Y-16425075D01*
X12430580Y-16663170D02*
X12421056Y-16653646D01*
X12421056Y-16653646D02*
X12402008Y-16625075D01*
X12402008Y-16625075D02*
X12392485Y-16606027D01*
X12392485Y-16606027D02*
X12382961Y-16577456D01*
X12382961Y-16577456D02*
X12373437Y-16529837D01*
X12373437Y-16529837D02*
X12373437Y-16491741D01*
X12373437Y-16491741D02*
X12382961Y-16444122D01*
X12382961Y-16444122D02*
X12392485Y-16415551D01*
X12392485Y-16415551D02*
X12402008Y-16396503D01*
X12402008Y-16396503D02*
X12421056Y-16367932D01*
X12421056Y-16367932D02*
X12430580Y-16358408D01*
X12497247Y-16406027D02*
X12506770Y-16396503D01*
X12506770Y-16396503D02*
X12525818Y-16386980D01*
X12525818Y-16386980D02*
X12573437Y-16386980D01*
X12573437Y-16386980D02*
X12592485Y-16396503D01*
X12592485Y-16396503D02*
X12602008Y-16406027D01*
X12602008Y-16406027D02*
X12611532Y-16425075D01*
X12611532Y-16425075D02*
X12611532Y-16444122D01*
X12611532Y-16444122D02*
X12602008Y-16472694D01*
X12602008Y-16472694D02*
X12487723Y-16586980D01*
X12487723Y-16586980D02*
X12611532Y-16586980D01*
X12849628Y-16586980D02*
X12849628Y-16386980D01*
X12935342Y-16586980D02*
X12935342Y-16482218D01*
X12935342Y-16482218D02*
X12925818Y-16463170D01*
X12925818Y-16463170D02*
X12906770Y-16453646D01*
X12906770Y-16453646D02*
X12878199Y-16453646D01*
X12878199Y-16453646D02*
X12859151Y-16463170D01*
X12859151Y-16463170D02*
X12849628Y-16472694D01*
X13059151Y-16586980D02*
X13040104Y-16577456D01*
X13040104Y-16577456D02*
X13030580Y-16567932D01*
X13030580Y-16567932D02*
X13021056Y-16548884D01*
X13021056Y-16548884D02*
X13021056Y-16491741D01*
X13021056Y-16491741D02*
X13030580Y-16472694D01*
X13030580Y-16472694D02*
X13040104Y-16463170D01*
X13040104Y-16463170D02*
X13059151Y-16453646D01*
X13059151Y-16453646D02*
X13087723Y-16453646D01*
X13087723Y-16453646D02*
X13106770Y-16463170D01*
X13106770Y-16463170D02*
X13116294Y-16472694D01*
X13116294Y-16472694D02*
X13125818Y-16491741D01*
X13125818Y-16491741D02*
X13125818Y-16548884D01*
X13125818Y-16548884D02*
X13116294Y-16567932D01*
X13116294Y-16567932D02*
X13106770Y-16577456D01*
X13106770Y-16577456D02*
X13087723Y-16586980D01*
X13087723Y-16586980D02*
X13059151Y-16586980D01*
X13240104Y-16586980D02*
X13221056Y-16577456D01*
X13221056Y-16577456D02*
X13211532Y-16558408D01*
X13211532Y-16558408D02*
X13211532Y-16386980D01*
X13392485Y-16577456D02*
X13373437Y-16586980D01*
X13373437Y-16586980D02*
X13335342Y-16586980D01*
X13335342Y-16586980D02*
X13316294Y-16577456D01*
X13316294Y-16577456D02*
X13306770Y-16558408D01*
X13306770Y-16558408D02*
X13306770Y-16482218D01*
X13306770Y-16482218D02*
X13316294Y-16463170D01*
X13316294Y-16463170D02*
X13335342Y-16453646D01*
X13335342Y-16453646D02*
X13373437Y-16453646D01*
X13373437Y-16453646D02*
X13392485Y-16463170D01*
X13392485Y-16463170D02*
X13402009Y-16482218D01*
X13402009Y-16482218D02*
X13402009Y-16501265D01*
X13402009Y-16501265D02*
X13306770Y-16520313D01*
X13478199Y-16577456D02*
X13497247Y-16586980D01*
X13497247Y-16586980D02*
X13535342Y-16586980D01*
X13535342Y-16586980D02*
X13554390Y-16577456D01*
X13554390Y-16577456D02*
X13563913Y-16558408D01*
X13563913Y-16558408D02*
X13563913Y-16548884D01*
X13563913Y-16548884D02*
X13554390Y-16529837D01*
X13554390Y-16529837D02*
X13535342Y-16520313D01*
X13535342Y-16520313D02*
X13506770Y-16520313D01*
X13506770Y-16520313D02*
X13487723Y-16510789D01*
X13487723Y-16510789D02*
X13478199Y-16491741D01*
X13478199Y-16491741D02*
X13478199Y-16482218D01*
X13478199Y-16482218D02*
X13487723Y-16463170D01*
X13487723Y-16463170D02*
X13506770Y-16453646D01*
X13506770Y-16453646D02*
X13535342Y-16453646D01*
X13535342Y-16453646D02*
X13554390Y-16463170D01*
X13630580Y-16663170D02*
X13640104Y-16653646D01*
X13640104Y-16653646D02*
X13659151Y-16625075D01*
X13659151Y-16625075D02*
X13668675Y-16606027D01*
X13668675Y-16606027D02*
X13678199Y-16577456D01*
X13678199Y-16577456D02*
X13687723Y-16529837D01*
X13687723Y-16529837D02*
X13687723Y-16491741D01*
X13687723Y-16491741D02*
X13678199Y-16444122D01*
X13678199Y-16444122D02*
X13668675Y-16415551D01*
X13668675Y-16415551D02*
X13659151Y-16396503D01*
X13659151Y-16396503D02*
X13640104Y-16367932D01*
X13640104Y-16367932D02*
X13630580Y-16358408D01*
D15*
X8833571Y-16812480D02*
X8833571Y-16706512D01*
X8727603Y-16706512D01*
X8727603Y-16812480D01*
X8833571Y-16812480D01*
D11*
X9221056Y-16850980D02*
X9106770Y-16850980D01*
X9163913Y-16850980D02*
X9163913Y-16650980D01*
X9163913Y-16650980D02*
X9144865Y-16679551D01*
X9144865Y-16679551D02*
X9125818Y-16698599D01*
X9125818Y-16698599D02*
X9106770Y-16708122D01*
X9306770Y-16831932D02*
X9316294Y-16841456D01*
X9316294Y-16841456D02*
X9306770Y-16850980D01*
X9306770Y-16850980D02*
X9297246Y-16841456D01*
X9297246Y-16841456D02*
X9306770Y-16831932D01*
X9306770Y-16831932D02*
X9306770Y-16850980D01*
X9487723Y-16717646D02*
X9487723Y-16850980D01*
X9440103Y-16641456D02*
X9392484Y-16784313D01*
X9392484Y-16784313D02*
X9516294Y-16784313D01*
X9602008Y-16850980D02*
X9640103Y-16850980D01*
X9640103Y-16850980D02*
X9659151Y-16841456D01*
X9659151Y-16841456D02*
X9668675Y-16831932D01*
X9668675Y-16831932D02*
X9687723Y-16803361D01*
X9687723Y-16803361D02*
X9697246Y-16765265D01*
X9697246Y-16765265D02*
X9697246Y-16689075D01*
X9697246Y-16689075D02*
X9687723Y-16670027D01*
X9687723Y-16670027D02*
X9678199Y-16660503D01*
X9678199Y-16660503D02*
X9659151Y-16650980D01*
X9659151Y-16650980D02*
X9621056Y-16650980D01*
X9621056Y-16650980D02*
X9602008Y-16660503D01*
X9602008Y-16660503D02*
X9592484Y-16670027D01*
X9592484Y-16670027D02*
X9582961Y-16689075D01*
X9582961Y-16689075D02*
X9582961Y-16736694D01*
X9582961Y-16736694D02*
X9592484Y-16755741D01*
X9592484Y-16755741D02*
X9602008Y-16765265D01*
X9602008Y-16765265D02*
X9621056Y-16774789D01*
X9621056Y-16774789D02*
X9659151Y-16774789D01*
X9659151Y-16774789D02*
X9678199Y-16765265D01*
X9678199Y-16765265D02*
X9687723Y-16755741D01*
X9687723Y-16755741D02*
X9697246Y-16736694D01*
X9792484Y-16850980D02*
X9830580Y-16850980D01*
X9830580Y-16850980D02*
X9849627Y-16841456D01*
X9849627Y-16841456D02*
X9859151Y-16831932D01*
X9859151Y-16831932D02*
X9878199Y-16803361D01*
X9878199Y-16803361D02*
X9887723Y-16765265D01*
X9887723Y-16765265D02*
X9887723Y-16689075D01*
X9887723Y-16689075D02*
X9878199Y-16670027D01*
X9878199Y-16670027D02*
X9868675Y-16660503D01*
X9868675Y-16660503D02*
X9849627Y-16650980D01*
X9849627Y-16650980D02*
X9811532Y-16650980D01*
X9811532Y-16650980D02*
X9792484Y-16660503D01*
X9792484Y-16660503D02*
X9782961Y-16670027D01*
X9782961Y-16670027D02*
X9773437Y-16689075D01*
X9773437Y-16689075D02*
X9773437Y-16736694D01*
X9773437Y-16736694D02*
X9782961Y-16755741D01*
X9782961Y-16755741D02*
X9792484Y-16765265D01*
X9792484Y-16765265D02*
X9811532Y-16774789D01*
X9811532Y-16774789D02*
X9849627Y-16774789D01*
X9849627Y-16774789D02*
X9868675Y-16765265D01*
X9868675Y-16765265D02*
X9878199Y-16755741D01*
X9878199Y-16755741D02*
X9887723Y-16736694D01*
X9973437Y-16850980D02*
X9973437Y-16717646D01*
X9973437Y-16736694D02*
X9982961Y-16727170D01*
X9982961Y-16727170D02*
X10002008Y-16717646D01*
X10002008Y-16717646D02*
X10030580Y-16717646D01*
X10030580Y-16717646D02*
X10049627Y-16727170D01*
X10049627Y-16727170D02*
X10059151Y-16746218D01*
X10059151Y-16746218D02*
X10059151Y-16850980D01*
X10059151Y-16746218D02*
X10068675Y-16727170D01*
X10068675Y-16727170D02*
X10087723Y-16717646D01*
X10087723Y-16717646D02*
X10116294Y-16717646D01*
X10116294Y-16717646D02*
X10135342Y-16727170D01*
X10135342Y-16727170D02*
X10144865Y-16746218D01*
X10144865Y-16746218D02*
X10144865Y-16850980D01*
X10240104Y-16850980D02*
X10240104Y-16717646D01*
X10240104Y-16736694D02*
X10249627Y-16727170D01*
X10249627Y-16727170D02*
X10268675Y-16717646D01*
X10268675Y-16717646D02*
X10297246Y-16717646D01*
X10297246Y-16717646D02*
X10316294Y-16727170D01*
X10316294Y-16727170D02*
X10325818Y-16746218D01*
X10325818Y-16746218D02*
X10325818Y-16850980D01*
X10325818Y-16746218D02*
X10335342Y-16727170D01*
X10335342Y-16727170D02*
X10354389Y-16717646D01*
X10354389Y-16717646D02*
X10382961Y-16717646D01*
X10382961Y-16717646D02*
X10402008Y-16727170D01*
X10402008Y-16727170D02*
X10411532Y-16746218D01*
X10411532Y-16746218D02*
X10411532Y-16850980D01*
X10802008Y-16641456D02*
X10630580Y-16898599D01*
X11059151Y-16650980D02*
X11078199Y-16650980D01*
X11078199Y-16650980D02*
X11097247Y-16660503D01*
X11097247Y-16660503D02*
X11106770Y-16670027D01*
X11106770Y-16670027D02*
X11116294Y-16689075D01*
X11116294Y-16689075D02*
X11125818Y-16727170D01*
X11125818Y-16727170D02*
X11125818Y-16774789D01*
X11125818Y-16774789D02*
X11116294Y-16812884D01*
X11116294Y-16812884D02*
X11106770Y-16831932D01*
X11106770Y-16831932D02*
X11097247Y-16841456D01*
X11097247Y-16841456D02*
X11078199Y-16850980D01*
X11078199Y-16850980D02*
X11059151Y-16850980D01*
X11059151Y-16850980D02*
X11040104Y-16841456D01*
X11040104Y-16841456D02*
X11030580Y-16831932D01*
X11030580Y-16831932D02*
X11021056Y-16812884D01*
X11021056Y-16812884D02*
X11011532Y-16774789D01*
X11011532Y-16774789D02*
X11011532Y-16727170D01*
X11011532Y-16727170D02*
X11021056Y-16689075D01*
X11021056Y-16689075D02*
X11030580Y-16670027D01*
X11030580Y-16670027D02*
X11040104Y-16660503D01*
X11040104Y-16660503D02*
X11059151Y-16650980D01*
X11211532Y-16831932D02*
X11221056Y-16841456D01*
X11221056Y-16841456D02*
X11211532Y-16850980D01*
X11211532Y-16850980D02*
X11202008Y-16841456D01*
X11202008Y-16841456D02*
X11211532Y-16831932D01*
X11211532Y-16831932D02*
X11211532Y-16850980D01*
X11344865Y-16650980D02*
X11363913Y-16650980D01*
X11363913Y-16650980D02*
X11382961Y-16660503D01*
X11382961Y-16660503D02*
X11392485Y-16670027D01*
X11392485Y-16670027D02*
X11402008Y-16689075D01*
X11402008Y-16689075D02*
X11411532Y-16727170D01*
X11411532Y-16727170D02*
X11411532Y-16774789D01*
X11411532Y-16774789D02*
X11402008Y-16812884D01*
X11402008Y-16812884D02*
X11392485Y-16831932D01*
X11392485Y-16831932D02*
X11382961Y-16841456D01*
X11382961Y-16841456D02*
X11363913Y-16850980D01*
X11363913Y-16850980D02*
X11344865Y-16850980D01*
X11344865Y-16850980D02*
X11325818Y-16841456D01*
X11325818Y-16841456D02*
X11316294Y-16831932D01*
X11316294Y-16831932D02*
X11306770Y-16812884D01*
X11306770Y-16812884D02*
X11297246Y-16774789D01*
X11297246Y-16774789D02*
X11297246Y-16727170D01*
X11297246Y-16727170D02*
X11306770Y-16689075D01*
X11306770Y-16689075D02*
X11316294Y-16670027D01*
X11316294Y-16670027D02*
X11325818Y-16660503D01*
X11325818Y-16660503D02*
X11344865Y-16650980D01*
X11592485Y-16650980D02*
X11497246Y-16650980D01*
X11497246Y-16650980D02*
X11487723Y-16746218D01*
X11487723Y-16746218D02*
X11497246Y-16736694D01*
X11497246Y-16736694D02*
X11516294Y-16727170D01*
X11516294Y-16727170D02*
X11563913Y-16727170D01*
X11563913Y-16727170D02*
X11582961Y-16736694D01*
X11582961Y-16736694D02*
X11592485Y-16746218D01*
X11592485Y-16746218D02*
X11602008Y-16765265D01*
X11602008Y-16765265D02*
X11602008Y-16812884D01*
X11602008Y-16812884D02*
X11592485Y-16831932D01*
X11592485Y-16831932D02*
X11582961Y-16841456D01*
X11582961Y-16841456D02*
X11563913Y-16850980D01*
X11563913Y-16850980D02*
X11516294Y-16850980D01*
X11516294Y-16850980D02*
X11497246Y-16841456D01*
X11497246Y-16841456D02*
X11487723Y-16831932D01*
X11697246Y-16850980D02*
X11735342Y-16850980D01*
X11735342Y-16850980D02*
X11754389Y-16841456D01*
X11754389Y-16841456D02*
X11763913Y-16831932D01*
X11763913Y-16831932D02*
X11782961Y-16803361D01*
X11782961Y-16803361D02*
X11792485Y-16765265D01*
X11792485Y-16765265D02*
X11792485Y-16689075D01*
X11792485Y-16689075D02*
X11782961Y-16670027D01*
X11782961Y-16670027D02*
X11773437Y-16660503D01*
X11773437Y-16660503D02*
X11754389Y-16650980D01*
X11754389Y-16650980D02*
X11716294Y-16650980D01*
X11716294Y-16650980D02*
X11697246Y-16660503D01*
X11697246Y-16660503D02*
X11687723Y-16670027D01*
X11687723Y-16670027D02*
X11678199Y-16689075D01*
X11678199Y-16689075D02*
X11678199Y-16736694D01*
X11678199Y-16736694D02*
X11687723Y-16755741D01*
X11687723Y-16755741D02*
X11697246Y-16765265D01*
X11697246Y-16765265D02*
X11716294Y-16774789D01*
X11716294Y-16774789D02*
X11754389Y-16774789D01*
X11754389Y-16774789D02*
X11773437Y-16765265D01*
X11773437Y-16765265D02*
X11782961Y-16755741D01*
X11782961Y-16755741D02*
X11792485Y-16736694D01*
X11916294Y-16650980D02*
X11935342Y-16650980D01*
X11935342Y-16650980D02*
X11954389Y-16660503D01*
X11954389Y-16660503D02*
X11963913Y-16670027D01*
X11963913Y-16670027D02*
X11973437Y-16689075D01*
X11973437Y-16689075D02*
X11982961Y-16727170D01*
X11982961Y-16727170D02*
X11982961Y-16774789D01*
X11982961Y-16774789D02*
X11973437Y-16812884D01*
X11973437Y-16812884D02*
X11963913Y-16831932D01*
X11963913Y-16831932D02*
X11954389Y-16841456D01*
X11954389Y-16841456D02*
X11935342Y-16850980D01*
X11935342Y-16850980D02*
X11916294Y-16850980D01*
X11916294Y-16850980D02*
X11897246Y-16841456D01*
X11897246Y-16841456D02*
X11887723Y-16831932D01*
X11887723Y-16831932D02*
X11878199Y-16812884D01*
X11878199Y-16812884D02*
X11868675Y-16774789D01*
X11868675Y-16774789D02*
X11868675Y-16727170D01*
X11868675Y-16727170D02*
X11878199Y-16689075D01*
X11878199Y-16689075D02*
X11887723Y-16670027D01*
X11887723Y-16670027D02*
X11897246Y-16660503D01*
X11897246Y-16660503D02*
X11916294Y-16650980D01*
X12059151Y-16650980D02*
X12059151Y-16689075D01*
X12135342Y-16650980D02*
X12135342Y-16689075D01*
X12430580Y-16927170D02*
X12421056Y-16917646D01*
X12421056Y-16917646D02*
X12402008Y-16889075D01*
X12402008Y-16889075D02*
X12392485Y-16870027D01*
X12392485Y-16870027D02*
X12382961Y-16841456D01*
X12382961Y-16841456D02*
X12373437Y-16793837D01*
X12373437Y-16793837D02*
X12373437Y-16755741D01*
X12373437Y-16755741D02*
X12382961Y-16708122D01*
X12382961Y-16708122D02*
X12392485Y-16679551D01*
X12392485Y-16679551D02*
X12402008Y-16660503D01*
X12402008Y-16660503D02*
X12421056Y-16631932D01*
X12421056Y-16631932D02*
X12430580Y-16622408D01*
X12592485Y-16650980D02*
X12554389Y-16650980D01*
X12554389Y-16650980D02*
X12535342Y-16660503D01*
X12535342Y-16660503D02*
X12525818Y-16670027D01*
X12525818Y-16670027D02*
X12506770Y-16698599D01*
X12506770Y-16698599D02*
X12497247Y-16736694D01*
X12497247Y-16736694D02*
X12497247Y-16812884D01*
X12497247Y-16812884D02*
X12506770Y-16831932D01*
X12506770Y-16831932D02*
X12516294Y-16841456D01*
X12516294Y-16841456D02*
X12535342Y-16850980D01*
X12535342Y-16850980D02*
X12573437Y-16850980D01*
X12573437Y-16850980D02*
X12592485Y-16841456D01*
X12592485Y-16841456D02*
X12602008Y-16831932D01*
X12602008Y-16831932D02*
X12611532Y-16812884D01*
X12611532Y-16812884D02*
X12611532Y-16765265D01*
X12611532Y-16765265D02*
X12602008Y-16746218D01*
X12602008Y-16746218D02*
X12592485Y-16736694D01*
X12592485Y-16736694D02*
X12573437Y-16727170D01*
X12573437Y-16727170D02*
X12535342Y-16727170D01*
X12535342Y-16727170D02*
X12516294Y-16736694D01*
X12516294Y-16736694D02*
X12506770Y-16746218D01*
X12506770Y-16746218D02*
X12497247Y-16765265D01*
X12725818Y-16736694D02*
X12706770Y-16727170D01*
X12706770Y-16727170D02*
X12697247Y-16717646D01*
X12697247Y-16717646D02*
X12687723Y-16698599D01*
X12687723Y-16698599D02*
X12687723Y-16689075D01*
X12687723Y-16689075D02*
X12697247Y-16670027D01*
X12697247Y-16670027D02*
X12706770Y-16660503D01*
X12706770Y-16660503D02*
X12725818Y-16650980D01*
X12725818Y-16650980D02*
X12763913Y-16650980D01*
X12763913Y-16650980D02*
X12782961Y-16660503D01*
X12782961Y-16660503D02*
X12792485Y-16670027D01*
X12792485Y-16670027D02*
X12802008Y-16689075D01*
X12802008Y-16689075D02*
X12802008Y-16698599D01*
X12802008Y-16698599D02*
X12792485Y-16717646D01*
X12792485Y-16717646D02*
X12782961Y-16727170D01*
X12782961Y-16727170D02*
X12763913Y-16736694D01*
X12763913Y-16736694D02*
X12725818Y-16736694D01*
X12725818Y-16736694D02*
X12706770Y-16746218D01*
X12706770Y-16746218D02*
X12697247Y-16755741D01*
X12697247Y-16755741D02*
X12687723Y-16774789D01*
X12687723Y-16774789D02*
X12687723Y-16812884D01*
X12687723Y-16812884D02*
X12697247Y-16831932D01*
X12697247Y-16831932D02*
X12706770Y-16841456D01*
X12706770Y-16841456D02*
X12725818Y-16850980D01*
X12725818Y-16850980D02*
X12763913Y-16850980D01*
X12763913Y-16850980D02*
X12782961Y-16841456D01*
X12782961Y-16841456D02*
X12792485Y-16831932D01*
X12792485Y-16831932D02*
X12802008Y-16812884D01*
X12802008Y-16812884D02*
X12802008Y-16774789D01*
X12802008Y-16774789D02*
X12792485Y-16755741D01*
X12792485Y-16755741D02*
X12782961Y-16746218D01*
X12782961Y-16746218D02*
X12763913Y-16736694D01*
X13040104Y-16850980D02*
X13040104Y-16650980D01*
X13125818Y-16850980D02*
X13125818Y-16746218D01*
X13125818Y-16746218D02*
X13116294Y-16727170D01*
X13116294Y-16727170D02*
X13097247Y-16717646D01*
X13097247Y-16717646D02*
X13068675Y-16717646D01*
X13068675Y-16717646D02*
X13049628Y-16727170D01*
X13049628Y-16727170D02*
X13040104Y-16736694D01*
X13249628Y-16850980D02*
X13230580Y-16841456D01*
X13230580Y-16841456D02*
X13221056Y-16831932D01*
X13221056Y-16831932D02*
X13211532Y-16812884D01*
X13211532Y-16812884D02*
X13211532Y-16755741D01*
X13211532Y-16755741D02*
X13221056Y-16736694D01*
X13221056Y-16736694D02*
X13230580Y-16727170D01*
X13230580Y-16727170D02*
X13249628Y-16717646D01*
X13249628Y-16717646D02*
X13278199Y-16717646D01*
X13278199Y-16717646D02*
X13297247Y-16727170D01*
X13297247Y-16727170D02*
X13306770Y-16736694D01*
X13306770Y-16736694D02*
X13316294Y-16755741D01*
X13316294Y-16755741D02*
X13316294Y-16812884D01*
X13316294Y-16812884D02*
X13306770Y-16831932D01*
X13306770Y-16831932D02*
X13297247Y-16841456D01*
X13297247Y-16841456D02*
X13278199Y-16850980D01*
X13278199Y-16850980D02*
X13249628Y-16850980D01*
X13430580Y-16850980D02*
X13411532Y-16841456D01*
X13411532Y-16841456D02*
X13402009Y-16822408D01*
X13402009Y-16822408D02*
X13402009Y-16650980D01*
X13582961Y-16841456D02*
X13563913Y-16850980D01*
X13563913Y-16850980D02*
X13525818Y-16850980D01*
X13525818Y-16850980D02*
X13506770Y-16841456D01*
X13506770Y-16841456D02*
X13497247Y-16822408D01*
X13497247Y-16822408D02*
X13497247Y-16746218D01*
X13497247Y-16746218D02*
X13506770Y-16727170D01*
X13506770Y-16727170D02*
X13525818Y-16717646D01*
X13525818Y-16717646D02*
X13563913Y-16717646D01*
X13563913Y-16717646D02*
X13582961Y-16727170D01*
X13582961Y-16727170D02*
X13592485Y-16746218D01*
X13592485Y-16746218D02*
X13592485Y-16765265D01*
X13592485Y-16765265D02*
X13497247Y-16784313D01*
X13668675Y-16841456D02*
X13687723Y-16850980D01*
X13687723Y-16850980D02*
X13725818Y-16850980D01*
X13725818Y-16850980D02*
X13744866Y-16841456D01*
X13744866Y-16841456D02*
X13754390Y-16822408D01*
X13754390Y-16822408D02*
X13754390Y-16812884D01*
X13754390Y-16812884D02*
X13744866Y-16793837D01*
X13744866Y-16793837D02*
X13725818Y-16784313D01*
X13725818Y-16784313D02*
X13697247Y-16784313D01*
X13697247Y-16784313D02*
X13678199Y-16774789D01*
X13678199Y-16774789D02*
X13668675Y-16755741D01*
X13668675Y-16755741D02*
X13668675Y-16746218D01*
X13668675Y-16746218D02*
X13678199Y-16727170D01*
X13678199Y-16727170D02*
X13697247Y-16717646D01*
X13697247Y-16717646D02*
X13725818Y-16717646D01*
X13725818Y-16717646D02*
X13744866Y-16727170D01*
X13821056Y-16927170D02*
X13830580Y-16917646D01*
X13830580Y-16917646D02*
X13849628Y-16889075D01*
X13849628Y-16889075D02*
X13859151Y-16870027D01*
X13859151Y-16870027D02*
X13868675Y-16841456D01*
X13868675Y-16841456D02*
X13878199Y-16793837D01*
X13878199Y-16793837D02*
X13878199Y-16755741D01*
X13878199Y-16755741D02*
X13868675Y-16708122D01*
X13868675Y-16708122D02*
X13859151Y-16679551D01*
X13859151Y-16679551D02*
X13849628Y-16660503D01*
X13849628Y-16660503D02*
X13830580Y-16631932D01*
X13830580Y-16631932D02*
X13821056Y-16622408D01*
X8755517Y-17129356D02*
X8855517Y-17029356D01*
X8755517Y-16929356D01*
X8655517Y-17029356D01*
X8755517Y-17129356D01*
X9106770Y-16939887D02*
X9116294Y-16930363D01*
X9116294Y-16930363D02*
X9135342Y-16920840D01*
X9135342Y-16920840D02*
X9182961Y-16920840D01*
X9182961Y-16920840D02*
X9202008Y-16930363D01*
X9202008Y-16930363D02*
X9211532Y-16939887D01*
X9211532Y-16939887D02*
X9221056Y-16958935D01*
X9221056Y-16958935D02*
X9221056Y-16977982D01*
X9221056Y-16977982D02*
X9211532Y-17006554D01*
X9211532Y-17006554D02*
X9097246Y-17120840D01*
X9097246Y-17120840D02*
X9221056Y-17120840D01*
X9306770Y-17101792D02*
X9316294Y-17111316D01*
X9316294Y-17111316D02*
X9306770Y-17120840D01*
X9306770Y-17120840D02*
X9297246Y-17111316D01*
X9297246Y-17111316D02*
X9306770Y-17101792D01*
X9306770Y-17101792D02*
X9306770Y-17120840D01*
X9392484Y-16939887D02*
X9402008Y-16930363D01*
X9402008Y-16930363D02*
X9421056Y-16920840D01*
X9421056Y-16920840D02*
X9468675Y-16920840D01*
X9468675Y-16920840D02*
X9487723Y-16930363D01*
X9487723Y-16930363D02*
X9497246Y-16939887D01*
X9497246Y-16939887D02*
X9506770Y-16958935D01*
X9506770Y-16958935D02*
X9506770Y-16977982D01*
X9506770Y-16977982D02*
X9497246Y-17006554D01*
X9497246Y-17006554D02*
X9382961Y-17120840D01*
X9382961Y-17120840D02*
X9506770Y-17120840D01*
X9630580Y-16920840D02*
X9649627Y-16920840D01*
X9649627Y-16920840D02*
X9668675Y-16930363D01*
X9668675Y-16930363D02*
X9678199Y-16939887D01*
X9678199Y-16939887D02*
X9687723Y-16958935D01*
X9687723Y-16958935D02*
X9697246Y-16997030D01*
X9697246Y-16997030D02*
X9697246Y-17044649D01*
X9697246Y-17044649D02*
X9687723Y-17082744D01*
X9687723Y-17082744D02*
X9678199Y-17101792D01*
X9678199Y-17101792D02*
X9668675Y-17111316D01*
X9668675Y-17111316D02*
X9649627Y-17120840D01*
X9649627Y-17120840D02*
X9630580Y-17120840D01*
X9630580Y-17120840D02*
X9611532Y-17111316D01*
X9611532Y-17111316D02*
X9602008Y-17101792D01*
X9602008Y-17101792D02*
X9592484Y-17082744D01*
X9592484Y-17082744D02*
X9582961Y-17044649D01*
X9582961Y-17044649D02*
X9582961Y-16997030D01*
X9582961Y-16997030D02*
X9592484Y-16958935D01*
X9592484Y-16958935D02*
X9602008Y-16939887D01*
X9602008Y-16939887D02*
X9611532Y-16930363D01*
X9611532Y-16930363D02*
X9630580Y-16920840D01*
X9821056Y-16920840D02*
X9840104Y-16920840D01*
X9840104Y-16920840D02*
X9859151Y-16930363D01*
X9859151Y-16930363D02*
X9868675Y-16939887D01*
X9868675Y-16939887D02*
X9878199Y-16958935D01*
X9878199Y-16958935D02*
X9887723Y-16997030D01*
X9887723Y-16997030D02*
X9887723Y-17044649D01*
X9887723Y-17044649D02*
X9878199Y-17082744D01*
X9878199Y-17082744D02*
X9868675Y-17101792D01*
X9868675Y-17101792D02*
X9859151Y-17111316D01*
X9859151Y-17111316D02*
X9840104Y-17120840D01*
X9840104Y-17120840D02*
X9821056Y-17120840D01*
X9821056Y-17120840D02*
X9802008Y-17111316D01*
X9802008Y-17111316D02*
X9792484Y-17101792D01*
X9792484Y-17101792D02*
X9782961Y-17082744D01*
X9782961Y-17082744D02*
X9773437Y-17044649D01*
X9773437Y-17044649D02*
X9773437Y-16997030D01*
X9773437Y-16997030D02*
X9782961Y-16958935D01*
X9782961Y-16958935D02*
X9792484Y-16939887D01*
X9792484Y-16939887D02*
X9802008Y-16930363D01*
X9802008Y-16930363D02*
X9821056Y-16920840D01*
X9973437Y-17120840D02*
X9973437Y-16987506D01*
X9973437Y-17006554D02*
X9982961Y-16997030D01*
X9982961Y-16997030D02*
X10002008Y-16987506D01*
X10002008Y-16987506D02*
X10030580Y-16987506D01*
X10030580Y-16987506D02*
X10049627Y-16997030D01*
X10049627Y-16997030D02*
X10059151Y-17016078D01*
X10059151Y-17016078D02*
X10059151Y-17120840D01*
X10059151Y-17016078D02*
X10068675Y-16997030D01*
X10068675Y-16997030D02*
X10087723Y-16987506D01*
X10087723Y-16987506D02*
X10116294Y-16987506D01*
X10116294Y-16987506D02*
X10135342Y-16997030D01*
X10135342Y-16997030D02*
X10144865Y-17016078D01*
X10144865Y-17016078D02*
X10144865Y-17120840D01*
X10240104Y-17120840D02*
X10240104Y-16987506D01*
X10240104Y-17006554D02*
X10249627Y-16997030D01*
X10249627Y-16997030D02*
X10268675Y-16987506D01*
X10268675Y-16987506D02*
X10297246Y-16987506D01*
X10297246Y-16987506D02*
X10316294Y-16997030D01*
X10316294Y-16997030D02*
X10325818Y-17016078D01*
X10325818Y-17016078D02*
X10325818Y-17120840D01*
X10325818Y-17016078D02*
X10335342Y-16997030D01*
X10335342Y-16997030D02*
X10354389Y-16987506D01*
X10354389Y-16987506D02*
X10382961Y-16987506D01*
X10382961Y-16987506D02*
X10402008Y-16997030D01*
X10402008Y-16997030D02*
X10411532Y-17016078D01*
X10411532Y-17016078D02*
X10411532Y-17120840D01*
X10802008Y-16911316D02*
X10630580Y-17168459D01*
X11059151Y-16920840D02*
X11078199Y-16920840D01*
X11078199Y-16920840D02*
X11097247Y-16930363D01*
X11097247Y-16930363D02*
X11106770Y-16939887D01*
X11106770Y-16939887D02*
X11116294Y-16958935D01*
X11116294Y-16958935D02*
X11125818Y-16997030D01*
X11125818Y-16997030D02*
X11125818Y-17044649D01*
X11125818Y-17044649D02*
X11116294Y-17082744D01*
X11116294Y-17082744D02*
X11106770Y-17101792D01*
X11106770Y-17101792D02*
X11097247Y-17111316D01*
X11097247Y-17111316D02*
X11078199Y-17120840D01*
X11078199Y-17120840D02*
X11059151Y-17120840D01*
X11059151Y-17120840D02*
X11040104Y-17111316D01*
X11040104Y-17111316D02*
X11030580Y-17101792D01*
X11030580Y-17101792D02*
X11021056Y-17082744D01*
X11021056Y-17082744D02*
X11011532Y-17044649D01*
X11011532Y-17044649D02*
X11011532Y-16997030D01*
X11011532Y-16997030D02*
X11021056Y-16958935D01*
X11021056Y-16958935D02*
X11030580Y-16939887D01*
X11030580Y-16939887D02*
X11040104Y-16930363D01*
X11040104Y-16930363D02*
X11059151Y-16920840D01*
X11211532Y-17101792D02*
X11221056Y-17111316D01*
X11221056Y-17111316D02*
X11211532Y-17120840D01*
X11211532Y-17120840D02*
X11202008Y-17111316D01*
X11202008Y-17111316D02*
X11211532Y-17101792D01*
X11211532Y-17101792D02*
X11211532Y-17120840D01*
X11344865Y-16920840D02*
X11363913Y-16920840D01*
X11363913Y-16920840D02*
X11382961Y-16930363D01*
X11382961Y-16930363D02*
X11392485Y-16939887D01*
X11392485Y-16939887D02*
X11402008Y-16958935D01*
X11402008Y-16958935D02*
X11411532Y-16997030D01*
X11411532Y-16997030D02*
X11411532Y-17044649D01*
X11411532Y-17044649D02*
X11402008Y-17082744D01*
X11402008Y-17082744D02*
X11392485Y-17101792D01*
X11392485Y-17101792D02*
X11382961Y-17111316D01*
X11382961Y-17111316D02*
X11363913Y-17120840D01*
X11363913Y-17120840D02*
X11344865Y-17120840D01*
X11344865Y-17120840D02*
X11325818Y-17111316D01*
X11325818Y-17111316D02*
X11316294Y-17101792D01*
X11316294Y-17101792D02*
X11306770Y-17082744D01*
X11306770Y-17082744D02*
X11297246Y-17044649D01*
X11297246Y-17044649D02*
X11297246Y-16997030D01*
X11297246Y-16997030D02*
X11306770Y-16958935D01*
X11306770Y-16958935D02*
X11316294Y-16939887D01*
X11316294Y-16939887D02*
X11325818Y-16930363D01*
X11325818Y-16930363D02*
X11344865Y-16920840D01*
X11525818Y-17006554D02*
X11506770Y-16997030D01*
X11506770Y-16997030D02*
X11497246Y-16987506D01*
X11497246Y-16987506D02*
X11487723Y-16968459D01*
X11487723Y-16968459D02*
X11487723Y-16958935D01*
X11487723Y-16958935D02*
X11497246Y-16939887D01*
X11497246Y-16939887D02*
X11506770Y-16930363D01*
X11506770Y-16930363D02*
X11525818Y-16920840D01*
X11525818Y-16920840D02*
X11563913Y-16920840D01*
X11563913Y-16920840D02*
X11582961Y-16930363D01*
X11582961Y-16930363D02*
X11592485Y-16939887D01*
X11592485Y-16939887D02*
X11602008Y-16958935D01*
X11602008Y-16958935D02*
X11602008Y-16968459D01*
X11602008Y-16968459D02*
X11592485Y-16987506D01*
X11592485Y-16987506D02*
X11582961Y-16997030D01*
X11582961Y-16997030D02*
X11563913Y-17006554D01*
X11563913Y-17006554D02*
X11525818Y-17006554D01*
X11525818Y-17006554D02*
X11506770Y-17016078D01*
X11506770Y-17016078D02*
X11497246Y-17025602D01*
X11497246Y-17025602D02*
X11487723Y-17044649D01*
X11487723Y-17044649D02*
X11487723Y-17082744D01*
X11487723Y-17082744D02*
X11497246Y-17101792D01*
X11497246Y-17101792D02*
X11506770Y-17111316D01*
X11506770Y-17111316D02*
X11525818Y-17120840D01*
X11525818Y-17120840D02*
X11563913Y-17120840D01*
X11563913Y-17120840D02*
X11582961Y-17111316D01*
X11582961Y-17111316D02*
X11592485Y-17101792D01*
X11592485Y-17101792D02*
X11602008Y-17082744D01*
X11602008Y-17082744D02*
X11602008Y-17044649D01*
X11602008Y-17044649D02*
X11592485Y-17025602D01*
X11592485Y-17025602D02*
X11582961Y-17016078D01*
X11582961Y-17016078D02*
X11563913Y-17006554D01*
X11773437Y-16920840D02*
X11735342Y-16920840D01*
X11735342Y-16920840D02*
X11716294Y-16930363D01*
X11716294Y-16930363D02*
X11706770Y-16939887D01*
X11706770Y-16939887D02*
X11687723Y-16968459D01*
X11687723Y-16968459D02*
X11678199Y-17006554D01*
X11678199Y-17006554D02*
X11678199Y-17082744D01*
X11678199Y-17082744D02*
X11687723Y-17101792D01*
X11687723Y-17101792D02*
X11697246Y-17111316D01*
X11697246Y-17111316D02*
X11716294Y-17120840D01*
X11716294Y-17120840D02*
X11754389Y-17120840D01*
X11754389Y-17120840D02*
X11773437Y-17111316D01*
X11773437Y-17111316D02*
X11782961Y-17101792D01*
X11782961Y-17101792D02*
X11792485Y-17082744D01*
X11792485Y-17082744D02*
X11792485Y-17035125D01*
X11792485Y-17035125D02*
X11782961Y-17016078D01*
X11782961Y-17016078D02*
X11773437Y-17006554D01*
X11773437Y-17006554D02*
X11754389Y-16997030D01*
X11754389Y-16997030D02*
X11716294Y-16997030D01*
X11716294Y-16997030D02*
X11697246Y-17006554D01*
X11697246Y-17006554D02*
X11687723Y-17016078D01*
X11687723Y-17016078D02*
X11678199Y-17035125D01*
X11963913Y-16920840D02*
X11925818Y-16920840D01*
X11925818Y-16920840D02*
X11906770Y-16930363D01*
X11906770Y-16930363D02*
X11897246Y-16939887D01*
X11897246Y-16939887D02*
X11878199Y-16968459D01*
X11878199Y-16968459D02*
X11868675Y-17006554D01*
X11868675Y-17006554D02*
X11868675Y-17082744D01*
X11868675Y-17082744D02*
X11878199Y-17101792D01*
X11878199Y-17101792D02*
X11887723Y-17111316D01*
X11887723Y-17111316D02*
X11906770Y-17120840D01*
X11906770Y-17120840D02*
X11944866Y-17120840D01*
X11944866Y-17120840D02*
X11963913Y-17111316D01*
X11963913Y-17111316D02*
X11973437Y-17101792D01*
X11973437Y-17101792D02*
X11982961Y-17082744D01*
X11982961Y-17082744D02*
X11982961Y-17035125D01*
X11982961Y-17035125D02*
X11973437Y-17016078D01*
X11973437Y-17016078D02*
X11963913Y-17006554D01*
X11963913Y-17006554D02*
X11944866Y-16997030D01*
X11944866Y-16997030D02*
X11906770Y-16997030D01*
X11906770Y-16997030D02*
X11887723Y-17006554D01*
X11887723Y-17006554D02*
X11878199Y-17016078D01*
X11878199Y-17016078D02*
X11868675Y-17035125D01*
X12059151Y-16920840D02*
X12059151Y-16958935D01*
X12135342Y-16920840D02*
X12135342Y-16958935D01*
X12430580Y-17197030D02*
X12421056Y-17187506D01*
X12421056Y-17187506D02*
X12402008Y-17158935D01*
X12402008Y-17158935D02*
X12392485Y-17139887D01*
X12392485Y-17139887D02*
X12382961Y-17111316D01*
X12382961Y-17111316D02*
X12373437Y-17063697D01*
X12373437Y-17063697D02*
X12373437Y-17025602D01*
X12373437Y-17025602D02*
X12382961Y-16977982D01*
X12382961Y-16977982D02*
X12392485Y-16949411D01*
X12392485Y-16949411D02*
X12402008Y-16930363D01*
X12402008Y-16930363D02*
X12421056Y-16901792D01*
X12421056Y-16901792D02*
X12430580Y-16892268D01*
X12592485Y-16987506D02*
X12592485Y-17120840D01*
X12544866Y-16911316D02*
X12497247Y-17054173D01*
X12497247Y-17054173D02*
X12621056Y-17054173D01*
X12849628Y-17120840D02*
X12849628Y-16920840D01*
X12935342Y-17120840D02*
X12935342Y-17016078D01*
X12935342Y-17016078D02*
X12925818Y-16997030D01*
X12925818Y-16997030D02*
X12906770Y-16987506D01*
X12906770Y-16987506D02*
X12878199Y-16987506D01*
X12878199Y-16987506D02*
X12859151Y-16997030D01*
X12859151Y-16997030D02*
X12849628Y-17006554D01*
X13059151Y-17120840D02*
X13040104Y-17111316D01*
X13040104Y-17111316D02*
X13030580Y-17101792D01*
X13030580Y-17101792D02*
X13021056Y-17082744D01*
X13021056Y-17082744D02*
X13021056Y-17025602D01*
X13021056Y-17025602D02*
X13030580Y-17006554D01*
X13030580Y-17006554D02*
X13040104Y-16997030D01*
X13040104Y-16997030D02*
X13059151Y-16987506D01*
X13059151Y-16987506D02*
X13087723Y-16987506D01*
X13087723Y-16987506D02*
X13106770Y-16997030D01*
X13106770Y-16997030D02*
X13116294Y-17006554D01*
X13116294Y-17006554D02*
X13125818Y-17025602D01*
X13125818Y-17025602D02*
X13125818Y-17082744D01*
X13125818Y-17082744D02*
X13116294Y-17101792D01*
X13116294Y-17101792D02*
X13106770Y-17111316D01*
X13106770Y-17111316D02*
X13087723Y-17120840D01*
X13087723Y-17120840D02*
X13059151Y-17120840D01*
X13240104Y-17120840D02*
X13221056Y-17111316D01*
X13221056Y-17111316D02*
X13211532Y-17092268D01*
X13211532Y-17092268D02*
X13211532Y-16920840D01*
X13392485Y-17111316D02*
X13373437Y-17120840D01*
X13373437Y-17120840D02*
X13335342Y-17120840D01*
X13335342Y-17120840D02*
X13316294Y-17111316D01*
X13316294Y-17111316D02*
X13306770Y-17092268D01*
X13306770Y-17092268D02*
X13306770Y-17016078D01*
X13306770Y-17016078D02*
X13316294Y-16997030D01*
X13316294Y-16997030D02*
X13335342Y-16987506D01*
X13335342Y-16987506D02*
X13373437Y-16987506D01*
X13373437Y-16987506D02*
X13392485Y-16997030D01*
X13392485Y-16997030D02*
X13402009Y-17016078D01*
X13402009Y-17016078D02*
X13402009Y-17035125D01*
X13402009Y-17035125D02*
X13306770Y-17054173D01*
X13478199Y-17111316D02*
X13497247Y-17120840D01*
X13497247Y-17120840D02*
X13535342Y-17120840D01*
X13535342Y-17120840D02*
X13554390Y-17111316D01*
X13554390Y-17111316D02*
X13563913Y-17092268D01*
X13563913Y-17092268D02*
X13563913Y-17082744D01*
X13563913Y-17082744D02*
X13554390Y-17063697D01*
X13554390Y-17063697D02*
X13535342Y-17054173D01*
X13535342Y-17054173D02*
X13506770Y-17054173D01*
X13506770Y-17054173D02*
X13487723Y-17044649D01*
X13487723Y-17044649D02*
X13478199Y-17025602D01*
X13478199Y-17025602D02*
X13478199Y-17016078D01*
X13478199Y-17016078D02*
X13487723Y-16997030D01*
X13487723Y-16997030D02*
X13506770Y-16987506D01*
X13506770Y-16987506D02*
X13535342Y-16987506D01*
X13535342Y-16987506D02*
X13554390Y-16997030D01*
X13630580Y-17197030D02*
X13640104Y-17187506D01*
X13640104Y-17187506D02*
X13659151Y-17158935D01*
X13659151Y-17158935D02*
X13668675Y-17139887D01*
X13668675Y-17139887D02*
X13678199Y-17111316D01*
X13678199Y-17111316D02*
X13687723Y-17063697D01*
X13687723Y-17063697D02*
X13687723Y-17025602D01*
X13687723Y-17025602D02*
X13678199Y-16977982D01*
X13678199Y-16977982D02*
X13668675Y-16949411D01*
X13668675Y-16949411D02*
X13659151Y-16930363D01*
X13659151Y-16930363D02*
X13640104Y-16901792D01*
X13640104Y-16901792D02*
X13630580Y-16892268D01*
M02*
