M48
; DRILL file {KiCad 7.0.5} date Sun 18 Jun 2023 12:00:01 BST
; FORMAT={-:-/ absolute / metric / decimal}
; #@! TF.CreationDate,2023-06-18T12:00:01+01:00
; #@! TF.GenerationSoftware,Kicad,Pcbnew,7.0.5
; #@! TF.FileFunction,Plated,1,2,PTH
FMAT,2
METRIC
; #@! TA.AperFunction,Plated,PTH,ComponentDrill
T1C0.813
; #@! TA.AperFunction,Plated,PTH,ComponentDrill
T2C0.900
; #@! TA.AperFunction,Plated,PTH,ComponentDrill
T3C1.300
; #@! TA.AperFunction,Plated,PTH,ComponentDrill
T4C1.499
; #@! TA.AperFunction,Plated,PTH,ComponentDrill
T5C2.200
%
G90
G05
T1
X186.095Y-94.113
X186.095Y-96.653
X186.095Y-99.193
X186.095Y-101.733
X186.095Y-104.273
X186.095Y-106.813
X186.095Y-109.353
X186.095Y-111.893
X186.095Y-114.433
X186.095Y-116.973
X186.095Y-119.513
X186.095Y-122.053
X201.315Y-94.113
X201.315Y-96.653
X201.315Y-99.193
X201.315Y-101.733
X201.315Y-104.273
X201.315Y-106.813
X201.315Y-109.353
X201.315Y-111.893
X201.315Y-114.433
X201.315Y-116.973
X201.315Y-119.513
X201.315Y-122.053
T3
X190.475Y-95.7
X196.975Y-95.7
T4
X93.8Y-82.805
X93.8Y-101.805
X93.8Y-120.805
X95.07Y-80.265
X95.07Y-99.265
X95.07Y-118.265
X100.15Y-80.265
X100.15Y-99.265
X100.15Y-118.265
X101.42Y-82.805
X101.42Y-101.805
X101.42Y-120.805
X112.8Y-70.93
X112.8Y-89.93
X112.8Y-108.93
X114.07Y-68.39
X114.07Y-87.39
X114.07Y-106.39
X119.15Y-68.39
X119.15Y-87.39
X119.15Y-106.39
X120.42Y-70.93
X120.42Y-89.93
X120.42Y-108.93
X131.8Y-64.705
X131.8Y-83.705
X131.8Y-102.705
X133.07Y-62.165
X133.07Y-81.165
X133.07Y-100.165
X138.15Y-62.165
X138.15Y-81.165
X138.15Y-100.165
X139.42Y-64.705
X139.42Y-83.705
X139.42Y-102.705
X150.8Y-69.305
X150.8Y-88.305
X150.8Y-107.305
X152.07Y-66.765
X152.07Y-85.765
X152.07Y-104.765
X157.15Y-66.765
X157.15Y-85.765
X157.15Y-104.765
X158.42Y-69.305
X158.42Y-88.305
X158.42Y-107.305
X160.859Y-129.193
X162.743Y-127.069
X167.65Y-128.383
X168.22Y-131.166
X169.8Y-71.805
X169.8Y-90.805
X169.8Y-109.805
X171.07Y-69.265
X171.07Y-88.265
X171.07Y-107.265
X176.15Y-69.265
X176.15Y-88.265
X176.15Y-107.265
X177.42Y-71.805
X177.42Y-90.805
X177.42Y-109.805
X181.53Y-136.744
X183.9Y-135.18
X188.13Y-140.554
X188.3Y-137.72
T5
X125.762Y-83.529
X144.812Y-64.479
X144.812Y-102.579
X163.862Y-83.529
T2
X188.04Y-129.765G85X188.44Y-129.765
G05
X188.46Y-125.195G85X188.06Y-125.195
G05
X189.14Y-125.165G85X189.54Y-125.165
G05
X189.56Y-129.795G85X189.16Y-129.795
G05
X193.14Y-125.165G85X193.54Y-125.165
G05
X193.56Y-129.795G85X193.16Y-129.795
G05
X196.14Y-125.165G85X196.54Y-125.165
G05
X196.56Y-129.795G85X196.16Y-129.795
G05
T0
M30
